<?xml version="1.0" encoding="UTF-8"?>
<!DOCTYPE svg PUBLIC "-//W3C//DTD SVG 1.1//EN" "http://www.w3.org/Graphics/SVG/1.1/DTD/svg11.dtd">
<svg xmlns="http://www.w3.org/2000/svg" xmlns:xlink="http://www.w3.org/1999/xlink" version="1.1" width="233px" height="278px" viewBox="-0.5 -0.5 233 278"><defs/><g><path d="M 134 25 Q 134 25 87.12 25" fill="none" stroke="rgb(0, 0, 0)" stroke-miterlimit="10" pointer-events="stroke"/><path d="M 80.12 25 L 87.12 21.5 L 87.12 28.5 Z" fill="rgb(0, 0, 0)" stroke="rgb(0, 0, 0)" stroke-miterlimit="10" pointer-events="all"/><rect x="134" y="5" width="90" height="40" rx="6" ry="6" fill="rgb(255, 255, 255)" stroke="rgb(0, 0, 0)" pointer-events="all"/><g fill="rgb(0, 0, 0)" font-family="Space Grotesk" text-anchor="middle" font-size="12.00012px"><text x="178.5" y="29.5">Model A</text></g><path d="M 134 95 Q 39.5 95 39.5 58.12" fill="none" stroke="rgb(0, 0, 0)" stroke-miterlimit="10" pointer-events="stroke"/><path d="M 39.5 51.12 L 43 58.12 L 36 58.12 Z" fill="rgb(0, 0, 0)" stroke="rgb(0, 0, 0)" stroke-miterlimit="10" pointer-events="all"/><path d="M 134 95 Q 39.5 95 39.5 133.63" fill="none" stroke="rgb(0, 0, 0)" stroke-miterlimit="10" pointer-events="stroke"/><path d="M 39.5 138.88 L 36 131.88 L 39.5 133.63 L 43 131.88 Z" fill="rgb(0, 0, 0)" stroke="rgb(0, 0, 0)" stroke-miterlimit="10" pointer-events="all"/><rect x="134" y="75" width="90" height="40" rx="6" ry="6" fill="rgb(255, 255, 255)" stroke="rgb(0, 0, 0)" pointer-events="all"/><g fill="rgb(0, 0, 0)" font-family="Space Grotesk" text-anchor="middle" font-size="12.00012px"><text x="178.5" y="99.5">Model B</text></g><path d="M 134 165 Q 106.5 165 106.5 207.5 Q 106.5 250 85.37 250" fill="none" stroke="rgb(0, 0, 0)" stroke-miterlimit="10" pointer-events="stroke"/><path d="M 80.12 250 L 87.12 246.5 L 85.37 250 L 87.12 253.5 Z" fill="rgb(0, 0, 0)" stroke="rgb(0, 0, 0)" stroke-miterlimit="10" pointer-events="all"/><rect x="134" y="145" width="90" height="40" rx="6" ry="6" fill="#fff2cc" stroke="#d6b656" pointer-events="all"/><g fill="rgb(0, 0, 0)" font-family="Space Grotesk" text-anchor="middle" font-size="12.00012px"><text x="178.5" y="169.5">Model C</text></g><path d="M 5 12.5 L 7.5 6.25 Q 10 0 20 0 L 59 0 Q 69 0 72.71 9.28 L 75.86 17.14 Q 79 25 75.29 34.29 L 72.14 42.14 Q 69 50 59 50 L 20 50 Q 10 50 6.29 40.72 L 3.14 32.86 Q 0 25 2.5 18.75 Z" fill="rgb(255, 255, 255)" stroke="rgb(0, 0, 0)" stroke-miterlimit="10" pointer-events="all"/><g fill="rgb(0, 0, 0)" font-family="Space Grotesk" text-anchor="middle" font-size="12.00012px"><text x="39" y="29.5">Protocol âº</text></g><path d="M 5 152.5 L 7.5 146.25 Q 10 140 20 140 L 59 140 Q 69 140 72.71 149.29 L 75.86 157.14 Q 79 165 75.29 174.29 L 72.14 182.14 Q 69 190 59 190 L 20 190 Q 10 190 6.29 180.72 L 3.14 172.86 Q 0 165 2.5 158.75 Z" fill="rgb(255, 255, 255)" stroke="rgb(0, 0, 0)" stroke-miterlimit="10" pointer-events="all"/><g fill="rgb(0, 0, 0)" font-family="Space Grotesk" text-anchor="middle" font-size="12.00012px"><text x="39" y="169.5">Protocol Î²</text></g><path d="M 5 237.5 L 7.5 231.25 Q 10 225 20 225 L 59 225 Q 69 225 72.71 234.29 L 75.86 242.14 Q 79 250 75.29 259.29 L 72.14 267.15 Q 69 275 59 275 L 20 275 Q 10 275 6.29 265.72 L 3.14 257.86 Q 0 250 2.5 243.75 Z" fill="rgb(255, 255, 255)" stroke="rgb(0, 0, 0)" stroke-miterlimit="10" pointer-events="all"/><g fill="rgb(0, 0, 0)" font-family="Space Grotesk" text-anchor="middle" font-size="12.00012px"><text x="39" y="254.5">Protocol ğ›„</text></g><rect x="140" y="225" width="90" height="40" rx="6" ry="6" fill="#fff2cc" stroke="#d6b656" pointer-events="all"/><g fill="rgb(0, 0, 0)" font-family="Space Grotesk" text-anchor="middle" font-size="12.00012px"><text x="184.5" y="249.5">Model C</text></g></g></svg>