<?xml version="1.0" encoding="UTF-8"?>
<!-- Generated by Pixelmator Pro 3.4.3 -->
<svg width="32" height="40" viewBox="0 0 32 40" xmlns="http://www.w3.org/2000/svg">
    <g id="Group">
        <g id="g1">
            <path id="Path" fill="#000000" stroke="none" d="M 12.31 9.736 L 14.504 10.242001 L 15.303 11.519001 C 15.398 11.671 15.561 11.754 15.727 11.754 C 15.817 11.754 15.909 11.73 15.992 11.678001 C 16.226 11.532 16.297001 11.223 16.150999 10.989 L 15.242 9.535999 C 15.172 9.424 15.06 9.344 14.93 9.313999 L 11.387 8.497 C 11.333 8.484001 11.279 8.487 11.226 8.492001 C 10.927 8.324001 10.601 8.265999 10.248 8.306999 C 10.244 8.27 10.25 8.233 10.244 8.196999 L 11.181 7.611 L 13.342 8.109001 C 13.61 8.174 13.88 8.004 13.942 7.734001 C 14.004 7.465 13.836 7.195999 13.567 7.133999 L 11.204 6.59 C 11.075 6.562 10.94 6.583 10.827 6.653 L 9.716 7.348 L 10.61 5.883999 C 10.666 5.792 10.691 5.682999 10.681 5.575001 L 10.498 3.667 C 10.472 3.393002 10.237 3.179001 9.953 3.216999 C 9.678 3.243 9.477 3.487999 9.503 3.762001 L 9.67 5.505001 L 9.145 6.364998 C 9.089 6.209999 9.021 6.055 8.927 5.903999 C 8.667 5.487999 8.311 5.188 7.938 5.044998 L 7.864 4.303001 C 7.856 4.225998 7.831 4.152 7.79 4.086998 L 7.336 3.360001 C 7.19 3.125999 6.882 3.055 6.647 3.202 C 6.413 3.348 6.342 3.655998 6.488 3.890999 L 6.88 4.518002 L 6.934 5.063 C 6.9 5.080002 6.862 5.089001 6.829 5.110001 C 6.796 5.130001 6.773 5.160999 6.743 5.185001 L 6.275 4.896999 L 5.882 4.27 C 5.736 4.035 5.428 3.963001 5.193 4.111 C 4.959 4.257 4.888 4.566002 5.035 4.799999 L 5.49 5.527 C 5.531 5.591999 5.586 5.646999 5.652 5.688 L 6.289 6.080002 C 6.254 6.484001 6.367 6.931 6.625 7.342999 C 6.717 7.491001 6.823 7.624001 6.937 7.741001 L 5.941 7.836998 L 4.448 6.924999 C 4.212 6.780998 3.905 6.855 3.76 7.091 C 3.615 7.327 3.691 7.633999 3.927 7.778 L 5.563 8.777 C 5.642 8.825001 5.732 8.85 5.824 8.85 C 5.84 8.85 5.856 8.848999 5.872 8.848 L 7.579 8.685001 L 6.467 9.380001 C 6.355 9.450001 6.275 9.562 6.245 9.691 L 5.701 12.053001 C 5.639 12.321999 5.807 12.591 6.076 12.653 C 6.114 12.661999 6.152 12.666 6.189 12.666 C 6.417 12.666 6.623 12.51 6.676 12.278 L 7.174 10.117001 L 8.117 9.527 C 8.146 9.548 8.174 9.571999 8.205 9.591 C 8.141 9.695 8.08 9.800999 8.039 9.922001 C 7.975 10.108 7.959 10.306 7.965 10.507999 C 7.926 10.561001 7.897 10.622 7.881 10.689999 L 7.064 14.233 C 7.034 14.362 7.057 14.498001 7.127 14.610001 L 8.036 16.063999 C 8.131 16.216999 8.294 16.299999 8.461 16.299999 C 8.551 16.299999 8.643 16.275999 8.726 16.224001 C 8.96 16.077999 9.031 15.769001 8.885 15.535 L 8.086 14.257 L 8.591 12.068001 C 8.766 12.310001 8.968 12.548 9.193 12.776001 C 9.198 12.782 9.205 12.786999 9.21 12.792999 C 9.95 13.538 10.892 14.138 11.674 14.138 C 11.931 14.138 12.163 14.075001 12.362 13.951 C 13.43 13.281 13.056 11.125 12.31 9.736 Z M 8.609 8.629 C 8.559 8.548 8.543 8.452999 8.564 8.359001 C 8.585 8.265999 8.642 8.187 8.723 8.136 C 8.78 8.102001 8.845 8.083 8.912 8.083 C 9.037 8.083 9.15 8.146 9.216 8.250999 C 9.266 8.332001 9.282 8.427 9.261 8.521 C 9.239 8.612999 9.183 8.692001 9.102 8.743 C 8.939 8.845001 8.71 8.791 8.609 8.629 Z M 8.193 7.290001 C 8.187 7.292999 8.169 7.304001 8.126 7.304001 C 7.954 7.304001 7.675 7.136002 7.473 6.813 C 7.271 6.491001 7.248 6.181999 7.311 6.030998 C 7.314 6.025002 7.444 5.952 7.447 5.945999 C 7.61 5.955002 7.877 6.112 8.079 6.433998 C 8.333 6.841 8.297 7.224998 8.193 7.290001 Z M 8.984 10.248001 C 9.058 10.032 9.27 9.817001 9.632 9.591 C 9.955 9.389 10.215 9.291 10.427 9.291 C 10.538 9.291 10.877 9.291 11.306 9.977001 C 11.379 10.094 11.443 10.219 11.505 10.345001 C 10.522 10.524 9.882 11.124001 9.505 11.628 C 9.411 11.507999 9.323 11.386 9.247 11.264 C 8.984 10.845001 8.896 10.503 8.984 10.248001 Z M 11.829 13.104 C 11.792 13.126999 11.739 13.139 11.672 13.139 C 11.3 13.139 10.733 12.814999 10.208 12.359001 C 10.49 11.932999 11.014 11.395 11.865 11.309 C 12.093 12.153 12.093 12.938 11.829 13.104 Z"/>
            <path id="path1" fill="#000000" stroke="none" d="M 28.931 27.409 C 28.929001 27.409 28.559 27.391001 27.943001 27.351 C 27.931999 27.351 27.921 27.35 27.91 27.35 C 27.648001 27.35 27.429001 27.552999 27.410999 27.818001 C 27.393 28.094 27.601999 28.332001 27.878 28.349001 C 28.504999 28.389999 28.882 28.408001 28.882 28.408001 C 29.125999 28.412001 29.392 28.208 29.405001 27.931999 C 29.419001 27.657 29.207001 27.422001 28.931 27.409 Z"/>
            <path id="path2" fill="#000000" stroke="none" d="M 17.018 19.221001 C 16.750999 19.221001 16.528999 19.431999 16.518999 19.701 C 16.499001 20.209 16.385 20.757999 16.17 21.377001 C 16.08 21.638 16.218 21.922001 16.479 22.013 C 16.742001 22.103001 17.024 21.966 17.115 21.704 C 17.362 20.99 17.493999 20.348 17.518 19.74 C 17.528999 19.464001 17.313999 19.232 17.038 19.221001 C 17.031 19.221001 17.025 19.221001 17.018 19.221001 Z"/>
            <path id="path3" fill="#000000" stroke="none" d="M 15.692 15.839001 C 15.572 15.839001 15.453 15.881001 15.357 15.966999 C 15.152 16.152 15.136 16.468 15.32 16.674 C 15.731 17.129 16.039 17.605 16.237 18.087 C 16.341999 18.343 16.634001 18.465 16.889 18.360001 C 17.145 18.254999 17.267 17.962999 17.162001 17.708 C 16.92 17.118999 16.551001 16.546 16.063 16.004 C 15.965 15.895 15.829 15.839001 15.692 15.839001 Z"/>
            <path id="path4" fill="#000000" stroke="none" d="M 22.403 26.834999 C 21.787001 26.757 21.169001 26.669001 20.570999 26.572001 C 20.544001 26.568001 20.517 26.566 20.49 26.566 C 20.249001 26.566 20.037001 26.74 19.997 26.986 C 19.952999 27.259001 20.138 27.514999 20.410999 27.559999 C 21.02 27.659 21.649 27.747999 22.277 27.827999 C 22.551001 27.853001 22.799999 27.667999 22.836 27.395 C 22.871 27.120001 22.677 26.870001 22.403 26.834999 Z"/>
            <path id="path5" fill="#000000" stroke="none" d="M 18.767 26.229 C 18.07 26.072001 17.489 25.906 17.041 25.735001 C 16.982 25.712999 16.922001 25.702 16.863001 25.702 C 16.662001 25.702 16.472 25.825001 16.396 26.024 C 16.298 26.282 16.427 26.570999 16.684999 26.67 C 17.177 26.858 17.804001 27.038 18.547001 27.205 C 18.816999 27.268 19.084 27.097 19.145 26.827 C 19.205999 26.556999 19.037001 26.290001 18.767 26.229 Z"/>
            <path id="path6" fill="#000000" stroke="none" d="M 26.096001 27.215 C 25.525999 27.167999 24.9 27.112 24.246 27.045 C 24.228001 27.044001 24.211 27.042999 24.195 27.042999 C 23.941999 27.042999 23.724001 27.235001 23.698 27.492001 C 23.67 27.767 23.870001 28.013 24.145 28.040001 C 24.806 28.107 25.438999 28.164 26.014999 28.212 C 26.285999 28.235001 26.531 28.030001 26.555 27.754 C 26.576 27.48 26.371 27.238001 26.096001 27.215 Z"/>
            <path id="path7" fill="#000000" stroke="none" d="M 16.392 23.462999 C 16.500999 23.209 16.382999 22.915001 16.129 22.806999 C 16.065001 22.778999 15.998 22.766001 15.932 22.766001 C 15.738 22.766001 15.554 22.879999 15.473 23.069 C 15.169 23.778999 14.98 24.320999 14.98 24.827999 C 14.98 24.938 14.989 25.042999 15.007 25.145 C 15.056 25.417 15.316 25.6 15.588 25.549 C 15.86 25.5 16.041 25.24 15.992 24.968 C 15.984 24.923 15.98 24.875999 15.98 24.827999 C 15.98 24.455999 16.191999 23.927999 16.392 23.462999 Z"/>
            <path id="path8" fill="#000000" stroke="none" d="M 13.72 14.109001 C 13.637 14.057999 13.546 14.033001 13.456 14.033001 C 13.289 14.033001 13.126 14.116001 13.031 14.268 C 12.885 14.501999 12.956 14.811001 13.191 14.957001 C 13.48 15.137001 13.747 15.316 13.992 15.496 C 14.216 15.66 14.528 15.611 14.691 15.388 C 14.854 15.165001 14.806 14.852001 14.583 14.688999 C 14.317 14.497 14.031 14.303001 13.72 14.109001 Z"/>
        </g>
    </g>
</svg>
