<?xml version="1.0" encoding="UTF-8"?>
<!-- Generated by Pixelmator Pro 3.5.5 -->
<svg width="77" height="103" viewBox="0 0 77 103" xmlns="http://www.w3.org/2000/svg">
    <g id="Group">
        <path id="Path" fill="#000000" stroke="none" d="M 12.452637 0.605118 C 12.452637 0.605118 9.626837 0.58374 6.751953 2.01844 C 3.877069 3.453148 0.880371 6.422234 0.880371 12.167526 L 0.880371 91.386467 C 0.880371 97.127144 3.877069 100.088669 6.751953 101.523369 C 9.626837 102.958069 12.452637 102.936691 12.452637 102.936691 L 65.370117 102.936691 C 65.370117 102.936691 68.195923 102.957901 71.070801 101.523369 C 73.945686 100.088669 76.95459 97.152206 76.95459 91.386467 L 76.95459 12.167526 C 76.95459 6.418045 73.945686 3.453148 71.070801 2.01844 C 68.195923 0.58374 65.370117 0.605118 65.370117 0.605118 Z M 12.452637 3.906921 L 65.370117 3.906921 C 65.370117 3.906921 67.507698 3.938065 69.59375 4.979095 C 71.679802 6.020134 73.646492 8.000374 73.646492 12.167526 L 73.646492 91.386467 C 73.646492 95.558525 71.679802 97.533852 69.59375 98.574898 C 67.507698 99.615929 65.370117 99.634888 65.370117 99.634888 L 12.452637 99.634888 C 12.452637 99.634888 10.32726 99.616165 8.241211 98.574898 C 6.155162 97.533852 4.188477 95.515564 4.188477 91.386467 L 4.188477 12.167526 C 4.188477 8.044685 6.155162 6.020134 8.241211 4.979095 C 10.32726 3.938065 12.452637 3.906921 12.452637 3.906921 Z"/>
        <path id="path1" fill="#000000" stroke="none" d="M 38.91748 8.865723 C 29.804249 8.865723 22.376953 16.266693 22.376953 25.362564 C 22.376959 34.458427 29.804253 41.871582 38.91748 41.871582 C 48.030716 41.87159 55.458 34.458435 55.458008 25.362564 C 55.458008 16.266693 48.030716 8.865723 38.91748 8.865723 Z M 38.91748 12.167526 C 46.24332 12.167526 52.149902 18.050674 52.149902 25.362564 C 52.149902 32.674446 46.24332 38.569786 38.91748 38.569778 C 31.591644 38.569778 25.685062 32.674446 25.685059 25.362564 C 25.685059 18.050674 31.59164 12.167526 38.91748 12.167526 Z"/>
        <path id="path2" fill="#000000" stroke="none" d="M 38.91748 17.114143 C 34.370663 17.114143 30.65332 20.824402 30.65332 25.362564 C 30.653324 29.900719 34.370663 33.623161 38.91748 33.623161 C 43.464302 33.623169 47.181641 29.900719 47.181641 25.362564 C 47.181641 20.824402 43.464302 17.114143 38.91748 17.114143 Z M 38.91748 20.415947 C 41.676907 20.415947 43.873535 22.608398 43.873535 25.362564 C 43.873535 28.116737 41.676907 30.321358 38.91748 30.321358 C 36.158054 30.321358 33.961426 28.116737 33.961426 25.362564 C 33.961426 22.608398 36.158054 20.415947 38.91748 20.415947 Z"/>
        <path id="path3" fill="#000000" stroke="none" d="M 2.540527 50.119999 L 2.540527 53.421806 L 75.294434 53.421806 L 75.294434 50.119999 Z"/>
        <path id="path4" fill="#000000" stroke="none" d="M 38.91748 56.72361 C 29.804247 56.72361 22.376953 64.136765 22.376953 73.232635 L 22.376953 80.981522 L 19.349609 85.52607 C 19.015215 86.032822 18.98634 86.681824 19.274416 87.216164 C 19.562487 87.750504 20.121059 88.084015 20.729004 88.084663 L 57.105957 88.084663 C 57.713902 88.084015 58.272472 87.750504 58.560543 87.216164 C 58.848618 86.681824 58.819744 86.032822 58.485352 85.52607 L 55.458008 80.981522 L 55.458008 73.232635 C 55.458008 64.136765 48.030716 56.72361 38.91748 56.72361 Z M 38.91748 60.025414 C 46.24332 60.025414 52.149902 65.920746 52.149902 73.232635 L 52.149902 81.481049 C 52.147537 81.805367 52.240944 82.123184 52.418465 82.394836 L 54.01759 84.782867 L 23.817383 84.782867 L 25.404297 82.394836 C 25.586124 82.124542 25.683807 81.806618 25.685059 81.481049 L 25.685059 73.232635 C 25.685059 65.920746 31.59164 60.025414 38.91748 60.025414 Z"/>
        <path id="path5" fill="#000000" stroke="none" d="M 30.65332 86.439857 L 30.65332 88.084663 C 30.653316 92.622826 34.370655 96.345261 38.91748 96.345261 C 43.464306 96.345261 47.181641 92.622826 47.181641 88.084663 L 47.181641 86.439857 L 43.873535 86.439857 L 43.873535 88.084663 C 43.873535 90.838837 41.676914 93.043457 38.91748 93.043457 C 36.158047 93.043457 33.961426 90.838837 33.961426 88.084663 L 33.961426 86.439857 Z"/>
    </g>
</svg>
