<?xml version="1.0" encoding="UTF-8"?>
<!-- Generated by Pixelmator Pro 3.5 -->
<svg width="24" height="24" viewBox="0 0 24 24" xmlns="http://www.w3.org/2000/svg">
    <g id="Group">
        <path id="Path" fill="#000000" stroke="none" d="M 7.248386 23.842581 C 8.459686 23.819262 9.539537 23.602736 11.329867 23.024189 C 12.027007 22.798908 12.649277 22.569326 13.167437 22.346224 C 13.209137 22.328264 13.245537 22.313574 13.248437 22.313574 C 13.251437 22.313574 13.256437 22.325403 13.260137 22.339853 C 13.285837 22.441738 13.376847 22.525333 13.493077 22.553696 C 13.716477 22.608215 14.123247 22.547195 14.563477 22.393135 C 14.945367 22.259485 15.400117 22.06181 15.894247 21.814653 C 16.199577 21.661928 16.377228 21.567234 16.668907 21.401716 C 17.331198 21.025898 17.927816 20.616976 18.373177 20.23361 C 18.482437 20.139561 18.691338 19.929466 18.756117 19.848463 C 18.944668 19.612738 19.049458 19.418093 19.070396 19.264706 C 19.074398 19.238846 19.077396 19.217436 19.077396 19.217146 C 19.077908 19.216885 19.120697 19.213547 19.172398 19.209846 C 19.324497 19.198956 19.542788 19.172457 19.722967 19.143026 C 19.757967 19.137325 19.904877 19.112637 20.049437 19.088196 C 20.338547 19.039316 20.488178 19.016346 20.738337 18.982464 C 21.301847 18.906134 21.373487 18.894543 21.814577 18.808275 C 22.101927 18.752075 22.132948 18.747995 22.245167 18.751604 C 22.320568 18.754005 22.345987 18.753004 22.364437 18.746704 C 22.418636 18.728254 22.452538 18.679585 22.452837 18.619944 C 22.453096 18.557844 22.411037 18.504616 22.349426 18.48933 C 22.331528 18.484831 22.281828 18.48213 22.215748 18.482031 C 22.082598 18.481709 22.088097 18.480829 21.615387 18.57268 C 21.391336 18.616199 21.188917 18.6495 20.956917 18.681026 C 20.412247 18.755037 20.293697 18.772926 19.894518 18.841372 C 19.511806 18.90699 19.289438 18.93568 19.074408 18.947172 L 19.004107 18.950972 L 18.951908 18.897472 L 18.899708 18.843971 L 18.944807 18.811962 C 19.108118 18.696014 19.308228 18.580559 19.814358 18.310263 C 20.232908 18.086735 20.455498 17.964499 20.885057 17.722273 C 21.493397 17.37924 21.779688 17.186113 22.113468 16.89361 C 22.591738 16.474483 22.980417 16.027561 23.203327 15.64043 C 23.330828 15.419008 23.417097 15.171427 23.397448 15.083353 C 23.376846 14.990965 23.270077 14.947712 23.191917 15.000084 C 23.165018 15.018093 23.138416 15.060234 23.134317 15.091404 C 23.095917 15.379272 22.779627 15.860579 22.326757 16.320356 C 21.948816 16.704065 21.647676 16.949133 21.250307 17.196367 C 20.974167 17.368172 20.366617 17.709496 19.745228 18.041922 C 19.181517 18.343496 19.027008 18.431376 18.841127 18.556118 C 18.788828 18.591208 18.672808 18.676825 18.636177 18.707346 L 18.619978 18.720865 L 18.574978 18.710827 C 18.403708 18.672667 18.161518 18.668736 17.941187 18.700546 C 17.773808 18.724716 17.535477 18.780746 17.343998 18.840946 C 17.290798 18.857666 17.246897 18.870848 17.246397 18.870247 C 17.242397 18.866047 17.270498 18.67729 17.288298 18.584185 C 17.454157 17.719194 17.548168 16.83979 17.588228 15.778776 C 17.597227 15.540611 17.597227 14.860397 17.588278 14.62784 C 17.549677 13.627426 17.461098 12.682753 17.307808 11.637066 C 17.065817 9.986353 16.683487 8.530302 16.065527 6.906055 C 15.780667 6.157337 15.517007 5.56702 15.069547 4.676115 C 14.700367 3.94108 14.426387 3.453722 14.052337 2.866711 C 13.560467 2.09481 13.175517 1.599514 12.750567 1.191774 C 12.411257 0.866213 12.128887 0.678011 11.801317 0.559099 C 11.628527 0.496378 11.405967 0.461758 11.232187 0.470589 C 10.681057 0.498579 10.283857 0.72423 9.868657 1.245222 C 9.699087 1.457998 9.550127 1.696222 9.190407 2.329977 C 8.643908 3.292778 8.546408 3.460709 8.163977 4.097881 C 7.801176 4.702347 7.667337 4.936085 7.485916 5.282017 C 7.244146 5.743034 6.977587 6.341059 6.554848 7.370857 C 6.042707 8.618456 5.724667 9.533466 5.510036 10.376848 C 5.495136 10.435368 5.493338 10.439098 5.480337 10.439148 C 5.472338 10.439203 5.399237 10.441748 5.317057 10.444748 C 4.798138 10.464077 4.401928 10.543167 3.976507 10.712345 C 3.450567 10.921497 3.031767 11.217529 2.589796 11.692547 C 2.361767 11.93763 2.139168 12.228996 1.856478 12.652416 C 1.602947 13.032166 1.431477 13.325121 1.236258 13.712053 C 0.903997 14.370617 0.715788 14.92206 0.586597 15.615524 C 0.485847 16.156322 0.363157 16.963148 0.326107 17.328499 C 0.314907 17.439087 0.307707 17.483503 0.287607 17.566431 C 0.240807 17.759233 0.195408 18.017204 0.173416 18.215948 C 0.150417 18.424059 0.145617 18.498695 0.142418 18.705898 C 0.139418 18.920366 0.142687 19.021141 0.160316 19.2122 C 0.198017 19.619526 0.300747 20.010611 0.467457 20.381109 C 0.655727 20.7995 0.891928 21.164282 1.226147 21.552807 C 1.603947 21.991989 2.064848 22.387312 2.553127 22.690979 C 3.118237 23.042431 3.812267 23.321871 4.646257 23.533749 C 5.330307 23.707535 6.004578 23.80641 6.700367 23.834963 C 6.843697 23.840862 7.131907 23.844864 7.248177 23.842663 Z M 6.645258 23.56418 C 6.345047 23.54635 6.228018 23.536671 6.003387 23.51108 C 5.200687 23.419621 4.338226 23.207973 3.637877 22.930582 C 3.343878 22.814135 3.003117 22.648203 2.774677 22.510246 C 2.368946 22.265228 2.047836 22.013449 1.709187 21.674791 C 1.221786 21.187389 0.872726 20.67733 0.654358 20.133434 C 0.614357 20.033943 0.553377 19.850798 0.528036 19.754398 C 0.504436 19.664759 0.467636 19.485502 0.453636 19.391966 C 0.448637 19.360016 0.443638 19.326056 0.442137 19.316505 L 0.439137 19.299145 L 0.476637 19.301645 L 0.514137 19.304146 L 0.486437 19.289604 C 0.433638 19.261845 0.435837 19.267694 0.422136 19.118093 C 0.412136 19.009775 0.410036 18.949081 0.410337 18.78886 C 0.410677 18.576967 0.415337 18.480537 0.437037 18.282558 C 0.489237 17.796431 0.603067 17.344898 0.793797 16.867895 C 1.035048 16.264515 1.430647 15.6448 1.911028 15.117695 C 2.481188 14.492086 3.141817 13.994474 3.950317 13.58161 C 4.366398 13.369141 4.764627 13.213936 5.206198 13.092144 C 5.432266 13.029793 5.470476 13.022093 5.579897 13.016813 C 5.633198 13.014214 5.695797 13.010614 5.719107 13.008713 L 5.761507 13.005314 L 5.764507 12.986923 C 5.767508 12.972563 5.771507 12.967884 5.783007 12.965553 C 5.908688 12.940603 6.220528 12.911123 6.434387 12.903973 C 6.559807 12.899773 6.884727 12.909073 7.012617 12.920443 C 7.747646 12.986004 8.394608 13.134775 9.178927 13.418604 C 9.985067 13.710329 10.822737 14.140884 11.583167 14.65436 C 12.525387 15.290592 13.318807 16.011696 14.065737 16.910675 C 14.599747 17.553387 15.376007 18.604282 15.698298 19.120829 C 15.783597 19.25758 15.914347 19.484407 15.909757 19.48773 C 15.908757 19.488636 15.860157 19.517632 15.802347 19.552172 C 15.687867 19.620541 15.472837 19.761057 15.346037 19.850351 L 15.266037 19.906712 L 15.252037 19.888651 C 15.220137 19.847481 15.070857 19.670649 14.996187 19.585625 C 14.613097 19.149427 14.097477 18.620743 13.646927 18.202198 C 12.613967 17.242594 11.649457 16.480692 10.592707 15.789543 C 9.809717 15.277445 9.222257 14.971458 8.617527 14.76074 C 8.462627 14.70677 8.366226 14.67828 8.188467 14.633936 C 8.032646 14.595066 7.947678 14.578417 7.792837 14.556377 C 7.599848 14.528906 7.553316 14.525707 7.344627 14.525536 C 7.136757 14.525362 7.028807 14.533836 6.879827 14.561987 C 6.583677 14.617947 6.289436 14.738878 6.102398 14.8815 C 6.058296 14.915089 5.955717 15.015039 5.922626 15.056583 C 5.889027 15.098734 5.832527 15.188959 5.808197 15.239183 C 5.779797 15.297804 5.736197 15.438244 5.726297 15.502756 C 5.705696 15.63722 5.710697 15.782347 5.740297 15.911486 C 5.770996 16.045219 5.839796 16.207912 5.928158 16.356245 C 5.965557 16.419035 6.078547 16.573244 6.138178 16.642921 C 6.357998 16.899818 6.702248 17.210669 7.009836 17.430027 C 7.332447 17.660099 7.657307 17.852385 8.083307 18.065413 C 8.671938 18.359776 9.273057 18.608088 9.936977 18.831137 C 10.479737 19.013485 11.035937 19.179296 12.133717 19.486023 C 13.197447 19.783237 13.527937 19.883308 13.998447 20.050655 C 14.411907 20.197706 14.738617 20.320278 14.735977 20.327353 C 14.735097 20.329754 14.692077 20.368744 14.640277 20.414112 C 14.513087 20.525654 14.359837 20.665134 14.253857 20.765804 L 14.166257 20.849033 L 14.140457 20.840334 C 14.126257 20.835533 14.023757 20.798063 13.912677 20.757084 C 13.250807 20.512941 12.361747 20.215796 11.594197 19.982185 C 10.367697 19.608891 9.380237 19.349819 8.288027 19.114775 C 7.005627 18.8388 6.320057 18.738054 5.576687 18.71633 C 5.209488 18.705599 4.889458 18.723829 4.589758 18.772438 C 4.035316 18.862429 3.592318 19.081182 3.340687 19.389235 C 3.299387 19.439745 3.280188 19.470255 3.242786 19.544168 C 3.182487 19.663588 3.161386 19.757269 3.161386 19.905525 C 3.161386 20.086124 3.201088 20.239902 3.297426 20.43294 C 3.561037 20.960958 4.172136 21.489161 4.906588 21.823805 C 5.422056 22.058676 5.960817 22.193443 6.663998 22.263414 C 7.097378 22.306534 7.499437 22.322165 8.052868 22.317385 C 8.598677 22.312683 8.983627 22.291985 9.519177 22.238594 C 10.104717 22.180214 10.531027 22.122086 11.505677 21.96771 C 12.464537 21.815834 13.440717 21.668257 13.446717 21.674263 C 13.447717 21.675762 13.435717 21.697582 13.419017 21.722773 C 13.378717 21.783493 13.314787 21.893892 13.281367 21.960482 C 13.256267 22.010611 13.252667 22.014992 13.228067 22.0261 C 13.126987 22.071692 12.828997 22.196918 12.678777 22.256935 C 11.823137 22.598789 10.570867 23.003101 9.659247 23.231833 C 8.866238 23.430801 8.184967 23.537102 7.529997 23.564062 C 7.450897 23.567364 7.368696 23.570864 7.347397 23.571962 C 7.273996 23.575663 6.738546 23.569763 6.644667 23.564262 Z M 13.552847 22.291983 C 13.541747 22.288582 13.529347 22.281643 13.525147 22.276663 C 13.506447 22.254162 13.528147 22.157841 13.572447 22.064102 C 13.588647 22.029922 13.592347 22.015753 13.592347 21.987822 C 13.592347 21.955412 13.594347 21.950413 13.626947 21.897392 C 13.645947 21.866522 13.671247 21.831371 13.683147 21.819262 C 13.695047 21.807161 13.701847 21.799032 13.698347 21.801212 C 13.685847 21.809011 13.692347 21.797812 13.742947 21.728302 C 13.977087 21.405088 14.264667 21.107063 14.798297 20.634605 C 15.365788 20.13217 15.842897 19.807106 16.480738 19.48834 C 17.015038 19.221317 17.466717 19.059315 17.897367 18.980244 C 18.036707 18.954662 18.129337 18.947594 18.279078 18.951122 C 18.458138 18.955322 18.521097 18.966614 18.522367 18.994682 C 18.522778 19.003683 18.573767 19.032824 18.599468 19.038763 C 18.621067 19.043762 18.634268 19.043663 18.658167 19.038326 C 18.688467 19.031527 18.689367 19.031727 18.715967 19.048777 C 18.739367 19.063787 18.743467 19.069246 18.746767 19.089336 C 18.751768 19.122787 18.767567 19.154396 18.787468 19.173077 C 18.808367 19.192738 18.810068 19.215897 18.794468 19.270277 C 18.758568 19.395378 18.617178 19.609152 18.454628 19.784273 C 18.165297 20.095968 17.568148 20.545498 16.906858 20.949404 C 15.969017 21.522224 14.777367 22.079954 14.165077 22.232639 C 14.057057 22.259579 13.965747 22.278118 13.891177 22.288269 C 13.856177 22.29307 13.820077 22.29797 13.810977 22.29921 C 13.777377 22.303808 13.572507 22.298109 13.552887 22.292009 Z M 15.487217 20.600824 C 15.500917 20.590485 15.492217 20.590605 15.473717 20.601 C 15.465717 20.605598 15.463317 20.608898 15.467717 20.608898 C 15.472717 20.608898 15.480817 20.605299 15.486717 20.6008 Z M 16.757448 19.756792 C 16.757448 19.741741 16.756447 19.740252 16.744947 19.743643 C 16.727247 19.749043 16.726748 19.750242 16.737947 19.762663 C 16.751947 19.778162 16.757347 19.776531 16.757347 19.756762 Z M 16.907978 19.387848 C 16.914978 19.379747 16.914978 19.375399 16.909977 19.362207 L 16.902977 19.346289 L 16.898977 19.369858 C 16.894978 19.397518 16.895977 19.401058 16.907978 19.387838 Z M 7.635717 22.208397 C 6.735518 22.189016 6.112087 22.111635 5.563486 21.951174 C 4.876257 21.750164 4.273977 21.405905 3.825907 20.957975 C 3.600677 20.732815 3.439426 20.503597 3.347048 20.2773 C 3.290648 20.139141 3.270247 20.041332 3.270147 19.909332 C 3.270067 19.776869 3.286846 19.701859 3.340548 19.593931 C 3.376047 19.522791 3.398647 19.488672 3.448837 19.430698 C 3.685167 19.157822 4.107027 18.958706 4.620047 18.877886 C 4.853077 18.841175 5.019117 18.828075 5.306187 18.823746 C 5.818888 18.816046 6.375628 18.865746 7.027058 18.977467 C 7.790087 19.108335 8.848066 19.338882 9.717907 19.563837 C 10.953167 19.883295 12.341877 20.31061 13.586837 20.754322 C 13.819847 20.837374 14.068507 20.928663 14.072457 20.932619 C 14.074457 20.934118 14.027857 20.98461 13.970057 21.044838 C 13.794937 21.227255 13.711547 21.323132 13.593977 21.477205 C 13.564577 21.515705 13.540377 21.547606 13.540177 21.548096 C 13.539967 21.548618 13.448877 21.561846 13.337837 21.577564 C 12.938867 21.634035 12.383487 21.719143 11.351367 21.881956 C 10.421867 22.028582 9.947267 22.091141 9.359357 22.144529 C 8.744238 22.20039 8.200157 22.220551 7.635717 22.208401 Z M 14.720467 20.19982 C 14.421227 20.084671 13.953727 19.916573 13.700267 19.832989 C 13.395557 19.7325 13.068387 19.635527 12.408237 19.450031 C 11.746267 19.264029 11.632747 19.232 11.395627 19.164343 C 10.140007 18.806076 9.404497 18.551065 8.640026 18.208937 C 8.300106 18.05681 7.880007 17.845673 7.649557 17.711126 C 7.193087 17.444635 6.872797 17.210876 6.537058 16.899193 C 6.445957 16.814604 6.283237 16.645363 6.215237 16.564425 C 6.162836 16.502005 6.064028 16.36825 6.030737 16.314545 C 5.924227 16.142748 5.853857 15.960382 5.831457 15.798056 C 5.819656 15.712915 5.823458 15.568651 5.839457 15.490953 C 5.862457 15.379435 5.904858 15.277983 5.971098 15.175875 C 6.004597 15.124313 6.123768 15.000658 6.178316 14.960951 C 6.267918 14.8957 6.378218 14.835697 6.498947 14.786476 C 6.782078 14.671047 7.085966 14.621481 7.436457 14.63356 C 7.589357 14.638859 7.632908 14.64286 7.798286 14.667059 C 8.202517 14.72621 8.627546 14.857674 9.093697 15.067734 C 9.534507 15.266375 9.955897 15.503704 10.512997 15.867094 C 11.573267 16.558689 12.561277 17.339293 13.594747 18.301891 C 14.122217 18.793194 14.805387 19.509233 15.135047 19.916309 L 15.180047 19.97188 L 15.137347 20.00379 C 15.084247 20.043421 14.892167 20.197102 14.862237 20.223862 C 14.850037 20.234741 14.839037 20.243752 14.837837 20.243881 C 14.836837 20.243969 14.783737 20.224182 14.720467 20.199833 Z M 16.078178 19.232664 C 15.871477 18.866606 15.529537 18.368019 15.020497 17.69046 C 14.235247 16.645269 13.690697 16.031496 12.997537 15.410349 C 12.524997 14.986906 11.941057 14.550755 11.369917 14.19467 C 10.374527 13.574074 9.293487 13.108688 8.256567 12.854372 C 7.883608 12.762901 7.563337 12.706564 7.204117 12.669243 C 6.953688 12.643223 6.911266 12.640863 6.634188 12.637573 C 6.423887 12.635073 6.350286 12.636173 6.249617 12.643572 C 6.114197 12.653473 5.921646 12.671883 5.873278 12.679602 C 5.856577 12.682302 5.842176 12.683702 5.841177 12.682802 C 5.840218 12.681898 5.852278 12.634212 5.867977 12.576843 C 6.192726 11.388697 6.661457 9.997313 7.267126 8.423571 C 7.605307 7.544855 7.928698 6.91288 8.393396 6.222614 C 8.589417 5.931448 8.772577 5.687595 8.993357 5.423872 C 9.234317 5.13603 9.486257 4.880873 9.702457 4.705715 C 10.098467 4.384874 10.406067 4.244249 10.784227 4.211164 C 11.014647 4.191004 11.261847 4.225943 11.533997 4.317135 C 11.683357 4.367186 11.943097 4.489225 12.098397 4.582327 C 12.453457 4.795179 12.800107 5.076567 13.205537 5.481045 C 13.612347 5.886898 13.919547 6.24898 14.261897 6.726149 C 14.525027 7.092899 14.776617 7.502985 15.061357 8.029251 C 15.134757 8.164989 15.325737 8.550329 15.393117 8.698786 C 15.890897 9.795492 16.347128 11.232933 16.675179 12.738131 C 16.921778 13.869596 17.049667 14.837578 17.089336 15.872772 C 17.129337 16.91699 17.086338 18.017199 16.972427 18.883776 L 16.960327 18.975935 L 16.863028 19.016245 C 16.809528 19.038416 16.731047 19.072266 16.688608 19.091465 C 16.646107 19.110664 16.611107 19.126375 16.610607 19.126375 C 16.610168 19.126375 16.607607 19.069725 16.605608 19.000492 C 16.582607 18.24641 16.389067 16.67832 16.173428 15.499266 C 15.965277 14.361124 15.606127 12.872131 15.303907 11.894289 C 15.153557 11.407839 14.964947 10.88776 14.798217 10.499886 C 14.642427 10.137466 14.410027 9.68643 14.230147 9.397364 C 14.047117 9.103254 13.839637 8.818325 13.650947 8.601948 C 13.576947 8.517078 13.372497 8.310341 13.293237 8.240221 C 13.016337 7.995237 12.735617 7.809757 12.442627 7.678198 C 12.294407 7.611647 12.219297 7.583187 12.085597 7.542948 C 11.943827 7.500269 11.865927 7.481709 11.732837 7.458868 C 11.569937 7.430918 11.490307 7.423508 11.312297 7.419739 C 11.082957 7.414839 10.920397 7.429869 10.722997 7.474068 C 10.418557 7.542229 10.157627 7.675964 9.906217 7.892719 C 9.750187 8.027231 9.583657 8.242292 9.487647 8.433268 C 9.377967 8.651413 9.314257 8.879313 9.286797 9.151682 C 9.276497 9.253809 9.282797 9.519176 9.297897 9.617315 C 9.341097 9.898418 9.415207 10.132214 9.536627 10.370544 C 9.700607 10.692421 9.979967 11.022488 10.377127 11.363623 C 10.572647 11.531561 10.796017 11.70299 11.268077 12.047386 C 12.342267 12.831078 12.683367 13.102795 13.131327 13.531649 C 13.575097 13.95648 13.941537 14.396864 14.282837 14.915495 C 14.599387 15.396528 14.851747 15.848377 15.123987 16.421583 C 15.530987 17.278524 15.847577 18.141497 16.139618 19.190006 C 16.179918 19.33486 16.180218 19.336498 16.167618 19.34577 C 16.161617 19.349871 16.154718 19.35317 16.151518 19.353069 C 16.148518 19.352983 16.115118 19.29879 16.077818 19.232719 Z M 16.264978 19.234264 C 16.166378 18.874485 16.040178 18.457874 15.936587 18.149729 C 15.414747 16.597496 14.699927 15.206308 13.925417 14.235556 C 13.809597 14.09038 13.665887 13.923048 13.570807 13.822651 C 13.400047 13.642328 13.300477 13.541496 13.180997 13.42791 C 12.830467 13.094648 12.539657 12.854326 11.984937 12.43947 C 11.783307 12.288687 11.671067 12.206112 11.221327 11.877703 C 10.865827 11.618107 10.613327 11.423096 10.443897 11.277266 C 10.197477 11.065184 9.995187 10.85453 9.838177 10.646509 C 9.624717 10.363718 9.475167 10.017057 9.418057 9.67264 C 9.394557 9.531097 9.390757 9.48373 9.390457 9.33234 C 9.390257 9.212158 9.392457 9.169207 9.402257 9.094248 C 9.441157 8.799726 9.522057 8.570431 9.668167 8.340292 C 9.861457 8.035822 10.132627 7.808512 10.471807 7.666628 C 10.566407 7.627068 10.635857 7.605087 10.739837 7.581827 C 10.946147 7.535686 11.143517 7.518837 11.364227 7.528528 C 11.510527 7.534927 11.552797 7.539307 11.691577 7.562267 C 11.856287 7.589518 11.952017 7.613247 12.128707 7.670658 C 12.289527 7.722908 12.500537 7.817242 12.637777 7.898251 C 12.811177 8.000597 12.918997 8.074675 13.066657 8.192905 C 13.204527 8.303297 13.263077 8.356672 13.409867 8.505791 C 13.560527 8.658836 13.648467 8.761286 13.805867 8.967138 C 14.020817 9.248245 14.274247 9.661524 14.462447 10.037842 C 14.687407 10.487684 14.850307 10.885458 15.064077 11.506945 C 15.361087 12.370424 15.734567 13.831171 15.999948 15.167255 C 16.200727 16.178177 16.399658 17.611029 16.472008 18.567497 C 16.487707 18.775473 16.502808 19.059158 16.502808 19.147011 L 16.502808 19.176109 L 16.393528 19.230961 C 16.333427 19.261129 16.282618 19.28417 16.280628 19.282169 C 16.278627 19.28017 16.271627 19.25861 16.264828 19.23427 Z M 0.773827 16.109844 C 0.888968 15.417486 0.966047 15.09067 1.112488 14.673903 C 1.356558 13.979338 1.792467 13.181717 2.339537 12.428688 C 2.721617 11.902767 3.080547 11.539473 3.484858 11.269476 C 3.847727 11.027147 4.315327 10.843281 4.758377 10.768709 C 5.126596 10.706728 5.556538 10.694159 5.995087 10.732529 C 6.063587 10.738529 6.125048 10.744659 6.131727 10.746178 L 6.143827 10.748978 L 6.132828 10.780769 C 6.109627 10.847769 5.998898 11.191374 5.943317 11.368658 C 5.810287 11.792976 5.667908 12.279873 5.588146 12.583227 C 5.567347 12.662357 5.548946 12.728804 5.547247 12.730894 C 5.545246 12.732994 5.501747 12.743734 5.450047 12.754784 C 5.038418 12.842693 4.572906 12.997173 4.157707 13.183655 C 3.703047 13.387857 3.254517 13.644547 2.838306 13.93874 C 2.319897 14.30517 1.846836 14.749023 1.458117 15.233706 C 1.300257 15.43054 1.197678 15.571516 1.063547 15.775972 C 0.973547 15.913132 0.854887 16.114586 0.779417 16.258255 C 0.758417 16.298306 0.740417 16.330296 0.739416 16.329334 C 0.738438 16.328382 0.753918 16.229626 0.773817 16.109886 Z M 17.304996 15.015093 C 17.219097 14.061462 17.052977 13.10869 16.779778 12.002184 C 16.654707 11.495649 16.526638 11.034323 16.389597 10.596714 C 16.075808 9.594675 15.768017 8.816252 15.404917 8.106445 C 15.023088 7.360023 14.612147 6.71207 14.157497 6.139603 C 13.756847 5.635122 13.279007 5.143568 12.825997 4.769907 C 12.287677 4.325869 11.747647 4.051826 11.240687 3.965422 C 10.904577 3.908142 10.579807 3.937532 10.259467 4.054213 C 10.002997 4.147642 9.687867 4.352579 9.384257 4.623396 C 8.881216 5.072119 8.284437 5.835619 7.821907 6.622248 C 7.594236 7.009434 7.385986 7.426613 7.202408 7.863235 C 6.988777 8.37134 6.563187 9.516212 6.268806 10.374722 L 6.231108 10.484735 L 6.192007 10.481236 C 6.170507 10.479336 6.103107 10.472935 6.042187 10.467035 C 5.981287 10.461136 5.896036 10.454556 5.852667 10.452406 C 5.784067 10.449005 5.773767 10.447306 5.773767 10.439205 C 5.773767 10.426765 5.843067 10.167807 5.887836 10.012911 C 6.099257 9.281572 6.387867 8.48395 6.827707 7.415442 C 7.211327 6.483471 7.442867 5.960501 7.665728 5.5226 C 7.852207 5.156187 8.000387 4.894249 8.360638 4.294197 C 8.762737 3.624443 8.882647 3.418884 9.270847 2.733793 C 9.685097 2.002731 9.782997 1.836712 9.918547 1.635422 C 10.170837 1.260796 10.423177 1.011848 10.685717 0.878572 C 10.803347 0.818853 10.948777 0.773882 11.096187 0.751635 C 11.185287 0.738195 11.397057 0.738415 11.475887 0.752071 C 11.747557 0.79903 12.031417 0.935732 12.292057 1.145134 C 12.462297 1.281908 12.730527 1.542961 12.901037 1.737818 C 13.191657 2.069942 13.491227 2.483992 13.849437 3.048662 C 14.201877 3.604231 14.479947 4.100098 14.828727 4.794994 C 15.327717 5.78916 15.610507 6.43647 15.935927 7.329378 C 16.482477 8.829029 16.818308 10.149487 17.042007 11.678478 C 17.189808 12.688633 17.274076 13.570469 17.316448 14.550285 C 17.321447 14.67705 17.328648 15.274891 17.324448 15.225353 C 17.323448 15.211662 17.314447 15.117039 17.305447 15.015085 Z"/>
    </g>
</svg>
