<?xml version="1.0" encoding="UTF-8"?>
<!-- Generated by Pixelmator Pro 3.4.3 -->
<svg width="126" height="128" viewBox="0 0 126 128" xmlns="http://www.w3.org/2000/svg">
    <g id="Group">
        <g id="g1">
            <path id="Path" fill="#000000" stroke="none" d="M 49.525002 74.964996 C 46.856808 75.651588 44.259567 76.589096 41.768002 77.764999 L 35.053001 80.599998 C 33.78582 79.15918 31.741512 78.685806 29.969999 79.422997 C 26.561001 80.838997 16.812 84.922997 8.694 88.322998 C 1.845111 91.209648 -1.390901 99.082184 1.448 105.950996 L 7.1 119.556999 C 9.997307 126.44278 17.917849 129.688522 24.813999 126.816002 L 45.700001 118.007004 C 47.44331 117.255333 48.528873 115.492035 48.415001 113.597 L 49.849998 112.987 C 51.610077 112.23822 53.541695 111.986084 55.435001 112.258003 C 66.457001 113.908997 85.372002 110.093002 95.119003 104.250999 C 104.630913 98.6026 113.7033 92.244911 122.259003 85.232002 C 130.953995 78.042 121.214996 65.641998 112.151001 71.732002 C 109.964996 58.393997 97.551003 48.173004 82.501999 47.531998 L 82.501999 35.337997 C 86.011002 36.843002 93.267998 39.561996 100.809998 39.5 C 127.522003 39.281998 124.169998 13.817001 99.823997 16.945007 C 92.069 17.945007 85.057999 25.380005 81.752998 29.496994 C 79.792999 21.688995 73.594002 2.587006 59.963001 0.514999 C 47.84 -1.328003 35.441002 4.800003 35.5 17.024994 C 35.528 22.770004 37.594002 27.324997 41.445 30.557007 C 46.768002 35.024002 54.955002 36.281998 62.708 36.281998 C 68.33625 36.205925 73.950241 35.69574 79.5 34.755997 L 79.5 47.533997 C 63.18 48.227997 50.077999 60.184998 49.525002 74.964996 Z M 94 30.5 C 94.82843 30.5 95.5 29.82843 95.5 29 C 95.5 28.17157 94.82843 27.5 94 27.5 C 91.211815 27.65625 88.467155 28.261703 85.872002 29.292999 C 89.266998 25.492996 94.635002 20.634995 100.178001 19.923996 C 120.377998 17.332001 123.190002 36.290001 100.807999 36.5 C 94.508003 36.558998 88.236 34.415001 84.671997 32.984001 C 87.318001 31.878998 91.18 30.5 94 30.5 Z M 63.706001 22.471008 C 67.790001 23.287994 72.948997 27.490997 77.762001 31.988007 C 69.050003 33.307999 51.769001 35.305 43.374001 28.259003 C 40.174 25.572006 38.551998 21.882004 38.5 16.975998 C 38.389 6.511993 49.950001 1.955994 59.539001 3.485001 C 70.363998 5.212006 76.091003 20.417999 78.347 28.449005 C 73.515999 24.067993 68.639999 20.397995 64.293999 19.528992 C 63.48159 19.366623 62.691372 19.893585 62.528999 20.705994 C 62.366627 21.518417 62.893589 22.308624 63.706001 22.471008 Z M 23.65 124.053001 C 18.285894 126.285835 12.126099 123.761208 9.872 118.405998 L 4.219 104.800003 C 2.009151 99.457985 4.526218 93.333939 9.854 91.089996 C 14.454 89.163002 19.569 87.018997 23.763 85.264999 L 37.463001 118.230003 Z M 44.529999 115.244003 L 40.23 117.059998 L 26.530001 84.099998 C 28.486 83.282997 30.091999 82.612999 31.117001 82.186996 C 31.486008 82.03244 31.90147 82.031685 32.271034 82.184921 C 32.640594 82.338158 32.933632 82.632668 33.084999 83.002998 L 45.334999 113.303001 C 45.640381 114.061264 45.282394 114.924431 44.529999 115.244003 Z M 114.183998 73.978996 C 119.940002 70.306999 125.922997 78.391998 120.375999 82.896004 C 111.896538 89.780838 102.940872 96.057487 93.575996 101.679001 C 84.475998 107.132004 66.150002 110.834999 55.875999 109.290001 C 53.437363 108.940338 50.949535 109.26329 48.681 110.223999 L 47.525002 110.714996 L 36.424999 83.271004 C 36.424999 83.271004 41.345001 81.213997 42.976002 80.507004 C 43.334999 80.350998 58.292 72.875999 73.237 78.507004 C 82.542999 82.063004 87.177002 81.025002 90.978996 79.352997 C 94.336998 77.875999 97.689003 79.341003 97.697998 83.146004 C 97.704002 85.723999 93.318001 88.781998 91.083 89.774002 C 88.139 91.081001 82.066002 91.073997 78.888 90.657997 C 78.066475 90.550026 77.312973 91.128479 77.205002 91.949997 C 77.097031 92.771523 77.675476 93.525032 78.497002 93.633003 C 82.082001 94.091003 88.777 94.099998 92.296997 92.516998 C 92.378998 92.480003 100.397003 88.762001 100.668999 83.421997 C 103.744003 81.25 111.181 75.892998 114.183998 73.978996 Z M 81 50.5 C 95.787003 50.5 108.07 60.599998 109.375 73.643997 C 106.401001 75.709999 102.574997 78.404999 100.103996 80.152 C 98.079002 75.522003 94.510002 74.862999 90.065002 76.495003 C 86.464996 77.818001 82.632004 78.885002 74.313004 75.703003 C 67.344597 73.186775 59.807934 72.686295 52.568001 74.259003 C 53.537998 61.013 65.915001 50.5 81 50.5 Z"/>
        </g>
    </g>
</svg>
