<?xml version="1.0" encoding="UTF-8"?>
<!-- Generated by Pixelmator Pro 3.4.3 -->
<svg width="58" height="58" viewBox="0 0 58 58" xmlns="http://www.w3.org/2000/svg">
    <g id="Group">
        <path id="Path" fill="#000000" stroke="none" d="M 30 20.099998 L 30 1 C 30 0.400002 29.599998 0 29 0 C 28.4 0 28 0.400002 28 1 L 28 20.099998 C 23.5 20.599998 20 24.400002 20 29 C 20 33.599998 23.5 37.400002 28 37.900002 L 28 57 C 28 57.599998 28.4 58 29 58 C 29.599998 58 30 57.599998 30 57 L 30 37.900002 C 34.5 37.400002 38 33.599998 38 29 C 38 24.400002 34.5 20.599998 30 20.099998 Z M 29 36 C 25.1 36 22 32.900002 22 29 C 22 25.099998 25.1 22 29 22 C 32.900002 22 36 25.099998 36 29 C 36 32.900002 32.900002 36 29 36 Z"/>
        <path id="path1" fill="#000000" stroke="none" d="M 10 40.099998 L 10 1 C 10 0.400002 9.6 0 9 0 C 8.4 0 8 0.400002 8 1 L 8 40.099998 C 3.5 40.599998 0 44.400002 0 49 C 0 54 4 58 9 58 C 14 58 18 54 18 49 C 18 44.400002 14.5 40.599998 10 40.099998 Z M 9 56 C 5.1 56 2 52.900002 2 49 C 2 45.099998 5.1 42 9 42 C 12.9 42 16 45.099998 16 49 C 16 52.900002 12.9 56 9 56 Z"/>
        <path id="path2" fill="#000000" stroke="none" d="M 58 9 C 58 4 54 0 49 0 C 44 0 40 4 40 9 C 40 13.599998 43.5 17.400002 48 17.900002 L 48 57 C 48 57.599998 48.400002 58 49 58 C 49.599998 58 50 57.599998 50 57 L 50 17.900002 C 54.5 17.400002 58 13.599998 58 9 Z M 49 16 C 45.099998 16 42 12.900002 42 9 C 42 5.099998 45.099998 2 49 2 C 52.900002 2 56 5.099998 56 9 C 56 12.900002 52.900002 16 49 16 Z"/>
    </g>
</svg>
