<?xml version="1.0" encoding="UTF-8"?>
<!-- Generated by Pixelmator Pro 3.4.3 -->
<svg width="54" height="54" viewBox="0 0 54 54" xmlns="http://www.w3.org/2000/svg">
    <g id="Group">
        <path id="Path" fill="#000000" stroke="none" d="M 24.450001 38.5 L 10.52 38.5 C 10.243857 38.5 10.02 38.723858 10.02 39 L 10.02 52.93 C 10.02 53.206142 10.243857 53.43 10.52 53.43 L 24.450001 53.43 C 24.726143 53.43 24.950001 53.206142 24.950001 52.93 L 24.950001 39 C 24.950001 38.723858 24.726143 38.5 24.450001 38.5 Z M 23.950001 52.43 L 11 52.43 L 11 39.5 L 23.950001 39.5 Z"/>
        <path id="path1" fill="#000000" stroke="none" d="M 21 50.049999 C 21.276142 50.049999 21.5 49.826141 21.5 49.549999 L 21.5 42.419998 C 21.5 42.143856 21.276142 41.919998 21 41.919998 C 20.723858 41.919998 20.5 42.143856 20.5 42.419998 L 20.5 49.549999 C 20.5 49.826141 20.723858 50.049999 21 50.049999 Z"/>
        <path id="path2" fill="#000000" stroke="none" d="M 14 50.049999 C 14.276142 50.049999 14.5 49.826141 14.5 49.549999 L 14.5 42.419998 C 14.5 42.143856 14.276142 41.919998 14 41.919998 C 13.723858 41.919998 13.5 42.143856 13.5 42.419998 L 13.5 49.549999 C 13.5 49.826141 13.723858 50.049999 14 50.049999 Z"/>
        <path id="path3" fill="#000000" stroke="none" d="M 43.48 38.5 L 29.549999 38.5 C 29.273857 38.5 29.049999 38.723858 29.049999 39 L 29.049999 52.93 C 29.049999 53.206142 29.273857 53.43 29.549999 53.43 L 43.48 53.43 C 43.756142 53.43 43.98 53.206142 43.98 52.93 L 43.98 39 C 43.98 38.723858 43.756142 38.5 43.48 38.5 Z M 43 52.43 L 30.049999 52.43 L 30.049999 39.5 L 43 39.5 Z"/>
        <path id="path4" fill="#000000" stroke="none" d="M 40 50.049999 C 40.276142 50.049999 40.5 49.826141 40.5 49.549999 L 40.5 42.419998 C 40.5 42.143856 40.276142 41.919998 40 41.919998 C 39.723858 41.919998 39.5 42.143856 39.5 42.419998 L 39.5 49.549999 C 39.5 49.826141 39.723858 50.049999 40 50.049999 Z"/>
        <path id="path5" fill="#000000" stroke="none" d="M 33 50.049999 C 33.276142 50.049999 33.5 49.826141 33.5 49.549999 L 33.5 42.419998 C 33.5 42.143856 33.276142 41.919998 33 41.919998 C 32.723858 41.919998 32.5 42.143856 32.5 42.419998 L 32.5 49.549999 C 32.5 49.826141 32.723858 50.049999 33 50.049999 Z"/>
        <path id="path6" fill="#000000" stroke="none" d="M 15.43 34 L 15.43 20 C 15.43 19.723858 15.206142 19.5 14.93 19.5 L 1 19.5 C 0.723857 19.5 0.5 19.723858 0.5 20 L 0.5 34 C 0.5 34.276142 0.723857 34.5 1 34.5 L 14.93 34.5 C 15.206142 34.5 15.43 34.276142 15.43 34 Z M 14.43 33.5 L 1.5 33.5 L 1.5 20.540001 L 14.43 20.540001 Z"/>
        <path id="path7" fill="#000000" stroke="none" d="M 11.49 31.09 C 11.766142 31.09 11.99 30.866142 11.99 30.59 L 11.99 23.459999 C 11.99 23.183857 11.766142 22.959999 11.49 22.959999 C 11.213858 22.959999 10.99 23.183857 10.99 23.459999 L 10.99 30.59 C 10.99 30.866142 11.213858 31.09 11.49 31.09 Z"/>
        <path id="path8" fill="#000000" stroke="none" d="M 4.43 31.09 C 4.706142 31.09 4.93 30.866142 4.93 30.59 L 4.93 23.459999 C 4.93 23.183857 4.706142 22.959999 4.43 22.959999 C 4.153857 22.959999 3.93 23.183857 3.93 23.459999 L 3.93 30.59 C 3.93 30.866142 4.153857 31.09 4.43 31.09 Z"/>
        <path id="path9" fill="#000000" stroke="none" d="M 20 19.540001 C 19.723858 19.540001 19.5 19.763855 19.5 20.040001 L 19.5 34 C 19.5 34.276142 19.723858 34.5 20 34.5 L 34 34.5 C 34.276142 34.5 34.5 34.276142 34.5 34 L 34.5 20 C 34.5 19.723858 34.276142 19.5 34 19.5 Z M 33.459999 33.459999 L 20.540001 33.459999 L 20.540001 20.540001 L 33.459999 20.540001 Z"/>
        <path id="path10" fill="#000000" stroke="none" d="M 30.529999 31.09 C 30.806141 31.09 31.029999 30.866142 31.029999 30.59 L 31.029999 23.459999 C 31.029999 23.183857 30.806141 22.959999 30.529999 22.959999 C 30.253857 22.959999 30.029999 23.183857 30.029999 23.459999 L 30.029999 30.59 C 30.029999 30.866142 30.253857 31.09 30.529999 31.09 Z"/>
        <path id="path11" fill="#000000" stroke="none" d="M 23.469999 31.09 C 23.746141 31.09 23.969999 30.866142 23.969999 30.59 L 23.969999 23.459999 C 23.969999 23.183857 23.746141 22.959999 23.469999 22.959999 C 23.193857 22.959999 22.969999 23.183857 22.969999 23.459999 L 22.969999 30.59 C 22.969999 30.866142 23.193857 31.09 23.469999 31.09 Z"/>
        <path id="path12" fill="#000000" stroke="none" d="M 53 19.540001 L 39.07 19.540001 C 38.793858 19.540001 38.57 19.763855 38.57 20.040001 L 38.57 34 C 38.57 34.276142 38.793858 34.5 39.07 34.5 L 53 34.5 C 53.276142 34.5 53.5 34.276142 53.5 34 L 53.5 20 C 53.479103 19.73959 53.261246 19.539162 53 19.540001 Z M 52.5 33.470001 L 39.57 33.470001 L 39.57 20.540001 L 52.5 20.540001 Z"/>
        <path id="path13" fill="#000000" stroke="none" d="M 49.57 31.09 C 49.846142 31.09 50.07 30.866142 50.07 30.59 L 50.07 23.459999 C 50.07 23.183857 49.846142 22.959999 49.57 22.959999 C 49.293858 22.959999 49.07 23.183857 49.07 23.459999 L 49.07 30.59 C 49.07 30.866142 49.293858 31.09 49.57 31.09 Z"/>
        <path id="path14" fill="#000000" stroke="none" d="M 42.509998 31.09 C 42.786144 31.09 43.009998 30.866142 43.009998 30.59 L 43.009998 23.459999 C 43.009998 23.183857 42.786144 22.959999 42.509998 22.959999 C 42.233856 22.959999 42.009998 23.183857 42.009998 23.459999 L 42.009998 30.59 C 42.009998 30.866142 42.233856 31.09 42.509998 31.09 Z"/>
        <path id="path15" fill="#000000" stroke="none" d="M 10.52 15.5 L 24.450001 15.5 C 24.726143 15.5 24.950001 15.276142 24.950001 15 L 24.950001 1.07 C 24.950001 0.793854 24.726143 0.57 24.450001 0.57 L 10.52 0.57 C 10.243857 0.57 10.02 0.793854 10.02 1.07 L 10.02 15 C 10.02 15.276142 10.243857 15.5 10.52 15.5 Z M 11 1.57 L 23.950001 1.57 L 23.950001 14.5 L 11 14.5 Z"/>
        <path id="path16" fill="#000000" stroke="none" d="M 21 4 C 20.723858 4 20.5 4.223862 20.5 4.5 L 20.5 11.629997 C 20.5 11.906143 20.723858 12.129997 21 12.129997 C 21.276142 12.129997 21.5 11.906143 21.5 11.629997 L 21.5 4.489998 C 21.494555 4.217773 21.272284 3.999947 21 4 Z"/>
        <path id="path17" fill="#000000" stroke="none" d="M 14 4 C 13.723858 4 13.5 4.223862 13.5 4.5 L 13.5 11.629997 C 13.5 11.906143 13.723858 12.129997 14 12.129997 C 14.276142 12.129997 14.5 11.906143 14.5 11.629997 L 14.5 4.489998 C 14.494555 4.217773 14.272284 3.999947 14 4 Z"/>
        <path id="path18" fill="#000000" stroke="none" d="M 29.549999 15.5 L 43.48 15.5 C 43.616039 15.505447 43.748413 15.455181 43.846554 15.360817 C 43.944695 15.266449 44.000111 15.136147 44 15 L 44 1.07 C 44 0.793854 43.776142 0.57 43.5 0.57 L 29.549999 0.57 C 29.273857 0.57 29.049999 0.793854 29.049999 1.07 L 29.049999 15 C 29.049999 15.276142 29.273857 15.5 29.549999 15.5 Z M 30.049999 1.57 L 43 1.57 L 43 14.5 L 30.049999 14.5 Z"/>
        <path id="path19" fill="#000000" stroke="none" d="M 40 4 C 39.723858 4 39.5 4.223862 39.5 4.5 L 39.5 11.629997 C 39.5 11.906143 39.723858 12.129997 40 12.129997 C 40.276142 12.129997 40.5 11.906143 40.5 11.629997 L 40.5 4.489998 C 40.494553 4.217773 40.272285 3.999947 40 4 Z"/>
        <path id="path20" fill="#000000" stroke="none" d="M 33 4 C 32.723858 4 32.5 4.223862 32.5 4.5 L 32.5 11.629997 C 32.5 11.906143 32.723858 12.129997 33 12.129997 C 33.276142 12.129997 33.5 11.906143 33.5 11.629997 L 33.5 4.489998 C 33.494553 4.217773 33.272285 3.999947 33 4 Z"/>
    </g>
</svg>
