<?xml version="1.0" encoding="UTF-8"?>
<!-- Generated by Pixelmator Pro 3.4.3 -->
<svg width="58" height="58" viewBox="0 0 58 58" xmlns="http://www.w3.org/2000/svg">
    <g id="Group">
        <path id="Path" fill="#000000" stroke="none" d="M 57 28 L 28.5 28 C 27.986609 24.251095 24.783894 21.457085 21 21.457085 C 17.216106 21.457085 14.013391 24.251095 13.5 28 L 1 28 C 0.447715 28 0 28.447716 0 29 C 0 29.552284 0.447715 30 1 30 L 13.5 30 C 14.013391 33.748905 17.216106 36.542915 21 36.542915 C 24.783894 36.542915 27.986609 33.748905 28.5 30 L 57 30 C 57.552284 30 58 29.552284 58 29 C 58 28.447716 57.552284 28 57 28 Z M 26.57 29 C 26.57 32.076225 24.076225 34.57 21 34.57 C 17.923775 34.57 15.43 32.076225 15.43 29 L 15.43 29 C 15.43 25.923775 17.923775 23.43 21 23.43 C 24.076225 23.43 26.57 25.923775 26.57 29 L 26.57 29 Z"/>
        <path id="path1" fill="#000000" stroke="none" d="M 1 8.57 L 33.59 8.57 C 34.10339 12.318909 37.306107 15.112915 41.09 15.112915 C 44.873894 15.112915 48.076607 12.318909 48.59 8.57 L 57 8.57 C 57.552284 8.57 58 8.122284 58 7.57 C 58 7.017715 57.552284 6.57 57 6.57 L 48.59 6.57 C 48.076607 2.821098 44.873894 0.027084 41.09 0.027084 C 37.306107 0.027084 34.10339 2.821098 33.59 6.57 L 1 6.57 C 0.447715 6.57 0 7.017715 0 7.57 C 0 8.122284 0.447715 8.57 1 8.57 Z M 35.52 7.57 C 35.52 4.493774 38.013775 2 41.09 2 C 44.166225 2 46.66 4.493774 46.66 7.57 L 46.66 7.57 C 46.66 10.646225 44.166225 13.139999 41.09 13.139999 C 38.013775 13.139999 35.52 10.646225 35.52 7.57 L 35.52 7.57 Z"/>
        <path id="path2" fill="#000000" stroke="none" d="M 57 49.43 L 48.59 49.43 C 48.076607 45.681095 44.873894 42.887085 41.09 42.887085 C 37.306107 42.887085 34.10339 45.681095 33.59 49.43 L 1 49.43 C 0.447715 49.43 0 49.877716 0 50.43 C 0 50.982285 0.447715 51.43 1 51.43 L 33.59 51.43 C 34.10339 55.178905 37.306107 57.972916 41.09 57.972916 C 44.873894 57.972916 48.076607 55.178905 48.59 51.43 L 57 51.43 C 57.552284 51.43 58 50.982285 58 50.43 C 58 49.877716 57.552284 49.43 57 49.43 Z M 46.66 50.43 C 46.66 53.506226 44.166225 56 41.09 56 C 38.013775 56 35.52 53.506226 35.52 50.43 L 35.52 50.43 C 35.52 47.353775 38.013775 44.860001 41.09 44.860001 C 44.166225 44.860001 46.66 47.353775 46.66 50.43 Z"/>
    </g>
</svg>
