<?xml version="1.0" encoding="UTF-8"?>
<!-- Generated by Pixelmator Pro 3.4.3 -->
<svg width="96" height="95" viewBox="0 0 96 95" xmlns="http://www.w3.org/2000/svg">
    <path id="Path" fill="#000000" stroke="none" d="M 94 59 C 92.895432 59 92 59.895432 92 61 L 92 83 C 92 87.418282 88.418282 91 84 91 L 12 91 C 7.581722 91 4 87.418282 4 83 L 4 61 C 4 59.895432 3.10457 59 2 59 C 0.89543 59 0 59.895432 0 61 L 0 83 C 0 89.627419 5.372583 95 12 95 L 84 95 C 90.627419 95 96 89.627419 96 83 L 96 61 C 96 59.895432 95.104568 59 94 59 Z"/>
    <path id="path1" fill="#000000" stroke="none" d="M 14.190001 79 L 81.790001 79 C 82.894569 79 83.790001 78.104568 83.790001 77 C 83.790001 75.895432 82.894569 75 81.790001 75 L 14.190001 75 C 13.08543 75 12.190001 75.895432 12.190001 77 C 12.190001 78.104568 13.08543 79 14.190001 79 Z"/>
    <path id="path2" fill="#000000" stroke="none" d="M 14.190001 63 L 81.790001 63 C 82.894569 63 83.790001 62.104568 83.790001 61 C 83.790001 59.895432 82.894569 59 81.790001 59 L 14.190001 59 C 13.08543 59 12.190001 59.895432 12.190001 61 C 12.190001 62.104568 13.08543 63 14.190001 63 Z"/>
    <path id="path3" fill="#000000" stroke="none" d="M 14.190001 47 L 81.790001 47 C 82.894569 47 83.790001 46.104568 83.790001 45 C 83.790001 43.895432 82.894569 43 81.790001 43 L 14.190001 43 C 13.08543 43 12.190001 43.895432 12.190001 45 C 12.190001 46.104568 13.08543 47 14.190001 47 Z"/>
    <path id="path4" fill="#000000" stroke="none" d="M 14.4 25.770004 L 81 36.18 L 81.309998 36.18 C 82.414566 36.26561 83.379395 35.439575 83.464996 34.334999 C 83.550606 33.230431 82.724571 32.26561 81.620003 32.18 L 15 21.82 C 13.89543 21.65155 12.863447 22.410431 12.695 23.514999 C 12.526552 24.619568 13.285431 25.65155 14.389999 25.82 Z"/>
    <path id="path5" fill="#000000" stroke="none" d="M 17.869999 4.639999 L 81.389999 25.160004 C 81.586334 25.227127 81.792511 25.260925 82 25.259995 C 82.97979 25.252975 83.810219 24.537155 83.961632 23.569115 C 84.113045 22.601074 83.540848 21.665871 82.610001 21.360001 L 19.099998 0.839996 C 18.408943 0.574097 17.627518 0.711746 17.068924 1.197784 C 16.510326 1.683838 16.26598 2.438736 16.433815 3.159912 C 16.60165 3.881088 17.154198 4.450531 17.869999 4.639999 Z"/>
</svg>
