<?xml version="1.0" encoding="UTF-8"?>
<!-- Generated by Pixelmator Pro 3.4.3 -->
<svg width="80" height="82" viewBox="0 0 80 82" xmlns="http://www.w3.org/2000/svg">
    <g id="Group">
        <path id="Path" fill="#000000" stroke="none" d="M 63.490997 45.606995 L 41.279999 31.194 C 42.433998 30.695999 43.245998 29.548004 43.245998 28.212997 L 43.245998 16.212997 C 44.898998 15.968002 46.175999 14.554001 46.175999 12.834 C 46.175999 11.113998 44.900002 9.698997 43.245998 9.455002 L 43.245998 0.75 L 42.245998 0.75 L 42.245998 9.455002 C 40.594002 9.698997 39.317001 11.113998 39.317001 12.834 C 39.317001 14.554001 40.592999 15.968002 42.245998 16.212997 L 42.245998 28.212997 C 42.245998 29.406998 41.306 30.377998 40.129002 30.445999 L 40 30.362999 L 39.872002 30.445999 C 38.694 30.377998 37.754002 29.406998 37.754002 28.212997 L 36.754002 28.212997 C 36.754002 29.548996 37.566002 30.695999 38.720001 31.194 L 16.509001 45.606995 L 0.32 45.606995 L 0.32 81.25 L 79.68 81.25 L 79.68 45.606995 L 63.490997 45.606995 Z M 40.317001 12.834 C 40.317001 11.494003 41.405998 10.403999 42.745998 10.403999 C 44.085999 10.403999 45.175999 11.494003 45.175999 12.834 C 45.175999 14.173004 44.085999 15.263 42.745998 15.263 C 41.405998 15.263 40.317001 14.173004 40.317001 12.834 Z M 40 31.556 L 61.653 45.608002 L 18.346001 45.608002 L 40 31.556 Z M 78.68 80.25 L 1.32 80.25 L 1.32 46.606995 L 14.966999 46.606995 L 65.030998 46.606995 L 78.68 46.606995 L 78.68 80.25 Z"/>
        <path id="path1" fill="#000000" stroke="none" d="M 67.607002 52.476002 L 68.607002 52.476002 L 68.607002 74.383003 L 67.607002 74.383003 Z"/>
        <path id="path2" fill="#000000" stroke="none" d="M 56.363998 52.476002 L 57.363998 52.476002 L 57.363998 74.383003 L 56.363998 74.383003 Z"/>
        <path id="path3" fill="#000000" stroke="none" d="M 45.120998 52.476002 L 46.120998 52.476002 L 46.120998 74.383003 L 45.120998 74.383003 Z"/>
        <path id="path4" fill="#000000" stroke="none" d="M 33.879002 52.476002 L 34.879002 52.476002 L 34.879002 74.383003 L 33.879002 74.383003 Z"/>
        <path id="path5" fill="#000000" stroke="none" d="M 22.636 52.476002 L 23.636 52.476002 L 23.636 74.383003 L 22.636 74.383003 Z"/>
        <path id="path6" fill="#000000" stroke="none" d="M 11.393 52.476002 L 12.393 52.476002 L 12.393 74.383003 L 11.393 74.383003 Z"/>
    </g>
</svg>
