<?xml version="1.0" encoding="UTF-8"?>
<!-- Generated by Pixelmator Pro 3.5.6 -->
<svg width="452" height="444" viewBox="0 0 452 444" xmlns="http://www.w3.org/2000/svg">
    <path id="Path" fill="#000000" stroke="none" d="M 98.570007 106.220001 C 110.360001 106.220001 119.940002 115.799988 119.940002 127.619995 C 119.940002 139.410004 110.360001 148.98999 98.570007 148.98999 C 86.75 148.98999 77.169998 139.410004 77.169998 127.619995 C 77.160004 115.799988 86.739998 106.220001 98.570007 106.220001 L 98.570007 106.220001 Z M 373.470001 323.100006 C 361.679993 323.100006 352.100006 313.519989 352.100006 301.700012 C 352.100006 289.880005 361.679993 280.329987 373.470001 280.329987 C 385.290009 280.329987 394.869995 289.880005 394.869995 301.700012 C 394.869995 307.600006 392.459991 312.950012 388.609985 316.839996 C 384.720001 320.690002 379.390015 323.100006 373.470001 323.100006 L 373.470001 323.100006 Z M 205.889999 332.709991 C 188.770004 332.709991 174.880005 318.820007 174.880005 301.700012 C 174.880005 284.579987 188.770004 270.690002 205.889999 270.690002 C 223.009995 270.690002 236.899994 284.579987 236.899994 301.700012 C 236.899994 318.820007 223.009995 332.709991 205.889999 332.709991 L 205.889999 332.709991 Z M 205.889999 324.679993 C 218.589996 324.679993 228.880005 314.390015 228.880005 301.690002 C 228.880005 288.98999 218.589996 278.700012 205.889999 278.700012 C 193.190002 278.700012 182.899994 288.98999 182.899994 301.690002 C 182.899994 314.390015 193.190002 324.679993 205.889999 324.679993 L 205.889999 324.679993 Z M 294.579987 327.630005 C 280.269989 327.630005 268.640015 316.01001 268.640015 301.690002 C 268.640015 287.369995 280.26001 275.75 294.579987 275.75 C 308.899994 275.75 320.519989 287.369995 320.519989 301.690002 C 320.519989 316.01001 308.899994 327.630005 294.579987 327.630005 L 294.579987 327.630005 Z M 294.579987 319.640015 C 304.5 319.640015 312.519989 311.589996 312.519989 301.700012 C 312.519989 291.809998 304.5 283.76001 294.579987 283.76001 C 284.690002 283.76001 276.660004 291.809998 276.660004 301.700012 C 276.660004 311.589996 284.690002 319.640015 294.579987 319.640015 L 294.579987 319.640015 Z M 373.470001 315.070007 C 380.869995 315.070007 386.880005 309.089996 386.880005 301.690002 C 386.880005 294.290009 380.869995 288.309998 373.470001 288.309998 C 366.070007 288.309998 360.089996 294.290009 360.089996 301.690002 C 360.089996 309.089996 366.070007 315.070007 373.470001 315.070007 L 373.470001 315.070007 Z M 11.849998 109.789978 C 1.9 139.839996 12.02 167.589996 35.860001 187.52002 C 37.309998 188.710022 37.669998 190.75 36.849998 192.369995 C 10.830002 254.109985 13.439999 277.890015 32.68 279.899994 C 54.139999 282.200012 94.449997 261.869995 139.940002 235.910004 C 140.139999 235.769989 141.389999 235.119995 142.660004 235.459991 C 189.800003 244.809998 249.670013 248.670013 295.220001 229.029999 C 351.230011 204.880005 382.809998 146.48999 357.839996 88.52002 C 326.970001 16.950012 234.76001 0.960022 165.479996 10.710022 C 108.059998 18.799988 31.700001 49.809998 11.849998 109.789978 L 11.849998 109.789978 Z M 448.190002 282.329987 C 457.630005 310.869995 448.839996 338.089996 426.700012 357.790009 C 451.589996 417.829987 446.230011 441.269989 423.209991 443.709991 C 402.290009 445.950012 365.640015 427.75 324.480011 404.309998 C 280.970001 412.790009 227.200012 415.76001 185.639999 397.850006 C 155.619995 384.899994 131.360001 361.649994 121.860001 329.709991 C 115.309998 307.709991 116.699997 284.130005 125.910004 262.779999 C 127.949997 258.019989 130.419998 253.339996 133.25 248.829987 C 90.870003 272.559998 53.650002 290.160004 31.849998 287.829987 C 6.369999 285.140015 0.559999 258.920013 28.48 191.710022 C 3.59 169.710022 -6.360001 139.27002 4.240002 107.289978 C 25.18 44.109985 103.699997 11.369995 164.389999 2.780029 C 237.5 -7.51001 332.769989 10.179993 365.200012 85.320007 C 381.75 123.72998 375.26001 166.960022 348.959991 199.130005 C 389.709991 212.52002 434.049988 239.640015 448.190002 282.329987 L 448.190002 282.329987 Z M 146.240005 244.26001 C 141 250.920013 136.630005 258.119995 133.259995 265.920013 C 124.779999 285.559998 123.509995 307.220001 129.520004 327.399994 C 138.339996 357.079987 160.979996 378.480011 188.820007 390.5 C 229.209991 407.929993 282.160004 404.589996 324.399994 396.170013 C 325.76001 395.829987 326.920013 396.51001 327.119995 396.619995 C 367.600006 419.720001 403.399994 437.779999 422.390015 435.769989 C 439.170013 434.01001 441.329987 413.01001 418.339996 358.440002 C 417.519989 356.820007 417.890015 354.809998 419.329987 353.589996 C 440.420013 335.959991 449.410004 311.410004 440.589996 284.850006 C 426.959991 243.720001 382.450012 217.919983 343.190002 205.649994 C 330.579987 218.940002 315.160004 229.119995 298.369995 236.350006 C 252.73999 256.029999 193.809998 253.140015 146.240005 244.26001 L 146.240005 244.26001 Z M 266.149994 96.609985 C 283.269989 96.609985 297.160004 110.5 297.160004 127.619995 C 297.160004 144.73999 283.269989 158.600006 266.149994 158.600006 C 249.029999 158.600006 235.140015 144.73999 235.140015 127.619995 C 235.140015 110.5 249.029999 96.609985 266.149994 96.609985 L 266.149994 96.609985 Z M 266.149994 104.600006 C 253.450012 104.600006 243.160004 114.890015 243.160004 127.619995 C 243.160004 140.320007 253.450012 150.609985 266.149994 150.609985 C 278.850006 150.609985 289.140015 140.320007 289.140015 127.619995 C 289.140015 114.890015 278.850006 104.600006 266.149994 104.600006 L 266.149994 104.600006 Z M 177.449997 101.679993 C 191.759995 101.679993 203.389999 113.27002 203.389999 127.619995 C 203.389999 141.929993 191.770004 153.529999 177.449997 153.529999 C 163.110001 153.529999 151.509995 141.940002 151.509995 127.619995 C 151.520004 113.279999 163.110001 101.679993 177.449997 101.679993 L 177.449997 101.679993 Z M 177.449997 109.679993 C 167.529999 109.679993 159.509995 117.700012 159.509995 127.619995 C 159.509995 137.51001 167.529999 145.529999 177.449997 145.529999 C 187.339996 145.529999 195.369995 137.51001 195.369995 127.619995 C 195.369995 117.700012 187.350006 109.679993 177.449997 109.679993 L 177.449997 109.679993 Z M 108.029999 118.149994 C 105.589996 115.710022 102.25 114.210022 98.559998 114.210022 C 91.160004 114.210022 85.150002 120.220001 85.150002 127.619995 C 85.150002 134.98999 91.160004 141 98.559998 141 C 105.929993 141 111.940002 134.98999 111.940002 127.619995 C 111.949997 123.910004 110.440002 120.559998 108.029999 118.149994 L 108.029999 118.149994 Z"/>
</svg>
