<?xml version="1.0" encoding="UTF-8"?>
<!-- Generated by Pixelmator Pro 3.4.3 -->
<svg width="90" height="90" viewBox="0 0 90 90" xmlns="http://www.w3.org/2000/svg">
    <path id="Path" fill="#000000" stroke="none" d="M 90 45 C 90 42.243385 89.03019 39.599464 87.255386 37.151085 C 87.332756 36.574318 87.385437 35.993858 87.385437 35.40638 C 87.385437 30.519035 84.656891 25.978264 80.002625 22.220016 C 78.223152 17.842903 74.330231 13.977684 69.031319 11.058586 C 66.966873 8.737976 64.200775 6.741486 60.940453 5.200439 C 57.066128 2.022102 51.364193 0 45 0 C 38.636238 0 32.934673 2.022041 29.060345 5.200195 C 25.799898 6.741234 23.033499 8.737732 20.968931 11.058464 C 15.670012 13.97744 11.777098 17.842659 9.997497 22.219711 C 5.342925 25.97802 2.614069 30.518913 2.614069 35.40638 C 2.614069 35.994041 2.666754 36.574692 2.744182 37.151642 C 0.969628 39.599838 0 42.243568 0 45 C 0 47.702454 0.937007 50.295471 2.645828 52.703232 C 2.633641 52.933365 2.614069 53.162445 2.614069 53.394165 C 2.614069 58.165745 5.216813 62.606194 9.670861 66.311447 C 11.179342 70.783592 14.88349 74.763412 20.04854 77.813118 C 22.17761 80.614349 25.282772 83.013863 29.058559 84.798637 C 32.932888 87.977531 38.635315 90 45 90 C 51.365116 90 57.067787 87.97747 60.942177 84.798386 C 64.71772 83.01368 67.822693 80.614227 69.951584 77.813057 C 75.116692 74.763283 78.8209 70.783279 80.329323 66.311012 C 84.783005 62.605881 87.385437 58.165562 87.385437 53.394165 C 87.385437 53.162689 87.365868 52.933792 87.353745 52.703903 C 89.062866 50.295898 90 47.702698 90 45 Z M 45 88.739494 C 41.588512 88.739494 38.375828 88.139343 35.568501 87.084404 C 38.518375 87.805138 41.692406 88.200829 45 88.200829 C 48.307838 88.200829 51.481995 87.805077 54.432056 87.084282 C 51.624603 88.139282 48.411732 88.739494 45 88.739494 Z M 45 86.940323 C 36.072025 86.940323 28.153374 84.007561 23.269905 79.509628 C 29.318726 82.328156 36.846607 84.003738 45 84.003738 C 53.153393 84.003738 60.681274 82.328156 66.730095 79.509628 C 61.846626 84.007561 53.927975 86.940323 45 86.940323 Z M 45 82.74324 C 29.285244 82.74324 15.974367 76.444901 11.656525 67.824051 C 19.422844 73.288475 31.477398 76.809021 45 76.809021 C 58.522846 76.809021 70.577461 73.288345 78.343597 67.823746 C 74.02594 76.444717 60.714943 82.74324 45 82.74324 Z M 45 75.548515 C 22.882214 75.548515 4.795456 66.092888 3.916855 54.292038 C 10.949092 62.252594 26.712288 67.815125 45 67.815125 C 63.287285 67.815125 79.050171 62.252846 86.082649 54.292648 C 85.203438 66.093193 67.116989 75.548515 45 75.548515 Z M 3.874574 35.40638 C 3.874574 31.417389 5.851866 27.674713 9.291171 24.43821 C 9.049042 25.475357 8.917083 26.534164 8.917083 27.611938 C 8.917083 39.861481 25.103729 49.827332 45 49.827332 C 64.896271 49.827332 81.082916 39.861481 81.082916 27.611938 C 81.082916 26.534348 80.950958 25.475784 80.708954 24.438766 C 84.147949 27.675201 86.124931 31.417633 86.124931 35.40638 C 86.124931 47.622437 67.676277 57.560726 45 57.560726 C 22.323235 57.560726 3.874574 47.622437 3.874574 35.40638 Z M 50.672268 5.427063 C 50.672268 7.724525 48.127625 9.59362 45 9.59362 C 41.872375 9.59362 39.327732 7.724525 39.327732 5.427063 C 39.327732 3.129593 41.872375 1.260506 45 1.260506 C 48.127625 1.260506 50.672268 3.129593 50.672268 5.427063 Z M 38.067226 5.427063 C 38.067226 8.419777 41.177128 10.854126 45 10.854126 C 48.822872 10.854126 51.932774 8.419777 51.932774 5.427063 C 51.932774 4.196838 51.401184 3.064789 50.516613 2.153564 C 54.795498 3.602409 57.762604 6.670273 57.762604 10.223869 C 57.762604 15.165932 52.037159 19.186745 45 19.186745 C 37.962349 19.186745 32.236904 15.165932 32.236904 10.223869 C 32.236904 6.670151 35.204197 3.602158 39.483509 2.153381 C 38.598881 3.064598 38.067226 4.196777 38.067226 5.427063 Z M 30.976398 10.223869 C 30.976398 15.861183 37.267593 20.44725 45 20.44725 C 52.732407 20.44725 59.023109 15.861183 59.023109 10.223869 C 59.023109 7.525604 57.571377 5.075256 55.220734 3.24617 C 60.981506 5.657562 64.853928 10.026054 64.853928 15.020676 C 64.853928 22.607834 55.947678 28.780365 45 28.780365 C 34.052818 28.780365 25.146566 22.607834 25.146566 15.020676 C 25.146566 10.026428 29.018494 5.658173 34.778408 3.246719 C 32.428009 5.075745 30.976398 7.525848 30.976398 10.223869 Z M 23.886063 15.020676 C 23.886063 23.303078 33.357571 30.040863 45 30.040863 C 56.642921 30.040863 66.114433 23.303078 66.114433 15.020676 C 66.114433 12.568054 65.267159 10.257721 63.795609 8.210815 C 68.759399 11.471207 71.845787 16.00631 71.845787 21.016449 C 71.845787 30.917801 59.803047 38.973213 45 38.973213 C 30.196953 38.973213 18.154215 30.917801 18.154215 21.016449 C 18.154215 16.006065 21.240973 11.470711 26.205256 8.210266 C 24.733517 10.257355 23.886063 12.567871 23.886063 15.020676 Z M 16.893711 21.016449 C 16.893711 31.613052 29.502201 40.233719 45 40.233719 C 60.498291 40.233719 73.106293 31.613052 73.106293 21.016449 C 73.106293 18.415359 72.34285 15.934608 70.967247 13.669823 C 76.469337 17.37674 79.822411 22.262177 79.822411 27.611938 C 79.822411 39.166718 64.201027 48.566833 45 48.566833 C 25.798973 48.566833 10.177586 39.166718 10.177586 27.611938 C 10.177586 22.262177 13.530663 17.376678 19.032814 13.669762 C 17.657152 15.934486 16.893711 18.415298 16.893711 21.016449 Z M 45 58.821232 C 66.247864 58.821232 83.889694 50.139076 86.92112 38.859535 C 88.097916 40.806915 88.739494 42.866806 88.739494 45 C 88.739494 56.885178 69.117973 66.554619 45 66.554619 C 20.882027 66.554619 1.260504 56.885178 1.260504 45 C 1.260504 42.866989 1.90202 40.807281 3.078572 38.860092 C 6.110491 50.139328 23.752502 58.821232 45 58.821232 Z"/>
</svg>
