<?xml version="1.0" encoding="UTF-8"?>
<!-- Generated by Pixelmator Pro 3.5 -->
<svg width="70" height="62" viewBox="0 0 70 62" xmlns="http://www.w3.org/2000/svg">
    <g id="Group">
        <path id="Path" fill="#000000" stroke="none" d="M 39.443001 38.647995 L 27.377998 31.688995 L 27.377998 17.712006 L 14.1 10.096001 L 0.822 17.763 L 0.822 47.027 L 26.165001 61.648003 L 39.443001 53.982002 L 39.443001 38.647995 L 39.443001 38.647995 Z M 24.952 31.681999 L 15.313 37.248001 L 15.313 26.127998 L 24.952 20.561996 L 24.952 31.681999 Z M 26.165001 44.914001 L 16.535 39.352997 L 26.173 33.789001 L 35.805 39.349998 L 26.165001 44.914001 Z M 14.1 12.897003 L 23.597 18.533005 L 14.09 24.022003 L 4.459999 18.462006 L 14.1 12.897003 Z M 3.247 45.625999 L 3.247 20.561996 L 12.886999 26.127998 L 12.886999 40.099998 L 24.952 47.015999 L 24.952 58.147003 L 3.247 45.625999 Z M 27.377998 58.146004 L 27.377998 47.025002 L 37.018002 41.462006 L 37.018002 52.582001 L 27.377998 58.146004 Z"/>
        <path id="path1" fill="#000000" stroke="none" d="M 69.178001 8.014999 L 55.897003 0.350998 L 30.556999 14.992004 L 30.556999 30.324005 L 55.900002 44.946999 L 69.177002 37.300995 L 69.177002 8.014999 Z M 34.195999 15.691002 L 55.823997 3.193001 L 65.539001 8.716003 L 43.856998 21.231995 L 34.195999 15.691002 Z M 32.983002 17.792999 L 42.622002 23.360001 L 42.622002 34.487999 L 32.983002 28.923004 L 32.983002 17.792999 Z M 46.271 36.584999 L 46.282001 36.578003 L 46.278999 36.578003 L 54.686996 31.723999 L 54.686996 41.445 L 46.271 36.584999 Z M 66.752998 35.880005 L 57.112999 41.445 L 57.112999 27.522995 L 45.048 34.487999 L 45.048 23.359001 L 66.752998 10.82 L 66.752998 35.880005 Z"/>
    </g>
</svg>
