<?xml version="1.0" encoding="UTF-8"?>
<!-- Generated by Pixelmator Pro 3.4.3 -->
<svg width="80" height="84" viewBox="0 0 80 84" xmlns="http://www.w3.org/2000/svg">
    <path id="Path" fill="#000000" stroke="none" d="M 39 0.330002 L 39 44.43 C 33.84412 44.892548 29.893532 49.213409 29.893532 54.389999 C 29.893532 59.566589 33.84412 63.887459 39 64.349998 L 39 83.669998 L 41 83.669998 L 41 64.349998 C 46.15588 63.887459 50.106468 59.566589 50.106468 54.389999 C 50.106468 49.213409 46.15588 44.892548 41 44.43 L 41 0.330002 Z M 48 54.380001 C 48 58.798279 44.418278 62.379997 40 62.379997 C 35.581722 62.379997 32 58.798279 32 54.380001 C 32 49.961723 35.581722 46.380005 40 46.380005 C 42.123466 46.379997 44.159813 47.224228 45.660393 48.726685 C 47.160973 50.229134 48.002655 52.266541 48 54.389999 Z"/>
    <path id="path1" fill="#000000" stroke="none" d="M 9.719999 0.330002 L 9.719999 19.650002 C 4.56412 20.112549 0.613532 24.433411 0.613532 29.610001 C 0.613532 34.786591 4.56412 39.107452 9.719999 39.57 L 9.719999 83.669998 L 11.719999 83.669998 L 11.719999 39.57 C 16.875879 39.107452 20.826468 34.786591 20.826468 29.610001 C 20.826468 24.433411 16.875879 20.112549 11.719999 19.650002 L 11.719999 0.330002 Z M 18.719999 29.610001 C 18.719999 34.028275 15.138277 37.610001 10.719999 37.610001 C 6.301722 37.610001 2.72 34.028275 2.72 29.610001 C 2.72 25.191727 6.301722 21.610001 10.719999 21.610001 C 12.843464 21.607346 14.880865 22.449028 16.38332 23.949608 C 17.885775 25.450188 18.730001 27.486534 18.73 29.610001 Z"/>
    <path id="path2" fill="#000000" stroke="none" d="M 68.279999 0.330002 L 68.279999 19.650002 C 63.124123 20.112549 59.173531 24.433411 59.173531 29.610001 C 59.173531 34.786591 63.124123 39.107452 68.279999 39.57 L 68.279999 83.669998 L 70.279999 83.669998 L 70.279999 39.57 C 75.435883 39.107452 79.386467 34.786591 79.386467 29.610001 C 79.386467 24.433411 75.435883 20.112549 70.279999 19.650002 L 70.279999 0.330002 Z M 77.279999 29.610001 C 77.279999 34.028275 73.69828 37.610001 69.279999 37.610001 C 64.861725 37.610001 61.279999 34.028275 61.279999 29.610001 C 61.279999 25.191727 64.861725 21.610001 69.279999 21.610001 C 71.403465 21.607346 73.440865 22.449028 74.943321 23.949608 C 76.445778 25.450188 77.290001 27.486534 77.290001 29.610001 Z"/>
</svg>
