<?xml version="1.0" encoding="UTF-8"?>
<!-- Generated by Pixelmator Pro 3.4.3 -->
<svg width="72" height="90" viewBox="0 0 72 90" xmlns="http://www.w3.org/2000/svg">
    <g id="Group">
        <path id="Path" fill="#000000" stroke="none" d="M 38.250999 0.767822 C 38.161686 0.779907 38.076241 0.81189 38.000999 0.861511 L 14.469999 14.486511 C 14.46973 14.496887 14.46973 14.507324 14.469999 14.5177 C 14.424429 14.543396 14.382406 14.57489 14.344999 14.611389 C 14.322659 14.630676 14.301769 14.65155 14.282499 14.673889 C 14.270878 14.694153 14.260445 14.714966 14.251249 14.736389 C 14.240454 14.74646 14.23003 14.756836 14.219999 14.767639 C 14.21973 14.778015 14.21973 14.788391 14.219999 14.798828 C 14.21973 14.809204 14.21973 14.819641 14.219999 14.830017 C 14.21973 14.840393 14.21973 14.85083 14.219999 14.861206 C 14.209204 14.871216 14.19878 14.881653 14.188749 14.892395 C 14.18848 14.902832 14.18848 14.913208 14.188749 14.923645 C 14.18848 14.934021 14.18848 14.944397 14.188749 14.954834 C 14.18848 14.96521 14.18848 14.975647 14.188749 14.986023 C 14.18848 14.996399 14.18848 15.006836 14.188749 15.017212 C 14.184399 15.058777 14.184399 15.100647 14.188749 15.142212 L 14.188749 25.5802 L 0.46975 33.549011 L 0.376 33.5802 C 0.353659 33.599487 0.332768 33.620361 0.3135 33.6427 C 0.291159 33.661987 0.270268 33.682861 0.251 33.7052 C 0.240204 33.71521 0.22978 33.725647 0.21975 33.736389 C 0.197409 33.755676 0.176518 33.77655 0.15725 33.798889 C 0.15698 33.809326 0.15698 33.819702 0.15725 33.830139 C 0.131619 33.869202 0.110643 33.911133 0.09475 33.955139 C 0.09448 33.965515 0.09448 33.975891 0.09475 33.986328 C 0.09448 33.996704 0.09448 34.007141 0.09475 34.017517 C 0.09448 34.027893 0.09448 34.03833 0.09475 34.048706 C 0.09448 34.059143 0.09448 34.069519 0.09475 34.079895 C 0.09448 34.090332 0.09448 34.100708 0.09475 34.111145 C 0.08794 34.162964 0.08794 34.215515 0.09475 34.267395 L 0.09475 61.361393 C 0.104204 61.571232 0.222735 61.760929 0.40725 61.861393 L 23.751251 75.392334 C 23.761284 75.403076 23.771709 75.413452 23.782501 75.42334 L 23.813751 75.454346 C 23.842991 75.477905 23.874378 75.498657 23.907501 75.516357 L 23.938751 75.516357 C 23.948784 75.5271 23.959209 75.537476 23.970001 75.547363 C 23.980415 75.547607 23.990833 75.547607 24.001251 75.547363 C 24.000984 75.557739 24.000984 75.567993 24.001251 75.578369 C 24.011665 75.578613 24.022083 75.578613 24.032501 75.578369 C 24.042534 75.589111 24.052959 75.599365 24.063751 75.609375 C 24.074165 75.609619 24.084583 75.609619 24.095001 75.609375 L 24.126251 75.609375 C 24.136665 75.609619 24.147083 75.609619 24.157501 75.609375 L 47.345501 89.078369 C 47.374741 89.101929 47.406128 89.122681 47.439251 89.140381 L 47.470501 89.140381 C 47.480534 89.151123 47.490959 89.161377 47.501751 89.171387 C 47.512165 89.171631 47.522587 89.171631 47.533001 89.171387 C 47.572113 89.196777 47.614063 89.217651 47.658001 89.233398 C 47.668415 89.233643 47.678837 89.233643 47.689251 89.233398 C 47.699665 89.233643 47.710087 89.233643 47.720501 89.233398 C 47.730915 89.233643 47.741337 89.233643 47.751751 89.233398 C 47.762165 89.233643 47.772587 89.233643 47.783001 89.233398 C 47.793415 89.233643 47.803837 89.233643 47.814251 89.233398 C 47.846298 89.225586 47.877655 89.21521 47.908001 89.202393 C 47.918415 89.202637 47.928837 89.202637 47.939251 89.202393 C 47.983185 89.186646 48.025135 89.165771 48.064251 89.140381 L 71.595253 75.515381 C 71.789337 75.409424 71.909416 75.205322 71.907753 74.984131 L 71.907753 47.859192 C 71.912102 47.817627 71.912102 47.775696 71.907753 47.734192 C 71.90802 47.723816 71.90802 47.713501 71.907753 47.703186 C 71.90802 47.69281 71.90802 47.682495 71.907753 47.67218 C 71.90802 47.661865 71.90802 47.651489 71.907753 47.641174 C 71.882233 47.534973 71.828209 47.437744 71.751503 47.359985 C 71.75177 47.349609 71.75177 47.339294 71.751503 47.328979 C 71.732216 47.306824 71.711327 47.286072 71.689003 47.266968 C 71.678963 47.256226 71.668541 47.245911 71.657753 47.235962 C 71.647339 47.235718 71.636917 47.235718 71.626503 47.235962 C 71.62677 47.225647 71.62677 47.215271 71.626503 47.204956 L 62.439003 41.892456 L 62.439003 15.23645 C 62.569649 14.942749 62.445625 14.598267 62.157753 14.4552 L 38.595749 0.861206 C 38.493294 0.795898 38.373428 0.763245 38.251999 0.767517 Z M 38.313499 2.049011 L 60.657501 14.987 L 38.282501 27.924988 L 15.938499 14.987 L 38.313499 2.049011 Z M 15.3755 16.049011 L 37.719501 28.987 L 37.719501 54.862 L 24.719501 47.362 C 24.709465 47.351318 24.699043 47.340942 24.688251 47.330994 L 24.657001 47.330994 C 24.646965 47.320313 24.636543 47.309937 24.625751 47.299988 C 24.626019 47.289673 24.626019 47.279358 24.625751 47.269043 C 24.615334 47.268738 24.604916 47.268738 24.594501 47.269043 L 24.563251 47.238037 C 24.552834 47.237732 24.542416 47.237732 24.532001 47.238037 C 24.532269 47.227661 24.532269 47.217346 24.532001 47.207031 L 24.438251 47.176025 L 15.37575 41.926025 L 15.37575 41.89502 L 15.37575 25.958008 C 15.378193 25.926819 15.378193 25.895508 15.37575 25.864319 L 15.37575 16.051819 Z M 61.250504 16.049011 L 61.250504 41.893005 L 38.906502 54.862 L 38.906502 28.955994 L 61.250504 16.049988 Z M 14.188499 26.987 L 14.188499 41.205994 L 1.9075 34.112305 L 14.188499 26.987305 Z M 1.3135 35.1745 L 14.3755 42.705811 L 14.40675 42.736816 C 14.426964 42.748352 14.447834 42.758728 14.46925 42.767822 C 14.516241 42.806946 14.568932 42.838623 14.6255 42.861816 L 23.6255 48.080505 L 23.6255 73.955566 L 1.3135 61.017521 L 1.3135 35.173523 Z M 61.844498 42.955811 L 70.094498 47.737122 L 47.7505 60.643131 L 39.5317 55.893127 L 61.843697 42.955139 Z M 24.844501 48.799622 L 27.594501 50.393311 L 38.0005 56.424625 L 38.03175 56.424625 C 38.041782 56.435307 38.052208 56.445683 38.063 56.455631 L 38.09425 56.455631 C 38.113537 56.477787 38.134426 56.498539 38.15675 56.517643 L 38.21925 56.517643 L 47.15675 61.705143 L 47.15675 87.580078 L 24.844749 74.674072 L 24.844749 48.799133 Z M 70.688499 48.799622 L 70.688499 74.674561 L 48.376499 87.580566 L 48.376499 61.705631 L 70.688499 48.799622 Z"/>
    </g>
</svg>
