<?xml version="1.0" encoding="UTF-8"?>
<!-- Generated by Pixelmator Pro 3.4.3 -->
<svg width="82" height="82" viewBox="0 0 82 82" xmlns="http://www.w3.org/2000/svg">
    <g id="Group">
        <path id="Path" fill="#000000" stroke="none" d="M 37.209 43.358002 L 1.844 43.358002 C 1.292 43.358002 0.844 43.806 0.844 44.358002 L 0.844 79.723 C 0.844 80.275002 1.292 80.723 1.844 80.723 L 37.209 80.723 C 37.761002 80.723 38.209 80.275002 38.209 79.723 L 38.209 44.358002 C 38.209 43.806 37.761002 43.358002 37.209 43.358002 Z M 36.209 78.723 L 2.844 78.723 L 2.844 45.358002 L 36.209 45.358002 L 36.209 78.723 Z"/>
        <path id="path1" fill="#000000" stroke="none" d="M 61.527 42.410004 C 50.702 42.410004 41.896 51.216003 41.896 62.041 C 41.896 72.864998 50.702 81.670998 61.527 81.670998 C 72.349998 81.670998 81.155998 72.864998 81.155998 62.041 C 81.155998 51.216003 72.350998 42.410004 61.527 42.410004 Z M 61.527 79.670998 C 51.805 79.670998 43.896 71.762001 43.896 62.041 C 43.896 52.319 51.805 44.410004 61.527 44.410004 C 71.248001 44.410004 79.155998 52.319 79.155998 62.041 C 79.155998 71.762001 71.248001 79.670998 61.527 79.670998 Z"/>
        <path id="path2" fill="#000000" stroke="none" d="M 17.969999 37.054001 L 60.128998 37.054001 C 60.491997 37.054001 60.825996 36.856995 61.002998 36.540001 C 61.179001 36.223 61.169998 35.834999 60.978996 35.526001 L 39.424 0.801003 C 39.241001 0.507004 38.919998 0.328003 38.574001 0.328003 C 38.570999 0.328003 38.567001 0.328003 38.563999 0.328003 C 38.214001 0.331001 37.891998 0.516998 37.714001 0.818001 L 17.110001 35.543999 C 16.926001 35.852997 16.923 36.237 17.101 36.548996 C 17.278999 36.861 17.611 37.054001 17.969999 37.054001 Z M 38.594002 3.255997 L 58.332001 35.054001 L 19.726999 35.054001 L 38.594002 3.255997 Z"/>
    </g>
</svg>
