<?xml version="1.0" encoding="UTF-8"?>
<!-- Generated by Pixelmator Pro 3.4.3 -->
<svg width="16" height="21" viewBox="0 0 16 21" xmlns="http://www.w3.org/2000/svg">
    <g id="Group">
        <path id="Path" fill="#000000" stroke="none" d="M 8.56046 0.627083 C 7.362329 0.627083 6.384881 1.60508 6.384881 2.803177 C 6.384881 4.001274 7.362329 4.976688 8.56046 4.976688 C 9.75859 4.976688 10.734487 4.001274 10.734487 2.803177 C 10.734487 1.60508 9.75859 0.627083 8.56046 0.627083 Z M 8.56046 1.156765 C 9.472619 1.156765 10.205321 1.891073 10.205321 2.803177 C 10.205321 3.715281 9.472619 4.447521 8.56046 4.447521 C 7.648301 4.447521 6.914049 3.715281 6.914049 2.803177 C 6.914049 1.891073 7.648301 1.156765 8.56046 1.156765 Z M 11.601618 2.53756 C 11.531446 2.537834 11.464257 2.565971 11.414831 2.615786 C 11.365406 2.665598 11.337793 2.733006 11.338068 2.803177 C 11.338634 2.948496 11.456299 3.06616 11.601618 3.066727 L 12.556598 3.066727 C 13.937579 3.066727 15.041201 4.170424 15.041201 5.55133 C 15.041201 6.932237 13.937579 8.035413 12.556598 8.035416 L 12.236721 8.035416 L 12.785008 7.478861 C 12.834734 7.429003 12.862534 7.361379 12.862251 7.290963 C 12.86197 7.220548 12.833631 7.153149 12.783508 7.103689 C 12.733517 7.054511 12.666046 7.027189 12.595922 7.027729 C 12.525202 7.028286 12.457647 7.057132 12.408337 7.107829 L 11.414082 8.113452 C 11.407684 8.120193 11.401646 8.127266 11.395992 8.134643 C 11.395456 8.13514 11.394923 8.13564 11.394392 8.136143 C 11.357547 8.183159 11.337694 8.241258 11.338062 8.30099 C 11.338252 8.36073 11.358651 8.418649 11.395942 8.465322 C 11.401596 8.472697 11.407634 8.479771 11.414032 8.486511 L 12.408287 9.494203 C 12.457665 9.544405 12.52502 9.572852 12.595436 9.573247 C 12.665852 9.573641 12.733521 9.545949 12.783458 9.496303 C 12.833422 9.446863 12.861661 9.379576 12.861942 9.309286 C 12.862224 9.238997 12.834525 9.171486 12.784958 9.121648 L 12.235121 8.564576 L 12.556548 8.564576 C 14.221523 8.564574 15.568251 7.216248 15.568251 5.551324 C 15.568251 3.8864 14.221523 2.537554 12.556548 2.537554 Z M 8.56046 6.125455 C 7.362329 6.125455 6.384881 7.102935 6.384881 8.301032 C 6.384881 9.49913 7.362329 10.47506 8.56046 10.47506 C 9.75859 10.47506 10.734487 9.49913 10.734487 8.301032 C 10.734487 7.102935 9.75859 6.125455 8.56046 6.125455 Z M 8.56046 6.654621 C 9.472619 6.654621 10.205321 7.388929 10.205321 8.301032 C 10.205321 9.213137 9.472619 9.945894 8.56046 9.945893 C 7.648301 9.945893 6.914049 9.213137 6.914049 8.301032 C 6.914049 7.388929 7.648301 6.654621 8.56046 6.654621 Z M 4.378803 8.035416 C 2.713829 8.035416 1.365033 9.384261 1.365033 11.049185 C 1.365033 12.714109 2.713829 14.062952 4.378803 14.062954 L 4.70023 14.062954 L 4.150393 14.619509 C 4.100742 14.669443 4.073045 14.73711 4.073433 14.807526 C 4.073822 14.877941 4.102264 14.945297 4.152462 14.99468 C 4.202401 15.044327 4.270069 15.07202 4.340485 15.071625 C 4.410901 15.07123 4.478255 15.042784 4.527634 14.99258 L 5.521372 13.98489 C 5.62397 13.881681 5.62397 13.714994 5.521372 13.611786 L 4.527634 12.60358 C 4.477981 12.553642 4.41047 12.525559 4.340049 12.525549 C 4.26985 12.525147 4.20237 12.55266 4.152462 12.602029 C 4.102422 12.651392 4.07408 12.718637 4.073692 12.788927 C 4.073304 12.859217 4.100901 12.926771 4.150393 12.976684 L 4.699197 13.533756 L 4.378803 13.533756 C 2.997822 13.533754 1.894717 12.430059 1.894717 11.049153 C 1.894717 9.668247 2.997822 8.56455 4.378803 8.56455 L 5.333783 8.56455 C 5.479304 8.564267 5.597281 8.446521 5.59785 8.301001 C 5.598124 8.230739 5.570441 8.163254 5.520904 8.113426 C 5.471366 8.063598 5.404045 8.03552 5.333783 8.035383 Z M 8.56046 11.62331 C 7.362329 11.62331 6.384881 12.601307 6.384881 13.799404 C 6.384881 14.997503 7.362329 15.972916 8.56046 15.972916 C 9.75859 15.972916 10.734487 14.997503 10.734487 13.799404 C 10.734487 12.601307 9.75859 11.62331 8.56046 11.62331 Z M 8.56046 12.152476 C 9.472619 12.152476 10.205321 12.887301 10.205321 13.799404 C 10.205321 14.711508 9.472619 15.443748 8.56046 15.443748 C 7.648301 15.443748 6.914049 14.711508 6.914049 13.799404 C 6.914049 12.887301 7.648301 12.152476 8.56046 12.152476 Z"/>
    </g>
</svg>
