<?xml version="1.0" encoding="UTF-8"?>
<!-- Generated by Pixelmator Pro 3.4.3 -->
<svg width="52" height="48" viewBox="0 0 52 48" xmlns="http://www.w3.org/2000/svg">
    <g id="Group">
        <path id="Path" fill="#000000" stroke="none" d="M 46.400002 22 L 34.700001 17.400002 C 35.099998 16.400002 35.200001 15.400002 35.200001 14.299999 C 35.200001 11.099998 33.599998 8.400002 31.200001 6.699997 C 31.599998 5.800003 32.700001 4 36.099998 2.599998 C 36.599998 2.400002 36.900002 1.800003 36.700001 1.300003 C 36.5 0.800003 35.900002 0.5 35.400002 0.699997 C 31.599998 2.199997 30 4.400002 29.400002 5.699997 C 28.299999 5.300003 27.200001 5 26 5 C 24.799999 5 23.6 5.199997 22.6 5.699997 C 22 4.400002 20.5 2.199997 16.6 0.699997 C 16.1 0.5 15.5 0.699997 15.299999 1.300003 C 15.1 1.900002 15.299999 2.400002 15.9 2.599998 C 19.299999 4 20.5 5.800003 20.9 6.699997 C 18.5 8.400002 16.9 11.099998 16.9 14.299999 C 16.9 15.400002 17.1 16.400002 17.4 17.400002 L 5.6 22 C 2.9 23 1 25.299999 0.4 28.200001 C -0.2 31 0.7 33.900002 2.7 36 C 4.3 37.599998 6.5 38.5 8.7 38.5 C 8.7 38.5 8.7 38.5 8.7 38.5 C 11.799999 38.5 14.5 36.900002 16.1 34.299999 L 16.799999 33.200001 C 17.4 41.400002 21.299999 47.5 26.099998 47.5 C 30.900002 47.5 34.799999 41.400002 35.400002 33.200001 L 36.099998 34.299999 C 37.599998 36.900002 40.400002 38.5 43.5 38.5 C 45.799999 38.5 47.900002 37.599998 49.5 36 C 51.5 34 52.400002 31.099998 51.799999 28.200001 C 51 25.299999 49.099998 23 46.400002 22 Z M 18.799999 14.299999 C 18.799999 10.299999 22 7.099998 26 7.099998 C 30 7.099998 33.200001 10.299999 33.200001 14.299999 C 33.200001 15.099998 33.099998 15.900002 32.799999 16.700001 L 29.799999 15.5 C 29.799999 15.5 29.799999 15.5 29.799999 15.5 L 26.400002 14.200001 C 26.400002 14.200001 26.400002 14.200001 26.299999 14.200001 C 26.200001 14.200001 26.200001 14.200001 26.099998 14.200001 C 26.099998 14.200001 26 14.200001 26 14.200001 C 26 14.200001 25.9 14.200001 25.9 14.200001 C 25.799999 14.200001 25.799999 14.200001 25.700001 14.200001 C 25.700001 14.200001 25.700001 14.200001 25.6 14.200001 L 19.200001 16.700001 C 18.9 15.900002 18.799999 15.099998 18.799999 14.299999 Z M 32.400002 37.900002 L 19.6 37.900002 C 19.1 36.200001 18.799999 34.299999 18.6 32.299999 L 33.299999 32.299999 C 33.299999 34.299999 32.900002 36.200001 32.400002 37.900002 Z M 33.400002 29.799999 C 33.400002 30 33.400002 30.200001 33.400002 30.299999 L 18.6 30.299999 C 18.6 30.099998 18.6 29.900002 18.6 29.799999 L 21.6 24.700001 L 30.5 24.700001 L 33.400002 29.799999 Z M 22.700001 22.700001 L 26 17.099998 L 29.299999 22.700001 L 22.700001 22.700001 Z M 14.299999 33.200001 C 13.1 35.200001 11 36.400002 8.7 36.400002 L 8.7 36.400002 C 7 36.400002 5.3 35.700001 4.1 34.5 C 2.5 32.900002 1.9 30.700001 2.4 28.599998 C 2.9 26.400002 4.4 24.700001 6.4 23.900002 L 23 17.400002 C 23 17.400002 23 17.400002 23 17.400002 L 23.700001 17.099998 L 14.299999 33.200001 Z M 26 45.299999 C 23.700001 45.299999 21.700001 43.200001 20.299999 39.900002 L 31.700001 39.900002 C 30.299999 43.200001 28.299999 45.299999 26 45.299999 Z M 47.900002 34.5 C 46.700001 35.700001 45 36.400002 43.299999 36.400002 C 41 36.400002 38.900002 35.200001 37.700001 33.200001 L 28.299999 17.099998 L 29 17.400002 C 29 17.400002 29 17.400002 29 17.400002 L 45.700001 23.900002 C 47.799999 24.700001 49.299999 26.5 49.700001 28.599998 C 50.099998 30.700001 49.5 32.900002 47.900002 34.5 Z"/>
    </g>
</svg>
