<?xml version="1.0" encoding="UTF-8"?>
<!-- Generated by Pixelmator Pro 3.5.5 -->
<svg width="48" height="91" viewBox="0 0 48 91" xmlns="http://www.w3.org/2000/svg">
    <path id="Path" fill="#000000" stroke="none" d="M 31.52 81.739998 C 31.135422 81.636139 30.725323 81.689522 30.38015 81.888374 C 30.034973 82.087227 29.783073 82.415207 29.68 82.800003 C 29.018612 85.294746 26.760933 87.031883 24.18 87.031883 C 21.599068 87.031883 19.341389 85.294746 18.68 82.800003 C 18.570286 82.251205 18.164177 81.809128 17.62664 81.653343 C 17.089104 81.497559 16.509544 81.653976 16.123386 82.059067 C 15.737225 82.464149 15.608692 83.050529 15.790001 83.580002 C 16.806515 87.381157 20.250267 90.024986 24.185001 90.024986 C 28.119732 90.024986 31.563484 87.381157 32.580002 83.580002 C 32.683861 83.195419 32.630478 82.785324 32.431629 82.440147 C 32.232777 82.094971 31.904789 81.843071 31.52 81.739998 Z"/>
    <path id="path1" fill="#000000" stroke="none" d="M 47.559998 76.160004 L 45.559998 71.5 C 43.803871 67.390968 42.898979 62.968575 42.900002 58.5 L 42.900002 54.839996 C 42.902657 48.004639 39.175644 41.712433 33.18 38.43 C 34.010307 36.260048 34.010307 33.859955 33.18 31.690002 C 31.558071 27.310349 27.029984 24.723282 22.433418 25.550079 C 17.836853 26.376862 14.494095 30.379669 14.5 35.050003 C 14.498661 36.245422 14.726086 37.430054 15.169998 38.540001 C 9.110889 42.05249 5.392139 48.536453 5.42 55.540001 L 5.42 58.419998 C 5.419525 62.889427 4.51116 67.312187 2.75 71.419998 L 0.75 76.080002 C 0.341728 77.044586 0.443005 78.149452 1.019833 79.023743 C 1.596663 79.898033 2.572577 80.425835 3.620001 80.43 L 44.620003 80.43 C 45.669197 80.429176 46.648193 79.902733 47.227394 79.027893 C 47.806595 78.153061 47.908951 77.046211 47.5 76.080002 Z M 44.790001 77.449997 C 44.767517 77.489075 44.725029 77.512253 44.68 77.510002 L 3.68 77.510002 C 3.640465 77.510826 3.603058 77.492126 3.58 77.459999 C 3.556261 77.423523 3.556261 77.37648 3.58 77.339996 L 5.58 72.68 C 7.505402 68.186737 8.495522 63.348412 8.490002 58.459999 L 8.490002 55.580002 C 8.490128 49.588226 11.688911 44.052307 16.880001 41.059998 C 18.116951 40.418518 18.655987 38.936188 18.119999 37.650002 C 17.756481 36.831451 17.569096 35.945633 17.57 35.050003 C 17.569992 33.285492 18.272305 31.593544 19.521877 30.347725 C 20.771446 29.101906 22.4655 28.404686 24.23 28.410004 C 24.751846 28.410583 25.271908 28.470978 25.779999 28.589996 C 27.917915 29.112396 29.658905 30.658691 30.43 32.720001 C 31.033314 34.287338 30.997406 36.028854 30.330002 37.57 C 29.780106 38.85907 30.316238 40.354141 31.560001 41 C 36.699436 43.722855 39.912491 49.063843 39.910004 54.880005 L 39.910004 58.5 C 39.902672 63.384354 40.889359 68.219109 42.809998 72.709999 L 44.809998 77.379997 L 44.809998 77.379997 C 44.809181 77.404625 44.802315 77.428665 44.790001 77.449997 Z"/>
    <path id="path2" fill="#000000" stroke="none" d="M 8.18 7.550003 C 13.048374 4.775482 18.577747 3.372398 24.18 3.489998 C 29.782249 3.372398 35.311623 4.775482 40.18 7.550003 C 40.414032 7.695473 40.684448 7.771744 40.959999 7.770004 C 41.626953 7.766373 42.211411 7.322807 42.394333 6.681412 C 42.577255 6.040024 42.314705 5.354889 41.75 5 C 36.408836 1.936752 30.33609 0.381409 24.18 0.5 C 18.024319 0.384918 11.952492 1.940025 6.610001 5 C 5.903076 5.43354 5.681456 6.358078 6.115002 7.065002 C 6.548542 7.771927 7.473076 7.993546 8.18 7.559998 Z"/>
    <path id="path3" fill="#000000" stroke="none" d="M 35.869999 14.260002 C 36.394577 14.265594 36.882374 13.991203 37.150002 13.540001 C 37.576149 12.834663 37.358086 11.917923 36.66 11.479996 C 32.865013 9.306625 28.552555 8.200867 24.18 8.279999 C 19.810764 8.202179 15.501869 9.307907 11.709999 11.479996 C 11.171906 11.716064 10.821198 12.244576 10.812771 12.832108 C 10.804344 13.419647 11.139744 13.958 11.670845 14.209404 C 12.201946 14.460808 12.830929 14.378952 13.279999 14 C 16.597187 12.111969 20.364021 11.158157 24.18 11.239998 C 27.999016 11.159348 31.768757 12.113007 35.09 14 C 35.319725 14.159599 35.590462 14.249847 35.869999 14.260002 Z"/>
    <path id="path4" fill="#000000" stroke="none" d="M 24.18 15.889999 C 21.49839 15.845764 18.855968 16.537491 16.540001 17.889999 C 15.846123 18.33062 15.636093 19.247604 16.069019 19.946312 C 16.501942 20.64502 17.41655 20.865173 18.119999 20.440002 C 19.960381 19.380234 22.056946 18.847443 24.18 18.900002 C 26.279488 18.853844 28.35247 19.375542 30.18 20.410004 C 30.638039 20.713379 31.225285 20.742081 31.71072 20.48481 C 32.196159 20.227539 32.50211 19.725464 32.508213 19.176102 C 32.514317 18.62674 32.219601 18.117996 31.740002 17.849998 C 29.443207 16.526016 26.83075 15.848717 24.18 15.889999 Z"/>
    <path id="path5" fill="#000000" stroke="none" d="M 24.18 32.639999 C 23.04361 32.645515 22.126339 33.570236 22.130013 34.706635 C 22.133682 35.843033 23.056915 36.761803 24.193317 36.759972 C 25.329716 36.758148 26.249985 35.836403 26.25 34.699997 C 26.250008 34.151917 26.031601 33.626427 25.643108 33.239815 C 25.25462 32.853195 24.728077 32.637344 24.18 32.639999 Z"/>
</svg>
