<?xml version="1.0" encoding="UTF-8"?>
<!-- Generated by Pixelmator Pro 3.4.3 -->
<svg width="60" height="97" viewBox="0 0 60 97" xmlns="http://www.w3.org/2000/svg">
    <g id="Group">
        <path id="Path" fill="#000000" stroke="none" d="M 6.653238 9.423424 C 6.299656 9.423424 5.960554 9.563889 5.710533 9.813911 C 5.460514 10.063927 5.320053 10.40303 5.320053 10.756615 L 5.320053 20.260757 C 5.320122 20.614319 5.460615 20.953377 5.710636 21.203362 L 14.595058 30.087784 L 14.595058 37.321358 C 14.595058 38.057655 15.191948 38.654541 15.928246 38.654541 C 16.664539 38.654541 17.261429 38.057655 17.261429 37.321358 L 17.261429 29.535767 C 17.26136 29.182205 17.120869 28.843155 16.87085 28.593163 L 7.986423 19.70874 L 7.986423 10.756615 C 7.986423 10.020317 7.389536 9.423431 6.653238 9.423424 Z"/>
        <path id="path1" fill="#000000" stroke="none" d="M 6.653238 0 C 3.331396 0 0.609644 2.721756 0.609644 6.043594 C 0.609644 9.36544 3.331396 12.087196 6.653238 12.087196 C 9.97508 12.087196 12.694229 9.36544 12.694229 6.043594 C 12.694229 2.721756 9.97508 0 6.653238 0 Z M 6.653238 2.666367 C 8.534069 2.666367 10.027861 4.162766 10.027861 6.043594 C 10.027861 7.924431 8.534069 9.420822 6.653238 9.420822 C 4.772408 9.420822 3.276011 7.924431 3.276011 6.043594 C 3.276011 4.162766 4.772408 2.666367 6.653238 2.666367 Z"/>
    </g>
    <g id="g1">
        <path id="path2" fill="#000000" stroke="none" d="M 53.876419 9.423424 C 53.140121 9.423431 52.543236 10.020317 52.543236 10.756615 L 52.543236 19.70874 L 43.656212 28.593163 C 43.406189 28.843155 43.265697 29.182205 43.265629 29.535767 L 43.265629 37.321358 C 43.265629 38.057655 43.862514 38.654541 44.598808 38.654541 C 45.335106 38.654541 45.931992 38.057655 45.931992 37.321358 L 45.931992 30.087784 L 54.819023 21.203362 C 55.069046 20.953377 55.209534 20.614319 55.209602 20.260757 L 55.209602 10.756615 C 55.209602 10.40303 55.069145 10.063927 54.819122 9.813911 C 54.569099 9.563889 54.230003 9.423424 53.876419 9.423424 Z"/>
        <path id="path3" fill="#000000" stroke="none" d="M 53.876419 0 C 50.554581 0 47.832825 2.721756 47.832825 6.043594 C 47.832825 9.36544 50.554581 12.087189 53.876419 12.087189 C 57.198265 12.087189 59.920013 9.36544 59.920013 6.043594 C 59.920013 2.721756 57.198265 0 53.876419 0 Z M 53.876419 2.666367 C 55.757248 2.666367 57.253647 4.162766 57.253647 6.043594 C 57.253647 7.924431 55.757248 9.420822 53.876419 9.420822 C 51.99559 9.420822 50.499191 7.924431 50.499191 6.043594 C 50.499191 4.162766 51.99559 2.666367 53.876419 2.666367 Z"/>
    </g>
    <path id="path4" fill="#000000" stroke="none" d="M 30.317795 13.206261 C 29.581497 13.206261 28.984612 13.803146 28.984612 14.539444 L 28.984612 30.727737 C 28.984612 31.464035 29.581497 32.060928 30.317795 32.060928 C 31.054092 32.060928 31.650982 31.464035 31.650982 30.727737 L 31.650982 14.539444 C 31.650982 13.803146 31.054092 13.206261 30.317795 13.206261 Z"/>
    <path id="path5" fill="#000000" stroke="none" d="M 30.317795 3.785439 C 26.995956 3.785439 24.2742 6.507195 24.2742 9.829033 C 24.2742 13.150879 26.995956 15.872635 30.317795 15.872627 C 33.639641 15.872627 36.361393 13.150879 36.361393 9.829033 C 36.361393 6.507195 33.639641 3.785439 30.317795 3.785439 Z M 30.317795 6.451805 C 32.198627 6.451805 33.695023 7.948204 33.695023 9.829033 C 33.695023 11.709862 32.198627 13.206261 30.317795 13.206261 C 28.436966 13.206261 26.940571 11.709862 26.940571 9.829033 C 26.940571 7.948204 28.436966 6.451805 30.317795 6.451805 Z"/>
    <path id="path6" fill="#000000" stroke="none" d="M 29.678341 29.57016 L 1.990061 45.552979 C 1.528278 45.819626 1.244051 46.312576 1.244642 46.845818 L 1.244642 78.820213 C 1.245096 79.352409 1.529182 79.844009 1.990061 80.11013 L 29.678341 96.092949 C 30.139618 96.359238 30.707905 96.359238 31.169182 96.092949 L 58.85746 80.11013 C 59.318336 79.844009 59.602425 79.352409 59.602882 78.820213 L 59.602882 46.845818 C 59.60347 46.312576 59.319244 45.819626 58.85746 45.552979 L 31.169182 29.57016 C 30.707905 29.303879 30.139618 29.303879 29.678341 29.57016 Z M 30.423759 32.583855 L 56.621208 47.704788 L 56.621208 77.958313 L 30.423759 93.079254 L 4.226316 77.958313 L 4.226316 47.704788 Z"/>
    <path id="path7" fill="#000000" stroke="none" d="M 29.675362 29.567245 L 1.987228 45.547165 C 1.525772 45.813461 1.241482 46.305756 1.241482 46.838547 C 1.241482 47.371323 1.525772 47.863617 1.987228 48.129921 L 29.672527 64.11274 C 30.133804 64.379028 30.702091 64.379028 31.163364 64.11274 L 58.860291 48.129921 C 59.321747 47.863617 59.606041 47.371323 59.606041 46.838547 C 59.606041 46.305756 59.321747 45.813461 58.860291 45.547165 L 31.163364 29.567245 C 30.702812 29.302055 30.135914 29.302055 29.675362 29.567245 Z M 30.42078 32.578041 L 55.133202 46.837082 L 30.42078 61.101952 L 5.714321 46.839989 Z"/>
    <path id="path8" fill="#000000" stroke="none" d="M 30.417946 61.331989 C 29.594582 61.331989 28.927109 61.999458 28.927109 62.822823 L 28.927109 93.57135 C 28.927109 93.966743 29.084179 94.345947 29.363766 94.625534 C 29.643353 94.905121 30.022552 95.062187 30.417946 95.062187 C 31.241314 95.062187 31.908783 94.394714 31.908783 93.57135 L 31.908783 62.822823 C 31.908783 61.999458 31.241314 61.331989 30.417946 61.331989 Z"/>
</svg>
