<?xml version="1.0" encoding="UTF-8"?>
<!-- Generated by Pixelmator Pro 3.4.3 -->
<svg width="2500" height="2500" viewBox="0 0 2500 2500" xmlns="http://www.w3.org/2000/svg">
    <path id="Path" fill="#000000" stroke="none" d="M 1458.329956 1554.169922 L 843.75 1554.169922 C 754.169922 1554.169922 702.080078 1609.375 702.080078 1688.544922 C 702.080078 1759.375 750 1809.375 818.749939 1809.375 C 898.955078 1809.375 944.794922 1754.169922 948.955017 1675 L 1127.080078 1675 C 1117.705078 1868.75 996.875 1971.875 816.669922 1971.875 C 647.919922 1971.875 521.875 1857.294922 521.875 1686.455078 C 521.875 1508.330078 654.169922 1384.375 853.125 1384.375 L 1461.455078 1384.375 C 1666.670044 1384.375 1822.920044 1233.330078 1822.920044 1030.205078 C 1822.920044 825 1683.330078 680.205078 1484.375 680.205078 C 1287.5 680.205078 1128.125 823.955078 1128.125 1089.580078 L 1128.125 1263.5448 L 947.919922 1263.5448 L 947.919922 1089.580078 C 947.919922 737.5 1173.955078 509.375 1487.500122 509.375 C 1786.455078 509.375 2004.169922 723.955078 2004.169922 1028.125 C 2006.25 1332.294922 1772.919922 1554.169922 1458.329956 1554.169922 Z M 1250 2500 C 1948.955078 2500 2500 1946.875 2500 1250 C 2500 553.125 1948.955078 0 1250 0 C 551.044922 0 0 555.205078 0 1250 C 0 1946.875 551.044922 2500 1250 2500 Z"/>
</svg>
