<?xml version="1.0" encoding="UTF-8"?>
<!-- Generated by Pixelmator Pro 3.4.3 -->
<svg width="267" height="278" viewBox="0 0 267 278" xmlns="http://www.w3.org/2000/svg">
    <g id="Group">
        <path id="Path" fill="#000000" stroke="none" d="M 143 3.466675 C 140.46666 4.933319 137.266663 7.600006 136.066666 9.066681 C 133.133331 12.666656 133 20.533325 135.666672 24.133331 C 138.866669 28.399994 138.066666 30 132.733337 30 C 129.266663 30 126.066666 31.333344 122.46666 34 C 119.666672 36.133331 113.266663 39.466675 108.199997 41.333344 C 98.600006 45.066681 93.666672 49.600006 93.666672 54.666672 C 93.666672 56.53334 91 59.733337 85.26667 64.399994 C 47.533333 94.933334 14.200001 148.399994 5.133335 192.933334 C 2.733334 204.266663 2.466667 219.333344 4.333332 228.666656 C 5.533333 234.533325 5.266666 236.399994 1.133335 258.666656 C -0.866665 269.733337 -0.333332 272.399994 3.933334 274.133331 C 7.266666 275.333344 17.666668 273.733337 25.133335 270.533325 C 29.133331 268.93335 30.066666 268.93335 33.933334 271.200012 C 45.533333 278 45.933334 278 149.266663 278 C 209.133331 278 246.733337 277.466675 248.200012 276.666656 C 251.666656 274.93335 255 265.866669 255 258.533325 C 255 246.800003 249.399994 239.333344 240.333344 239.333344 C 235.133331 239.333344 225.666656 236.933334 225.666656 235.733337 C 225.666656 235.199997 226.600006 233.733337 227.799988 232.399994 C 229.133331 231.066666 230.333344 226.933334 230.733337 223.333344 C 231.666656 213.333344 226.200012 198.133331 210.600006 167.333328 C 199.266663 144.933334 197.399994 140.133331 196.733337 132.933334 C 196.066666 125.733337 196.333328 124.133331 198.733337 121.600006 C 202.600006 117.46666 204.600006 111.600006 203.666672 107.199997 C 203.133331 104.800003 203.933334 101.066666 205.800003 96.666672 C 208.333328 90.800003 208.46666 89.199997 207.266663 84.933334 C 206.46666 82.266663 205.933334 80 206.066666 79.866669 C 206.199997 79.733337 217.800003 73.733337 231.666656 66.666672 C 245.666656 59.600006 258.066681 52.799988 259.533325 51.466675 C 265.266663 46.399994 267.266663 39.600006 266.733337 27.200012 C 266.333344 14.799988 264.733337 11.066681 257.533325 5.733337 C 248.200012 -1.200012 202.600006 -0.933319 180.600006 6.133331 C 176.866669 7.333344 175.266663 7.066681 169.399994 4.133331 C 160.46666 -0.266663 149.800003 -0.533325 143 3.466675 Z M 165.666672 9.333344 C 167.53334 10.266663 171.399994 12.933319 174.199997 15.200012 C 178.333328 18.533325 179.800003 19.066681 181.266663 17.733337 C 182.333328 16.933319 182.866669 15.466675 182.46666 14.533325 C 181.266663 11.333344 201.800003 7.333344 219.266663 7.333344 L 231 7.333344 L 231 10.799988 C 231 16.133331 237.666656 21.333344 249.666656 25.333344 L 260.333344 28.933319 L 260.333344 33.866669 C 260.333344 43.466675 256.733337 46.399994 228.466675 60.800003 C 214.333328 68.133331 201.666672 74 200.46666 74 C 197.800003 74 180.333328 66.800003 169 60.933334 C 161.133331 56.933334 153.53334 50.133331 146.333328 40.266663 C 141.933334 34.266663 142.733337 32.666656 148.066666 36.533325 C 153.133331 40 156.333328 40.133331 156.333328 36.799988 C 156.333328 35.200012 153.933334 32.399994 150.333328 29.866669 C 140.199997 22.533325 137.800003 16.399994 143.266663 11.333344 C 149 6.133331 157.800003 5.333344 165.666672 9.333344 Z M 135.266663 38.266663 C 136.333328 39.200012 139 42.399994 141 45.333344 C 151.266663 59.733337 159.133331 65.46666 180.866669 74.666672 C 189 78 196.600006 81.733337 197.933334 82.933334 C 200.866669 85.600006 201 89.733337 198.333328 94.800003 C 197.266663 96.933334 196.333328 102 196.333328 106.133331 C 196.333328 123.46666 185.133331 121.600006 146.333328 98 C 116.199997 79.600006 101.666672 65.866669 101.666672 55.866669 C 101.666672 52 102.199997 51.600006 111 48.133331 C 116.066666 46.133331 122.733337 42.666656 125.933334 40.533325 C 132.600006 36.133331 132.46666 36.133331 135.266663 38.266663 Z M 92.199997 72.399994 C 78.866669 87.600006 69.26667 116.800003 72.466667 133.066666 C 74.599998 144.800003 83.26667 151.333328 96.733337 151.333328 C 102.066666 151.333328 105.133331 150.53334 108.46666 148.266663 C 112.46666 145.600006 113 144.399994 113.399994 138.800003 L 113.800003 132.399994 L 118.066666 133.199997 C 129 135.46666 132.600006 135.600006 136.333328 134 C 141.666672 131.733337 142.600006 127.600006 139.800003 116.133331 C 137.666672 106.800003 137.133331 102 138.199997 102 C 138.600006 102 141.800003 103.866669 145.53334 106.133331 C 151.800003 110.133331 152.600006 111.199997 158.333328 124.800003 C 171.53334 156.133331 182.733337 195.199997 181 203.466675 C 180.066666 207.733337 174.199997 213.466675 169.53334 214.666656 C 166.600006 215.333344 165.666672 214.666656 162.46666 210 C 160.46666 206.933334 151.399994 196.800003 142.333328 187.333344 C 133.266663 177.866669 124.199997 167.333328 122.333328 164 C 118.733337 157.866669 115.53334 156.399994 114.199997 160 C 112.733337 163.600006 120.199997 173.733337 137.666672 192 C 147.133331 201.866669 156.46666 212.666656 158.46666 216 C 162.199997 222.399994 163.933334 223.066666 172.333328 220.666656 C 178.199997 219.066666 185.266663 212 187 206 C 189.666672 196.800003 182.600006 168.399994 169.399994 134.933334 C 165.800003 125.46666 163 117.600006 163.399994 117.199997 C 163.666672 116.933334 167.800003 118.399994 172.46666 120.666672 C 177.133331 122.800003 182.199997 124.666672 183.666672 124.666672 C 188.199997 124.666672 189.266663 126.399994 190.199997 134.933334 C 190.733337 139.46666 192.600006 150.53334 194.46666 159.600006 C 199 181.733337 199.933334 204.133331 197.133331 221.199997 C 195.933334 228.399994 194.600006 234.933334 194.199997 235.466675 C 193.800003 236.133331 191.666672 235.733337 189.399994 234.533325 C 185.933334 232.800003 182.866669 232.533325 172.866669 233.199997 C 155.53334 234.533325 151.666672 232.266663 143 215.600006 C 136.333328 202.933334 127.933334 194.666656 119 192.133331 C 110.066666 189.466675 86.599998 188.133331 75.666664 189.600006 C 69 190.533325 67.666664 191.066666 67.666664 193.199997 C 67.666664 195.600006 68.866669 195.866669 89.666664 196 C 121.933334 196.266663 125.666672 198.266663 139.133331 222.399994 C 144.600006 232.133331 146.066666 233.733337 152.46666 237.066666 C 159.266663 240.666656 160.199997 240.800003 172.333328 240 C 179.53334 239.600006 185.800003 239.733337 186.866669 240.399994 C 187.800003 241.199997 189 244.666656 189.266663 248.266663 C 190.066666 256.533325 186.333328 264.533325 179.800003 268.666656 C 175.266663 271.466675 174.199997 271.466675 132.733337 271.06665 L 90.333336 270.666656 L 83.26667 266.93335 C 73.666664 261.866669 67.26667 254.800003 61.800003 243.466675 C 59.26667 238.266663 56.333336 234 55.400002 234 C 51.933334 234 51.933334 238.399994 55.533333 245.866669 C 60.866669 256.799988 65.400002 262.93335 71.533333 267.333344 L 76.866669 271.333344 L 64.599998 271.333344 C 17.266666 271.333344 -2.733334 228.666656 17.933334 171.600006 C 31.800003 133.46666 58.333336 95.600006 90.066666 68.933334 C 97.399994 62.800003 98.733337 65.066666 92.199997 72.399994 Z M 111 83.199997 C 115.933334 87.46666 121.133331 91.600006 122.333328 92.266663 C 124.333328 93.46666 123.933334 94.399994 119.133331 100.800003 C 112.600006 109.46666 108.600006 119.46666 106.600006 132 C 105.800003 137.066666 104.46666 141.733337 103.800003 142.266663 C 101.266663 144 91 143.46666 87 141.333328 C 84.866669 140.266663 82.333336 138 81.533333 136.266663 C 77.533333 129.066666 81.400002 106.266663 89.133331 91.066666 C 92.066666 85.333328 99.666672 75.333328 101.266663 75.333328 C 101.53334 75.333328 105.933334 78.933334 111 83.199997 Z M 133.133331 126.933334 C 132.333328 127.733337 121.133331 126 119 124.666672 C 116.733337 123.333328 119 116.666672 124.600006 107.866669 L 128.733337 101.333328 L 131.266663 113.866669 C 132.600006 120.666672 133.53334 126.666672 133.133331 126.933334 Z M 220.333344 204.399994 C 225.666656 219.199997 225.666656 226 220.200012 230.533325 C 214.733337 235.199997 212.199997 234.933334 207.399994 228.933334 C 203.399994 224 203.399994 223.733337 204.600006 215.333344 C 205.800003 207.199997 205.266663 183.733337 203.666672 172 C 203.133331 167.46666 203.933334 168.666672 209.666672 180 C 213.266663 187.333344 218.066666 198.266663 220.333344 204.399994 Z M 213 240.666656 C 215.933334 240.666656 222.200012 241.866669 226.733337 243.333344 C 231.399994 244.800003 237.266663 246 239.666656 246 C 245.533325 246 248.333344 249.866669 248.333344 258.399994 C 248.333344 264.799988 246.600006 269.733337 243.799988 271.600006 C 242.066681 272.799988 188.333328 273.06665 188.333328 271.866669 C 188.333328 271.466675 189.399994 269.466675 190.733337 267.600006 C 193.933334 263.06665 196.333328 256 196.333328 251.333328 C 196.333328 249.333328 197.133331 245.600006 198.199997 243.199997 C 199.133331 240.666656 200.333328 237.466675 200.866669 236 C 201.800003 233.466675 202.066666 233.466675 204.866669 236.933334 C 207.133331 239.866669 208.866669 240.666656 213 240.666656 Z M 16.866665 256.799988 C 19.666668 260.533325 21.666668 263.733337 21.400002 264 C 20.200001 265.333344 8.333332 267.733337 7.533333 266.93335 C 7 266.399994 7.266666 263.733337 8.066666 260.799988 C 9 258 9.666668 254.399994 9.666668 252.800003 C 9.666668 248.533325 11.266666 249.333328 16.866665 256.799988 Z"/>
        <path id="path1" fill="#000000" stroke="none" d="M 195.133331 16.533325 C 194.066666 18.399994 194.199997 19.466675 195.800003 20.799988 C 197.399994 22.133331 198.333328 22 200.600006 19.733337 C 202.066666 18.133331 202.866669 16.266663 202.46666 15.466675 C 201 13.066681 196.600006 13.733337 195.133331 16.533325 Z"/>
        <path id="path2" fill="#000000" stroke="none" d="M 233 258 C 231.799988 263.333344 234.066681 266.133331 237 263.333344 C 238.066681 262.133331 239.133331 259.866669 239.266663 258 C 239.533325 255.466675 239 254.533325 236.733337 254.266663 C 234.466675 253.866669 233.666656 254.666672 233 258 Z"/>
    </g>
</svg>
