<?xml version="1.0" encoding="UTF-8"?>
<!-- Generated by Pixelmator Pro 3.4.3 -->
<svg width="34" height="60" viewBox="0 0 34 60" xmlns="http://www.w3.org/2000/svg">
    <g id="Group">
        <g id="g1">
            <g id="g2">
                <path id="Path" fill="#000000" fill-rule="evenodd" stroke="none" d="M 3.6523 30.5718 C 0.9843 39.028801 1.5943 46.8288 5.3593 52.066799 C 7.9103 55.617802 11.6543 57.687801 15.9823 57.9678 C 15.8043 52.778801 14.3373 46.020802 12.2193 40.7738 C 10.7563 37.1488 7.7573 31.198799 3.6523 30.5718 M 17.000299 60.000801 C 11.6593 60.000801 6.8243 57.533798 3.7353 53.233799 C -0.5187 47.3148 -1.1517 38.554798 1.9963 29.198799 C 2.1333 28.791801 2.5153 28.517799 2.9443 28.517799 C 12.2833 28.517799 18.000299 48.253799 18.000299 59.000801 C 18.000299 59.552799 17.552299 60.000801 17.000299 60.000801"/>
                <path id="path1" fill="#000000" fill-rule="evenodd" stroke="none" d="M 30.3477 30.5718 C 26.242701 31.198799 23.2437 37.1488 21.780701 40.7738 C 19.662701 46.020802 18.1957 52.778801 18.0177 57.9678 C 22.345699 57.687801 26.089701 55.617802 28.640699 52.066799 C 32.405701 46.8288 33.015701 39.028801 30.3477 30.5718 M 16.999701 60.000801 C 16.447701 60.000801 15.9997 59.552799 15.9997 59.000801 C 15.9997 48.253799 21.7167 28.517799 31.0557 28.517799 C 31.484699 28.517799 31.866699 28.791801 32.0037 29.198799 C 35.151699 38.554798 34.5187 47.3148 30.2647 53.233799 C 27.175699 57.533798 22.3407 60.000801 16.999701 60.000801"/>
                <path id="path2" fill="#000000" fill-rule="evenodd" stroke="none" d="M 25.257799 33.712898 C 24.788799 33.712898 24.3708 33.381901 24.2778 32.9049 C 23.000799 26.3829 20.0758 22.0009 16.9998 22.0009 C 13.9238 22.0009 10.9988 26.3829 9.7228 32.9049 C 9.6168 33.446899 9.0878 33.8009 8.5498 33.693901 C 8.0078 33.587898 7.6538 33.062901 7.7598 32.520901 C 9.2488 24.914902 12.8758 20.0009 16.9998 20.0009 C 21.1248 20.0009 24.751801 24.914902 26.239799 32.520901 C 26.3458 33.062901 25.9928 33.587898 25.4508 33.693901 C 25.385799 33.706902 25.320801 33.712898 25.257799 33.712898"/>
                <path id="path3" fill="#000000" fill-rule="evenodd" stroke="none" d="M 4.4082 8.881798 C 4.8132 9.915802 5.8542 11.820801 7.8292 13.267799 C 10.0042 14.861801 12.5922 15.3578 15.5382 14.754799 C 12.2282 8.910797 6.5882 8.7118 4.4082 8.881798 M 13.2002 17.001801 C 9.8682 17.001801 7.4712 15.644798 5.9092 14.2938 C 3.4092 12.129799 2.0572 9.060799 2.2242 7.898804 C 2.2782 7.523804 2.5402 7.2118 2.9002 7.091797 C 4.4292 6.5868 13.6892 5.8908 17.905199 14.9888 C 17.926201 15.032799 17.943199 15.0798 17.957199 15.126801 C 18.113199 15.656799 17.812201 16.220802 17.283199 16.376801 C 15.7912 16.816799 14.4322 17.001801 13.2002 17.001801"/>
                <path id="path4" fill="#000000" fill-rule="evenodd" stroke="none" d="M 16.996599 16.409203 C 16.847601 16.409203 16.6966 16.376198 16.5536 16.305199 L 10.6076 13.361198 C 10.1136 13.116199 9.9106 12.516201 10.1556 12.021202 C 10.4006 11.527199 11.0016 11.325199 11.4956 11.569199 L 17.441601 14.513199 C 17.9356 14.758202 18.138599 15.3582 17.8936 15.853203 C 17.719601 16.2052 17.364599 16.409203 16.996599 16.409203"/>
                <path id="path5" fill="#000000" fill-rule="evenodd" stroke="none" d="M 18.461399 7.914101 C 21.4074 8.518097 23.9944 8.021103 26.170401 6.428101 C 28.134399 4.990097 29.1744 3.098099 29.582399 2.039101 C 27.4114 1.868103 21.770399 2.072098 18.461399 7.914101 M 20.7994 10.162102 C 19.5674 10.162102 18.2094 9.976097 16.7174 9.536102 C 16.187401 9.380096 15.8844 8.825104 16.0404 8.295097 L 16.0434 8.287102 C 16.0574 8.239098 16.0744 8.1931 16.0954 8.148102 C 20.312401 -0.949898 29.569401 -0.253899 31.100401 0.252098 C 31.4604 0.371101 31.721399 0.684097 31.7754 1.059097 C 31.9424 2.2211 30.590401 5.289101 28.090401 7.453102 C 26.5294 8.8041 24.131399 10.162102 20.7994 10.162102"/>
                <path id="path6" fill="#000000" fill-rule="evenodd" stroke="none" d="M 17.003401 9.568901 C 16.634399 9.568901 16.280399 9.364899 16.1064 9.012901 C 15.8614 8.517899 16.0644 7.9179 16.558399 7.672897 L 22.5044 4.728897 C 22.999399 4.480896 23.5994 4.685898 23.8444 5.180901 C 24.089399 5.675903 23.8864 6.275902 23.392401 6.520897 L 17.4464 9.464897 C 17.3034 9.535904 17.152399 9.568901 17.003401 9.568901"/>
                <path id="path7" fill="#000000" fill-rule="evenodd" stroke="none" d="M 17 22.0005 C 16.448 22.0005 16 21.552498 16 21.0005 L 16 1.000504 C 16 0.448502 16.448 0.000504 17 0.000504 C 17.552 0.000504 18 0.448502 18 1.000504 L 18 21.0005 C 18 21.552498 17.552 22.0005 17 22.0005"/>
            </g>
        </g>
    </g>
</svg>
