<?xml version="1.0" encoding="UTF-8"?>
<!-- Generated by Pixelmator Pro 3.4.3 -->
<svg width="95" height="93" viewBox="0 0 95 93" xmlns="http://www.w3.org/2000/svg">
    <path id="Path" fill="#000000" stroke="none" d="M 22.93 40 C 33.937035 40 42.860001 31.077034 42.860001 20.07 C 42.860001 9.062958 33.937035 0.139999 22.93 0.139999 C 11.922964 0.139999 3 9.062958 3 20.07 C 3.011024 31.072464 11.927534 39.988976 22.93 40 Z M 22.93 4.149994 C 29.373993 4.149994 35.183281 8.032303 37.648354 13.98616 C 40.11343 19.940025 38.748692 26.792587 34.19067 31.347748 C 29.632648 35.902908 22.779232 37.263336 16.826921 34.794525 C 10.874609 32.325714 6.995955 26.513992 7 20.07 C 7.01103 11.27829 14.13829 4.155502 22.93 4.149994 Z"/>
    <path id="path1" fill="#000000" stroke="none" d="M 59 38 L 91 38 C 92.104568 38 93 37.104568 93 36 L 93 4 C 93 2.895432 92.104568 2 91 2 L 59 2 C 57.895432 2 57 2.895432 57 4 L 57 36 C 57 37.104568 57.895432 38 59 38 Z M 61 6 L 89 6 L 89 34 L 61 34 Z"/>
    <path id="path2" fill="#000000" stroke="none" d="M 74.93 52 C 66.80658 51.995956 59.48098 56.88681 56.370415 64.391098 C 53.25985 71.895386 54.977173 80.534576 60.721298 86.278702 C 66.465424 92.022827 75.104614 93.74015 82.608902 90.629585 C 90.11319 87.51902 95.004044 80.19342 95 72.07 C 94.983482 60.992493 86.007507 52.016518 74.93 52 Z M 74.93 88.150002 C 68.425339 88.154045 62.558922 84.238846 60.066887 78.230484 C 57.57486 72.222122 58.948128 65.304184 63.546188 60.703262 C 68.144249 56.102341 75.061325 54.72477 81.071236 57.213066 C 87.081146 59.701355 91 65.565338 91 72.07 C 90.994492 80.94455 83.80455 88.138969 74.93 88.150002 Z"/>
    <path id="path3" fill="#000000" stroke="none" d="M 24.709999 52.32 C 24.353516 51.698311 23.691643 51.314873 22.974998 51.314873 C 22.258354 51.314873 21.596485 51.698311 21.240002 52.32 L 1.219999 87 C 0.858147 87.626259 0.862617 88.399094 1.231689 89.021133 C 1.600763 89.643166 2.276926 90.017464 3 90 L 43 90 C 43.714165 89.999268 44.373749 89.617783 44.730515 88.999115 C 45.08728 88.380447 45.087082 87.618484 44.73 87 Z M 6.41 86 L 23 57.32 L 39.540001 86 Z"/>
</svg>
