<?xml version="1.0" encoding="UTF-8"?>
<!DOCTYPE svg PUBLIC "-//W3C//DTD SVG 1.1//EN" "http://www.w3.org/Graphics/SVG/1.1/DTD/svg11.dtd">
<svg xmlns="http://www.w3.org/2000/svg" xmlns:xlink="http://www.w3.org/1999/xlink" version="1.1" width="384px" height="261px" viewBox="-0.5 -0.5 384 261"><defs/><g><path d="M 239 125 Q 320 125 320 74" fill="none" stroke="rgb(240, 240, 240)" stroke-miterlimit="10" pointer-events="stroke"/><ellipse cx="320" cy="70" rx="4.00004" ry="4.00004" fill="rgb(240, 240, 240)" stroke="rgb(240, 240, 240)" pointer-events="all"/><path d="M 239 125 Q 340 125 340 155" fill="none" stroke="rgb(240, 240, 240)" stroke-miterlimit="10" pointer-events="stroke"/><ellipse cx="340" cy="160" rx="5.00005" ry="5.00005" fill="rgb(240, 240, 240)" stroke="rgb(240, 240, 240)" pointer-events="all"/><path d="M 199.5 150 Q 199.5 185 234.75 185 Q 270 185 270 215" fill="none" stroke="rgb(240, 240, 240)" stroke-miterlimit="10" pointer-events="stroke"/><ellipse cx="270" cy="220" rx="5.00005" ry="5.00005" fill="rgb(240, 240, 240)" stroke="rgb(240, 240, 240)" pointer-events="all"/><path d="M 160 125 Q 70 125 70 195" fill="none" stroke="rgb(240, 240, 240)" stroke-miterlimit="10" pointer-events="stroke"/><ellipse cx="70" cy="200" rx="5.00005" ry="5.00005" fill="rgb(240, 240, 240)" stroke="rgb(240, 240, 240)" pointer-events="all"/><path d="M 160 125 Q 160 125 75 125" fill="none" stroke="rgb(240, 240, 240)" stroke-miterlimit="10" pointer-events="stroke"/><ellipse cx="70" cy="125" rx="5.00005" ry="5.00005" fill="rgb(240, 240, 240)" stroke="rgb(240, 240, 240)" pointer-events="all"/><path d="M 160 125 Q 90 125 90 55" fill="none" stroke="rgb(240, 240, 240)" stroke-miterlimit="10" pointer-events="stroke"/><ellipse cx="90" cy="50" rx="5.00005" ry="5.00005" fill="rgb(240, 240, 240)" stroke="rgb(240, 240, 240)" pointer-events="all"/><path d="M 199.5 100 Q 199.5 100 199.5 35" fill="none" stroke="rgb(240, 240, 240)" stroke-miterlimit="10" pointer-events="stroke"/><ellipse cx="199.5" cy="30" rx="5.00005" ry="5.00005" fill="rgb(240, 240, 240)" stroke="rgb(240, 240, 240)" pointer-events="all"/><path d="M 199.5 150 Q 199.5 185 174.75 185 Q 150 185 150 215" fill="none" stroke="rgb(240, 240, 240)" stroke-miterlimit="10" pointer-events="stroke"/><ellipse cx="150" cy="220" rx="5.00005" ry="5.00005" fill="rgb(240, 240, 240)" stroke="rgb(240, 240, 240)" pointer-events="all"/><path d="M 165 112.5 L 167.5 106.25 Q 170 100 180 100 L 219 100 Q 229 100 232.72 109.29 L 235.86 117.14 Q 239 125 235.29 134.29 L 232.15 142.14 Q 229 150 219 150 L 180 150 Q 170 150 166.29 140.72 L 163.14 132.86 Q 160 125 162.5 118.75 Z" fill="none" stroke="rgb(240, 240, 240)" stroke-width="2" stroke-miterlimit="10" pointer-events="all"/><g fill="#000000" font-family="Space Grotesk" text-anchor="middle" font-size="14.000140000000002px"><text x="199" y="130.5">Protocol</text></g><rect x="290" y="40" width="60" height="30" fill="none" stroke="none" pointer-events="all"/><g fill="rgb(240, 240, 240)" font-family="Space Grotesk" text-anchor="middle" font-size="12.00012px"><text x="319.5" y="59.5">Routes</text></g><rect x="120" y="220" width="60" height="30" fill="none" stroke="none" pointer-events="all"/><g fill="rgb(240, 240, 240)" font-family="Space Grotesk" text-anchor="middle" font-size="12.00012px"><text x="149.5" y="239.5">Jobs</text></g><rect x="0" y="110" width="70" height="30" fill="none" stroke="none" pointer-events="all"/><g fill="rgb(240, 240, 240)" font-family="Space Grotesk" text-anchor="middle" font-size="12.00012px"><text x="34.5" y="129.5">Services</text></g><rect x="40" y="200" width="60" height="30" fill="none" stroke="none" pointer-events="all"/><g fill="rgb(240, 240, 240)" font-family="Space Grotesk" text-anchor="middle" font-size="12.00012px"><text x="69.5" y="219.5">Schema</text></g><rect x="60" y="20" width="60" height="30" fill="none" stroke="none" pointer-events="all"/><g fill="rgb(240, 240, 240)" font-family="Space Grotesk" text-anchor="middle" font-size="12.00012px"><text x="89.5" y="39.5">Config</text></g><rect x="169.5" y="0" width="60" height="30" fill="none" stroke="none" pointer-events="all"/><g fill="rgb(240, 240, 240)" font-family="Space Grotesk" text-anchor="middle" font-size="12.00012px"><text x="199" y="19.5">Seed</text></g><rect x="240" y="220" width="60" height="40" fill="none" stroke="none" pointer-events="all"/><g fill="rgb(240, 240, 240)" font-family="Space Grotesk" text-anchor="middle" font-size="12.00012px"><text x="269.5" y="237.5">Triggers</text></g><rect x="300" y="160" width="80" height="40" fill="none" stroke="none" pointer-events="all"/><g fill="rgb(240, 240, 240)" font-family="Space Grotesk" text-anchor="middle" font-size="12.00012px"><text x="339.5" y="177.5">Design System</text></g></g></svg>