<?xml version="1.0" encoding="UTF-8"?>
<!DOCTYPE svg PUBLIC "-//W3C//DTD SVG 1.1//EN" "http://www.w3.org/Graphics/SVG/1.1/DTD/svg11.dtd">
<svg xmlns="http://www.w3.org/2000/svg" xmlns:xlink="http://www.w3.org/1999/xlink" version="1.1" width="783px" height="354px" viewBox="-0.5 -0.5 783 354"><defs/><g><path d="M 285 71 Q 285 71 372.89 71" fill="none" stroke="rgb(0, 0, 0)" stroke-miterlimit="10" pointer-events="stroke"/><path d="M 379.89 71 L 372.89 74.5 L 372.89 67.5 Z" fill="rgb(0, 0, 0)" stroke="rgb(0, 0, 0)" stroke-miterlimit="10" pointer-events="all"/><rect x="195" y="51" width="90" height="40" rx="6" ry="6" fill="rgb(255, 255, 255)" stroke="rgb(0, 0, 0)" pointer-events="all"/><g fill="rgb(0, 0, 0)" font-family="Space Grotesk" text-anchor="middle" font-size="14.000140000000002px"><text x="239.5" y="76.5">Model A</text></g><path d="M 285 141 L 305 141 Q 315 141 319.58 132.11 L 346.43 79.89 Q 351 71 361 71 L 372.89 71" fill="none" stroke="rgb(0, 0, 0)" stroke-miterlimit="10" pointer-events="stroke"/><path d="M 379.89 71 L 372.89 74.5 L 372.89 67.5 Z" fill="rgb(0, 0, 0)" stroke="rgb(0, 0, 0)" stroke-miterlimit="10" pointer-events="all"/><path d="M 285 141 L 305 141 Q 315 141 319.58 149.89 L 346.43 202.11 Q 351 211 361 211 L 374.64 211" fill="none" stroke="rgb(0, 0, 0)" stroke-miterlimit="10" pointer-events="stroke"/><path d="M 379.89 211 L 372.89 214.5 L 374.64 211 L 372.89 207.5 Z" fill="rgb(0, 0, 0)" stroke="rgb(0, 0, 0)" stroke-miterlimit="10" pointer-events="all"/><rect x="195" y="121" width="90" height="40" rx="6" ry="6" fill="rgb(255, 255, 255)" stroke="rgb(0, 0, 0)" pointer-events="all"/><g fill="rgb(0, 0, 0)" font-family="Space Grotesk" text-anchor="middle" font-size="14.000140000000002px"><text x="239.5" y="146.5">Model B</text></g><path d="M 285 211 L 305 211 Q 315 211 317.99 220.55 L 348.02 316.46 Q 351 326 361 326 L 374.64 326" fill="none" stroke="rgb(0, 0, 0)" stroke-miterlimit="10" pointer-events="stroke"/><path d="M 379.89 326 L 372.89 329.5 L 374.64 326 L 372.89 322.5 Z" fill="rgb(0, 0, 0)" stroke="rgb(0, 0, 0)" stroke-miterlimit="10" pointer-events="all"/><rect x="195" y="191" width="90" height="40" rx="6" ry="6" fill="rgb(255, 255, 255)" stroke="rgb(0, 0, 0)" pointer-events="all"/><g fill="rgb(0, 0, 0)" font-family="Space Grotesk" text-anchor="middle" font-size="14.000140000000002px"><text x="239.5" y="216.5">Model C</text></g><path d="M 460 71 L 490.5 71 Q 500.5 71 500.5 61 L 500.5 36 Q 500.5 26 510.5 26 L 534.64 26" fill="none" stroke="rgb(0, 0, 0)" stroke-miterlimit="10" pointer-events="stroke"/><path d="M 539.89 26 L 532.89 29.5 L 534.64 26 L 532.89 22.5 Z" fill="rgb(0, 0, 0)" stroke="rgb(0, 0, 0)" stroke-miterlimit="10" pointer-events="all"/><path d="M 460 71 L 490.5 71 Q 500.5 71 500.5 81 L 500.5 106 Q 500.5 116 510.5 116 L 534.64 116" fill="none" stroke="rgb(0, 0, 0)" stroke-miterlimit="10" pointer-events="stroke"/><path d="M 539.89 116 L 532.89 119.5 L 534.64 116 L 532.89 112.5 Z" fill="rgb(0, 0, 0)" stroke="rgb(0, 0, 0)" stroke-miterlimit="10" pointer-events="all"/><path d="M 386 58.5 L 388.5 52.25 Q 391 46 401 46 L 440 46 Q 450 46 453.72 55.29 L 456.86 63.14 Q 460 71 456.29 80.29 L 453.15 88.14 Q 450 96 440 96 L 401 96 Q 391 96 387.29 86.72 L 384.15 78.86 Q 381 71 383.5 64.75 Z" fill="rgb(255, 255, 255)" stroke="#e76f51" stroke-width="2" stroke-miterlimit="10" pointer-events="all"/><g fill="#E76F51" font-family="Space Grotesk" text-anchor="middle" font-size="14.000140000000002px"><text x="420" y="68">Protocol </text><text x="420" y="85">⍺</text></g><path d="M 386 198.5 L 388.5 192.25 Q 391 186 401 186 L 440 186 Q 450 186 453.72 195.29 L 456.86 203.14 Q 460 211 456.29 220.29 L 453.15 228.14 Q 450 236 440 236 L 401 236 Q 391 236 387.29 226.72 L 384.15 218.86 Q 381 211 383.5 204.75 Z" fill="rgb(255, 255, 255)" stroke="#e76f51" stroke-width="2" stroke-miterlimit="10" pointer-events="all"/><g fill="#E76F51" font-family="Space Grotesk" text-anchor="middle" font-size="14.000140000000002px"><text x="420" y="208">Protocol </text><text x="420" y="225">β</text></g><path d="M 386 313.5 L 388.5 307.25 Q 391 301 401 301 L 440 301 Q 450 301 453.72 310.29 L 456.86 318.15 Q 460 326 456.29 335.29 L 453.15 343.15 Q 450 351 440 351 L 401 351 Q 391 351 387.29 341.72 L 384.15 333.86 Q 381 326 383.5 319.75 Z" fill="rgb(255, 255, 255)" stroke="#e76f51" stroke-width="2" stroke-miterlimit="10" pointer-events="all"/><g fill="#E76F51" font-family="Space Grotesk" text-anchor="middle" font-size="14.000140000000002px"><text x="420" y="323">Protocol </text><text x="420" y="340">𝛄</text></g><path d="M 80 141 L 127.5 141 Q 137.5 141 137.5 131 L 137.5 81 Q 137.5 71 147.5 71 L 188.63 71" fill="none" stroke="rgb(0, 0, 0)" stroke-miterlimit="10" pointer-events="stroke"/><path d="M 193.88 71 L 186.88 74.5 L 188.63 71 L 186.88 67.5 Z" fill="rgb(0, 0, 0)" stroke="rgb(0, 0, 0)" stroke-miterlimit="10" pointer-events="all"/><path d="M 80 141 L 188.63 141" fill="none" stroke="rgb(0, 0, 0)" stroke-miterlimit="10" pointer-events="stroke"/><path d="M 193.88 141 L 186.88 144.5 L 188.63 141 L 186.88 137.5 Z" fill="rgb(0, 0, 0)" stroke="rgb(0, 0, 0)" stroke-miterlimit="10" pointer-events="all"/><path d="M 80 141 L 127.5 141 Q 137.5 141 137.5 151 L 137.5 201 Q 137.5 211 147.5 211 L 188.63 211" fill="none" stroke="rgb(0, 0, 0)" stroke-miterlimit="10" pointer-events="stroke"/><path d="M 193.88 211 L 186.88 214.5 L 188.63 211 L 186.88 207.5 Z" fill="rgb(0, 0, 0)" stroke="rgb(0, 0, 0)" stroke-miterlimit="10" pointer-events="all"/><path d="M 6 128.5 L 8.5 122.25 Q 11 116 21 116 L 60 116 Q 70 116 73.71 125.29 L 76.86 133.14 Q 80 141 76.29 150.29 L 73.14 158.14 Q 70 166 60 166 L 21 166 Q 11 166 7.29 156.72 L 4.14 148.86 Q 1 141 3.5 134.75 Z" fill="rgb(255, 255, 255)" stroke="#e76f51" stroke-width="2" stroke-miterlimit="10" pointer-events="all"/><g fill="#E76F51" font-family="Space Grotesk" text-anchor="middle" font-size="14.000140000000002px"><text x="40" y="138">Protocol </text><text x="40" y="155">app</text></g><path d="M 631.01 26 L 694.64 26" fill="none" stroke="rgb(0, 0, 0)" stroke-miterlimit="10" pointer-events="stroke"/><path d="M 699.89 26 L 692.89 29.5 L 694.64 26 L 692.89 22.5 Z" fill="rgb(0, 0, 0)" stroke="rgb(0, 0, 0)" stroke-miterlimit="10" pointer-events="all"/><rect x="541.01" y="6" width="90" height="40" rx="6" ry="6" fill="rgb(255, 255, 255)" stroke="rgb(0, 0, 0)" pointer-events="all"/><g fill="rgb(0, 0, 0)" font-family="Space Grotesk" text-anchor="middle" font-size="14.000140000000002px"><text x="585.51" y="31.5">Model D</text></g><path d="M 631.01 116 L 694.64 116" fill="none" stroke="rgb(0, 0, 0)" stroke-miterlimit="10" pointer-events="stroke"/><path d="M 699.89 116 L 692.89 119.5 L 694.64 116 L 692.89 112.5 Z" fill="rgb(0, 0, 0)" stroke="rgb(0, 0, 0)" stroke-miterlimit="10" pointer-events="all"/><rect x="541.01" y="96" width="90" height="40" rx="6" ry="6" fill="rgb(255, 255, 255)" stroke="rgb(0, 0, 0)" pointer-events="all"/><g fill="rgb(0, 0, 0)" font-family="Space Grotesk" text-anchor="middle" font-size="14.000140000000002px"><text x="585.51" y="121.5">Model E</text></g><path d="M 706.01 103.5 L 708.51 97.25 Q 711.01 91 721.01 91 L 760.01 91 Q 770.01 91 773.72 100.29 L 776.86 108.14 Q 780.01 116 776.29 125.29 L 773.15 133.14 Q 770.01 141 760.01 141 L 721.01 141 Q 711.01 141 707.29 131.72 L 704.15 123.86 Q 701.01 116 703.51 109.75 Z" fill="rgb(255, 255, 255)" stroke="#e76f51" stroke-width="2" stroke-miterlimit="10" pointer-events="all"/><g fill="#E76F51" font-family="Space Grotesk" text-anchor="middle" font-size="14.000140000000002px"><text x="740.01" y="113">Protocol </text><text x="740.01" y="130">β</text></g><path d="M 706.01 13.5 L 708.51 7.25 Q 711.01 1 721.01 1 L 760.01 1 Q 770.01 1 773.72 10.28 L 776.86 18.14 Q 780.01 26 776.29 35.29 L 773.15 43.14 Q 770.01 51 760.01 51 L 721.01 51 Q 711.01 51 707.29 41.72 L 704.15 33.86 Q 701.01 26 703.51 19.75 Z" fill="rgb(255, 255, 255)" stroke="#e76f51" stroke-width="2" stroke-miterlimit="10" pointer-events="all"/><g fill="#E76F51" font-family="Space Grotesk" text-anchor="middle" font-size="14.000140000000002px"><text x="740.01" y="23">Protocol </text><text x="740.01" y="40">ε</text></g></g></svg>