<?xml version="1.0" encoding="UTF-8"?>
<!-- Generated by Pixelmator Pro 3.4.3 -->
<svg width="286" height="277" viewBox="0 0 286 277" xmlns="http://www.w3.org/2000/svg">
    <path id="Path" fill="#000000" stroke="#000000" d="M 189.400009 110 L 177.699997 105.399994 C 178.100006 104.399994 178.199997 103.399994 178.199997 102.300003 C 178.199997 99.099991 176.600006 96.399994 174.199997 94.699997 C 174.600006 93.800003 175.699997 92 179.100006 90.599991 C 179.600006 90.399994 179.900009 89.800003 179.699997 89.300003 C 179.5 88.800003 178.900009 88.5 178.400009 88.699997 C 174.600006 90.199997 173 92.399994 172.400009 93.699997 C 171.300003 93.300003 170.199997 93 169 93 C 167.800003 93 166.600006 93.199997 165.600006 93.699997 C 165 92.399994 163.5 90.199997 159.600006 88.699997 C 159.100006 88.5 158.5 88.699997 158.300003 89.300003 C 158.100006 89.899994 158.300003 90.399994 158.899994 90.599991 C 162.300003 92 163.5 93.800003 163.899994 94.699997 C 161.5 96.399994 159.899994 99.099991 159.899994 102.300003 C 159.899994 103.399994 160.100006 104.399994 160.399994 105.399994 L 148.600006 110 C 145.899994 111 144 113.300003 143.399994 116.199997 C 142.800003 119 143.699997 121.899994 145.699997 124 C 147.300003 125.599991 149.5 126.5 151.699997 126.5 C 151.699997 126.5 151.699997 126.5 151.699997 126.5 C 154.800003 126.5 157.5 124.899994 159.100006 122.300003 L 159.800003 121.199997 C 160.399994 129.399994 164.300003 135.5 169.100006 135.5 C 173.900009 135.5 177.800003 129.399994 178.400009 121.199997 L 179.100006 122.300003 C 180.600006 124.899994 183.400009 126.5 186.5 126.5 C 188.800003 126.5 190.900009 125.599991 192.5 124 C 194.5 122 195.400009 119.099991 194.800003 116.199997 C 194 113.300003 192.100006 111 189.400009 110 Z M 161.800003 102.300003 C 161.800003 98.300003 165 95.099991 169 95.099991 C 173 95.099991 176.199997 98.300003 176.199997 102.300003 C 176.199997 103.099991 176.100006 103.899994 175.800003 104.699997 L 172.800003 103.5 C 172.800003 103.5 172.800003 103.5 172.800003 103.5 L 169.400009 102.199997 C 169.400009 102.199997 169.400009 102.199997 169.300003 102.199997 C 169.199997 102.199997 169.199997 102.199997 169.100006 102.199997 C 169.100006 102.199997 169 102.199997 169 102.199997 C 169 102.199997 168.899994 102.199997 168.899994 102.199997 C 168.800003 102.199997 168.800003 102.199997 168.699997 102.199997 C 168.699997 102.199997 168.699997 102.199997 168.600006 102.199997 L 162.199997 104.699997 C 161.899994 103.899994 161.800003 103.099991 161.800003 102.300003 Z M 175.400009 125.899994 L 162.600006 125.899994 C 162.100006 124.199997 161.800003 122.300003 161.600006 120.300003 L 176.300003 120.300003 C 176.300003 122.300003 175.900009 124.199997 175.400009 125.899994 Z M 176.400009 117.800003 C 176.400009 118 176.400009 118.199997 176.400009 118.300003 L 161.600006 118.300003 C 161.600006 118.099991 161.600006 117.899994 161.600006 117.800003 L 164.600006 112.699997 L 173.5 112.699997 L 176.400009 117.800003 Z M 165.699997 110.699997 L 169 105.099991 L 172.300003 110.699997 L 165.699997 110.699997 Z M 157.300003 121.199997 C 156.100006 123.199997 154 124.399994 151.699997 124.399994 L 151.699997 124.399994 C 150 124.399994 148.300003 123.699997 147.100006 122.5 C 145.5 120.899994 144.899994 118.699997 145.399994 116.599991 C 145.899994 114.399994 147.399994 112.699997 149.399994 111.899994 L 166 105.399994 C 166 105.399994 166 105.399994 166 105.399994 L 166.699997 105.099991 L 157.300003 121.199997 Z M 169 133.300003 C 166.699997 133.300003 164.699997 131.199997 163.300003 127.899994 L 174.699997 127.899994 C 173.300003 131.199997 171.300003 133.300003 169 133.300003 Z M 190.900009 122.5 C 189.699997 123.699997 188 124.399994 186.300003 124.399994 C 184 124.399994 181.900009 123.199997 180.699997 121.199997 L 171.300003 105.099991 L 172 105.399994 C 172 105.399994 172 105.399994 172 105.399994 L 188.699997 111.899994 C 190.800003 112.699997 192.300003 114.5 192.699997 116.599991 C 193.100006 118.699997 192.5 120.899994 190.900009 122.5 Z"/>
    <path id="path1" fill="#000000" stroke="#000000" d="M 108.0196 163.212021 L 95.70182 165.72641 C 95.492645 164.669891 95.031876 163.776764 94.43277 162.854218 C 92.689926 160.170471 89.877525 158.777481 86.938828 158.658875 C 86.784126 157.686218 86.726311 155.577515 88.815292 152.551605 C 89.125702 152.111542 89.050522 151.444946 88.610474 151.134552 C 88.170418 150.824127 87.503822 150.899323 87.193413 151.339355 C 84.823418 154.666992 84.679756 157.383499 84.884583 158.800552 C 83.744194 159.064194 82.658264 159.411682 81.651855 160.065262 C 80.645454 160.718826 79.747978 161.540131 79.181625 162.504089 C 77.97039 161.740616 75.514183 160.712494 71.426407 161.578583 C 70.898148 161.683167 70.503868 162.177673 70.662918 162.789825 C 70.821968 163.401947 71.262024 163.712357 71.874153 163.553314 C 75.488129 162.875671 77.474884 163.73172 78.300522 164.268646 C 77.2136 167.001526 77.342255 170.13736 79.085098 172.821106 C 79.684204 173.743652 80.396576 174.473389 81.192818 175.148682 L 73.801842 185.433289 C 72.082069 187.742493 71.741264 190.706238 72.81752 193.465179 C 73.839302 196.140228 76.173561 198.082214 78.994644 198.754135 C 81.207939 199.224579 83.54319 198.781189 85.388268 197.582977 C 85.388268 197.582977 85.388268 197.582977 85.388268 197.582977 C 87.988144 195.894592 89.381134 193.082199 89.306946 190.030243 L 89.294907 188.72644 C 94.264153 195.276764 100.857262 198.268555 104.882881 195.654297 C 108.908501 193.040024 108.857018 185.800049 104.894188 178.596161 L 106.080353 179.137451 C 108.754425 180.501038 111.974121 180.317917 114.573997 178.629547 C 116.502945 177.376862 117.773979 175.478333 118.244431 173.26503 C 118.832489 170.498413 118.007843 167.57608 115.925186 165.470734 C 113.674797 163.474304 110.828651 162.58017 108.0196 163.212021 Z M 80.678574 171.786285 C 78.500015 168.43161 79.440918 164.00502 82.795601 161.826477 C 86.150284 159.647919 90.576874 160.588806 92.755432 163.943497 C 93.191139 164.614426 93.542984 165.339844 93.727097 166.174164 L 90.557518 166.801666 C 90.557518 166.801666 90.557518 166.801666 90.557518 166.801666 L 86.998009 167.563171 C 86.998009 167.563171 86.998009 167.563171 86.914139 167.617645 C 86.830269 167.672104 86.830269 167.672104 86.746407 167.726563 C 86.746407 167.726563 86.662537 167.781036 86.662537 167.781036 C 86.662537 167.781036 86.578667 167.835495 86.578667 167.835495 C 86.494804 167.889954 86.494804 167.889954 86.410934 167.944427 C 86.410934 167.944427 86.410934 167.944427 86.327072 167.998886 L 82.321175 173.581253 C 81.633865 173.0737 81.114281 172.45723 80.678574 171.786285 Z M 104.937973 184.171829 L 94.202995 191.143219 C 92.857773 189.989792 91.57135 188.559708 90.314339 186.991302 L 102.642799 178.985107 C 103.732079 180.662445 104.431427 182.47377 104.937973 184.171829 Z M 101.365067 176.833954 C 101.473999 177.001694 101.582924 177.169434 101.63739 177.253296 L 89.225067 185.31395 C 89.116135 185.14621 89.00721 184.978485 88.952744 184.894623 L 88.691101 178.98349 L 96.155266 174.1362 L 101.365067 176.833954 Z M 88.524361 176.707031 L 88.241989 170.213165 L 94.059586 173.112427 L 88.524361 176.707031 Z M 87.198235 190.088043 C 87.281105 192.418945 86.17347 194.569092 84.244522 195.821777 L 84.244522 195.821777 C 82.818787 196.74765 81.011795 197.086472 79.351822 196.733643 C 77.138527 196.263184 75.437119 194.744904 74.712715 192.711365 C 73.933846 190.593964 74.265961 188.351273 75.507591 186.591064 L 85.889374 172.098694 C 85.889374 172.098694 85.889374 172.098694 85.889374 172.098694 L 86.313049 171.465851 L 87.198235 190.088043 Z M 103.600815 193.863678 C 101.671867 195.116348 98.850784 194.444427 95.879341 192.439301 L 105.440186 186.230423 C 106.063354 189.760529 105.529755 192.611023 103.600815 193.863678 Z M 116.085594 172.878448 C 115.732758 174.538422 114.688263 176.051376 113.262527 176.977264 C 111.33358 178.229919 108.918808 178.367264 106.823128 177.343491 L 90.170929 168.96051 L 90.921394 168.830856 C 90.921394 168.830856 90.921394 168.830856 90.921394 168.830856 L 108.467346 165.186737 C 110.664268 164.713928 112.902618 165.406586 114.381828 166.949936 C 115.861038 168.493286 116.556046 170.665161 116.085594 172.878448 Z"/>
    <path id="path2" fill="#000000" stroke="#000000" d="M 159.653488 166.863937 L 158.326294 179.365479 C 157.255966 179.245453 156.265335 179.414642 155.204834 179.706818 C 152.119781 180.556747 149.941727 182.816406 148.940231 185.581741 C 147.966324 185.43515 145.938812 184.852753 143.686035 181.946716 C 143.360413 181.517792 142.702286 181.387939 142.273376 181.713562 C 141.844452 182.039185 141.714584 182.697296 142.040207 183.126221 C 144.495621 186.391327 147.04158 187.349533 148.454239 187.582703 C 148.360779 188.74942 148.363724 189.889587 148.682449 191.046494 C 149.001175 192.2034 149.512711 193.307175 150.260361 194.138458 C 149.166412 195.062195 147.443832 197.092651 147.033569 201.250977 C 146.973572 201.786133 147.325745 202.311462 147.957321 202.34491 C 148.588882 202.378357 149.017807 202.052734 149.051254 201.421173 C 149.49791 197.771454 150.914536 196.136459 151.675964 195.51178 C 153.952362 197.374054 156.980347 198.199448 160.065414 197.349518 C 161.1259 197.057343 162.036865 196.598938 162.921265 196.044098 L 170.490173 206.198486 C 172.171402 208.535889 174.893433 209.75676 177.848633 209.564957 C 180.707428 209.399719 183.264221 207.76178 184.757584 205.275848 C 185.875137 203.30835 186.158493 200.948334 185.574158 198.827347 C 185.574158 198.827347 185.574158 198.827347 185.574158 198.827347 C 184.750778 195.838684 182.491119 193.660645 179.55954 192.808685 L 178.313126 192.425995 C 186.059235 189.669586 190.904266 184.289459 189.629364 179.661865 C 188.354462 175.034271 181.437698 172.894562 173.372864 174.494064 L 174.247437 173.527039 C 176.355637 171.39035 177.15448 168.265945 176.3311 165.277283 C 175.720215 163.059906 174.294769 161.274384 172.327271 160.156815 C 169.867889 158.759857 166.833008 158.662445 164.196533 160.011139 C 161.613174 161.552673 159.900436 163.995316 159.653488 166.863937 Z M 159.56076 195.517761 C 155.704437 196.58017 151.76944 194.345062 150.707016 190.488724 C 149.644592 186.632401 151.879715 182.697388 155.736053 181.634979 C 156.507309 181.422485 157.305145 181.306427 158.156082 181.383163 L 157.796005 184.594131 C 157.796005 184.594131 157.796005 184.594131 157.796005 184.594131 L 157.445755 188.217285 C 157.445755 188.217285 157.445755 188.217285 157.472321 188.313705 C 157.498871 188.41011 157.498871 188.41011 157.525436 188.506531 C 157.525436 188.506531 157.552002 188.602936 157.552002 188.602936 C 157.552002 188.602936 157.578552 188.699341 157.578552 188.699341 C 157.605118 188.795746 157.605118 188.795746 157.631683 188.892151 C 157.631683 188.892151 157.631683 188.892151 157.658234 188.988556 L 161.768311 194.494675 C 161.076736 194.996384 160.332031 195.305267 159.56076 195.517761 Z M 178.700867 176.13797 L 182.100616 188.47821 C 180.594482 189.411774 178.842392 190.205658 176.967361 190.929688 L 173.062958 176.75769 C 174.991119 176.226471 176.929123 176.107452 178.700867 176.13797 Z M 170.62619 177.325287 C 170.819016 177.272156 171.011826 177.21904 171.108231 177.192474 L 175.0392 191.460892 C 174.846375 191.514008 174.653564 191.567139 174.557144 191.593689 L 168.843521 190.05603 L 166.47963 181.475708 L 170.62619 177.325287 Z M 166.623184 189.526764 L 160.347839 187.832672 L 164.870193 183.163818 L 166.623184 189.526764 Z M 178.977127 194.836182 C 181.22403 195.461884 182.93869 197.167725 183.549591 199.385117 L 183.549591 199.385117 C 184.001114 201.024048 183.777786 202.848907 182.939606 204.324539 C 181.822052 206.292038 179.860428 207.454819 177.703049 207.530548 C 175.44928 207.632843 173.411926 206.638245 172.109451 204.922577 L 161.433868 190.645233 C 161.433868 190.645233 161.433868 190.645233 161.433868 190.645233 L 160.958725 190.050064 L 178.977127 194.836182 Z M 187.534943 180.342621 C 188.145828 182.559998 186.652481 185.045929 183.84285 187.272156 L 180.814957 176.281616 C 184.368271 176.754822 186.924057 178.125229 187.534943 180.342621 Z M 171.306107 162.097748 C 172.781738 162.935913 173.908127 164.388947 174.35965 166.027878 C 174.970535 168.24527 174.371414 170.588562 172.761978 172.276672 L 159.736938 185.615295 L 159.84024 184.860748 C 159.84024 184.860748 159.84024 184.860748 159.84024 184.860748 L 161.671173 167.034149 C 161.884674 164.797089 163.221603 162.872879 165.139938 161.929474 C 167.058273 160.986084 169.338608 160.980194 171.306107 162.097748 Z"/>
    <path id="path3" fill="#000000" stroke="#000000" d="M 259.721344 113.152939 L 254.804916 101.582336 C 255.798645 101.167007 256.582153 100.537643 257.366974 99.766861 C 259.649994 97.524597 260.45517 94.49118 259.986359 91.587692 C 260.908722 91.242432 262.963715 90.765961 266.34494 92.210693 C 266.837982 92.427277 267.476257 92.220886 267.692841 91.727844 C 267.909424 91.234802 267.703064 90.596512 267.210022 90.379929 C 263.477142 88.719894 260.786438 89.119934 259.438507 89.602783 C 258.953125 88.537704 258.396362 87.542694 257.555511 86.686554 C 256.714691 85.830414 255.73114 85.114426 254.673706 84.751328 C 255.180771 83.412338 255.699295 80.800613 254.036713 76.967102 C 253.829041 76.47023 253.26593 76.182297 252.697708 76.460037 C 252.129501 76.737778 251.912918 77.23082 252.190659 77.799026 C 253.574234 81.20575 253.130875 83.323166 252.769058 84.239166 C 249.874496 83.718094 246.827057 84.468491 244.544022 86.710754 C 243.759216 87.481537 243.185913 88.324936 242.682678 89.23967 L 231.132462 84.044235 C 228.5271 82.818634 225.554825 83.074707 223.065399 84.67868 C 220.647324 86.212601 219.208954 88.886749 219.112137 91.785141 C 219.091751 94.047775 219.991196 96.248001 221.532761 97.817596 C 221.532761 97.817596 221.532761 97.817596 221.532761 97.817596 C 223.704941 100.029282 226.738373 100.834473 229.714478 100.154144 L 230.989761 99.882782 C 225.559906 106.056656 223.940628 113.113419 227.304031 116.537964 C 230.667419 119.962524 237.752213 118.470657 244.022919 113.152924 L 243.728622 114.423111 C 242.924713 117.315125 243.745178 120.433914 245.917374 122.645615 C 247.529007 124.286545 249.642593 125.154144 251.905243 125.17453 C 254.733551 125.200012 257.433197 123.810074 259.081757 121.349945 C 260.59021 118.747131 260.89978 115.779953 259.721344 113.152939 Z M 245.875366 88.066299 C 248.729156 85.263474 253.254456 85.304245 256.057281 88.158051 C 258.860107 91.011841 258.819336 95.53714 255.965546 98.339966 C 255.394791 98.900528 254.753952 99.389755 253.972992 99.736282 L 252.727005 96.755096 C 252.727005 96.755096 252.727005 96.755096 252.727005 96.755096 L 251.272079 93.418442 C 251.272079 93.418442 251.272079 93.418442 251.202011 93.347107 C 251.131943 93.275757 251.131943 93.275757 251.061874 93.204407 C 251.061874 93.204407 250.991791 93.133072 250.991791 93.133072 C 250.991791 93.133072 250.921722 93.061722 250.921722 93.061722 C 250.851654 92.990372 250.851654 92.990372 250.781586 92.919037 C 250.781586 92.919037 250.781586 92.919037 250.711517 92.847687 L 244.443359 90.033386 C 244.803909 89.258789 245.304596 88.626877 245.875366 88.066299 Z M 238.567596 114.305908 L 229.598541 105.173767 C 230.461044 103.625839 231.606384 102.08046 232.893143 100.536346 L 243.193542 111.024048 C 241.766647 112.425461 240.130814 113.471436 238.567596 114.305908 Z M 245.047241 109.343628 C 244.904541 109.483765 244.761856 109.623901 244.690506 109.693985 L 234.320038 99.134933 C 234.462723 98.994797 234.605423 98.85466 234.676758 98.784576 L 240.41748 97.351318 L 246.653763 103.701019 L 245.047241 109.343628 Z M 242.615143 96.734695 L 248.922791 95.165115 L 247.239822 101.443466 L 242.615143 96.734695 Z M 229.237991 98.099152 C 226.970245 98.64444 224.642624 97.987045 223.030991 96.346115 L 223.030991 96.346115 C 221.839798 95.13324 221.14801 93.429886 221.1633 91.732895 C 221.183685 89.470245 222.33284 87.500626 224.181442 86.385864 C 226.101379 85.201035 228.365311 85.080002 230.337479 85.946335 L 246.606644 93.234985 C 246.606644 93.234985 246.606644 93.234985 246.606644 93.234985 L 247.311172 93.524185 L 229.237991 98.099152 Z M 228.803543 114.925064 C 227.19191 113.284134 227.288742 110.385757 228.662125 107.074585 L 236.650192 115.207901 C 233.314819 116.521408 230.415176 116.565994 228.803543 114.925064 Z M 251.854279 122.981949 C 250.157288 122.96666 248.466675 122.244293 247.275467 121.031433 C 245.663849 119.390503 245.048508 117.051407 245.634552 114.793854 L 250.534424 96.806046 L 250.810883 97.515671 C 250.810883 97.515671 250.810883 97.515671 250.810883 97.515671 L 257.875275 113.984879 C 258.776001 116.043671 258.542847 118.375122 257.32489 120.131989 C 256.106934 121.888855 254.116928 123.00235 251.854279 122.981949 Z"/>
    <path id="path4" fill="#000000" stroke="#000000" d="M 119.400002 34 L 107.700005 29.399994 C 108.099998 28.399994 108.200005 27.399994 108.200005 26.300003 C 108.200005 23.099991 106.599998 20.399994 104.200005 18.699982 C 104.599998 17.799988 105.700005 16 109.099998 14.600006 C 109.599998 14.399994 109.900002 13.799988 109.700005 13.299988 C 109.5 12.799988 108.900002 12.5 108.400002 12.699982 C 104.599998 14.199982 103 16.399994 102.400002 17.699982 C 101.300003 17.299988 100.200005 17 99 17 C 97.800003 17 96.599998 17.199982 95.599998 17.699982 C 95 16.399994 93.5 14.199982 89.599998 12.699982 C 89.099998 12.5 88.5 12.699982 88.300003 13.299988 C 88.099998 13.899994 88.300003 14.399994 88.900002 14.600006 C 92.300003 16 93.5 17.799988 93.900002 18.699982 C 91.5 20.399994 89.900002 23.099991 89.900002 26.300003 C 89.900002 27.399994 90.099998 28.399994 90.400002 29.399994 L 78.599998 34 C 75.900002 35 74 37.300003 73.400002 40.199997 C 72.800003 43 73.699997 45.899994 75.699997 48 C 77.300003 49.599991 79.5 50.5 81.699997 50.5 C 81.699997 50.5 81.699997 50.5 81.699997 50.5 C 84.800003 50.5 87.5 48.899994 89.099998 46.300003 L 89.800003 45.199997 C 90.400002 53.399994 94.300003 59.5 99.099998 59.5 C 103.900002 59.5 107.800003 53.399994 108.400002 45.199997 L 109.099998 46.300003 C 110.599998 48.899994 113.400002 50.5 116.5 50.5 C 118.800003 50.5 120.900002 49.599991 122.5 48 C 124.5 46 125.400002 43.099991 124.800003 40.199997 C 124 37.300003 122.099998 35 119.400002 34 Z M 91.800003 26.300003 C 91.800003 22.300003 95 19.100006 99 19.100006 C 103 19.100006 106.200005 22.300003 106.200005 26.300003 C 106.200005 27.099991 106.099998 27.899994 105.800003 28.699997 L 102.800003 27.5 C 102.800003 27.5 102.800003 27.5 102.800003 27.5 L 99.400002 26.199997 C 99.400002 26.199997 99.400002 26.199997 99.300003 26.199997 C 99.200005 26.199997 99.200005 26.199997 99.099998 26.199997 C 99.099998 26.199997 99 26.199997 99 26.199997 C 99 26.199997 98.900002 26.199997 98.900002 26.199997 C 98.800003 26.199997 98.800003 26.199997 98.700005 26.199997 C 98.700005 26.199997 98.700005 26.199997 98.599998 26.199997 L 92.200005 28.699997 C 91.900002 27.899994 91.800003 27.099991 91.800003 26.300003 Z M 105.400002 49.899994 L 92.599998 49.899994 C 92.099998 48.199997 91.800003 46.300003 91.599998 44.300003 L 106.300003 44.300003 C 106.300003 46.300003 105.900002 48.199997 105.400002 49.899994 Z M 106.400002 41.800003 C 106.400002 42 106.400002 42.199997 106.400002 42.300003 L 91.599998 42.300003 C 91.599998 42.099991 91.599998 41.899994 91.599998 41.800003 L 94.599998 36.699997 L 103.5 36.699997 L 106.400002 41.800003 Z M 95.700005 34.699997 L 99 29.099991 L 102.300003 34.699997 L 95.700005 34.699997 Z M 87.300003 45.199997 C 86.099998 47.199997 84 48.399994 81.699997 48.399994 L 81.699997 48.399994 C 80 48.399994 78.300003 47.699997 77.099998 46.5 C 75.5 44.899994 74.900002 42.699997 75.400002 40.599991 C 75.900002 38.399994 77.400002 36.699997 79.400002 35.899994 L 96 29.399994 C 96 29.399994 96 29.399994 96 29.399994 L 96.700005 29.099991 L 87.300003 45.199997 Z M 99 57.300003 C 96.700005 57.300003 94.700005 55.199997 93.300003 51.899994 L 104.700005 51.899994 C 103.300003 55.199997 101.300003 57.300003 99 57.300003 Z M 120.900002 46.5 C 119.700005 47.699997 118 48.399994 116.300003 48.399994 C 114 48.399994 111.900002 47.199997 110.700005 45.199997 L 101.300003 29.099991 L 102 29.399994 C 102 29.399994 102 29.399994 102 29.399994 L 118.700005 35.899994 C 120.800003 36.699997 122.300003 38.5 122.700005 40.599991 C 123.099998 42.699997 122.5 44.899994 120.900002 46.5 Z"/>
    <path id="path5" fill="#000000" stroke="#000000" d="M 38.019604 87.212021 L 25.701818 89.72641 C 25.492645 88.669891 25.031876 87.776749 24.432772 86.854218 C 22.689926 84.170471 19.877527 82.777481 16.938831 82.658875 C 16.784124 81.686218 16.726313 79.577499 18.815296 76.55159 C 19.125704 76.111542 19.050526 75.444946 18.610472 75.134537 C 18.170418 74.824142 17.503822 74.899307 17.193413 75.339371 C 14.823421 78.667007 14.679758 81.383499 14.884585 82.800552 C 13.744193 83.064194 12.658263 83.411697 11.651858 84.065262 C 10.645453 84.718826 9.747975 85.540131 9.181624 86.504105 C 7.970394 85.740616 5.514179 84.712494 1.426406 85.578583 C 0.898144 85.683167 0.503868 86.177689 0.66292 86.789825 C 0.821969 87.401947 1.262022 87.712357 1.874151 87.553299 C 5.488126 86.875671 7.474883 87.73172 8.300523 88.268661 C 7.213603 91.001526 7.342253 94.13736 9.085098 96.821106 C 9.684202 97.743652 10.396577 98.473389 11.192816 99.148666 L 3.801843 109.433289 C 2.082071 111.742493 1.741266 114.706253 2.817518 117.465179 C 3.839304 120.140244 6.173562 122.082214 8.994644 122.754135 C 11.207939 123.224579 13.54319 122.781189 15.388265 121.582977 C 15.388265 121.582977 15.388265 121.582977 15.388265 121.582977 C 17.988144 119.894592 19.381132 117.082199 19.306944 114.030228 L 19.29491 112.726456 C 24.264153 119.276764 30.857265 122.268555 34.882885 119.654297 C 38.908504 117.040024 38.857021 109.800049 34.894184 102.596161 L 36.080353 103.137451 C 38.754421 104.501038 41.974125 104.317917 44.574001 102.629547 C 46.502941 101.376877 47.773975 99.478317 48.244427 97.26503 C 48.832489 94.498413 48.007839 91.576096 45.925186 89.470734 C 43.674793 87.474289 40.828651 86.58017 38.019604 87.212021 Z M 10.678573 95.786301 C 8.500016 92.43161 9.440917 88.00502 12.7956 85.826462 C 16.150282 83.647903 20.576874 84.588806 22.75543 87.943497 C 23.191141 88.614426 23.542984 89.339828 23.727095 90.174164 L 20.557516 90.801666 C 20.557516 90.801666 20.557516 90.801666 20.557516 90.801666 L 16.998007 91.563171 C 16.998007 91.563171 16.998007 91.563171 16.914139 91.617645 C 16.830273 91.672104 16.830273 91.672104 16.746403 91.726563 C 16.746403 91.726563 16.662539 91.781036 16.662539 91.781036 C 16.662539 91.781036 16.578671 91.835495 16.578671 91.835495 C 16.494802 91.889954 16.494802 91.889954 16.410938 91.944427 C 16.410938 91.944427 16.410938 91.944427 16.32707 91.998886 L 12.321177 97.581253 C 11.633863 97.0737 11.114283 96.45723 10.678573 95.786301 Z M 34.937977 108.171829 L 24.202991 115.143219 C 22.857771 113.989792 21.571352 112.559708 20.314342 110.991287 L 32.642799 102.985107 C 33.732075 104.662445 34.431423 106.47377 34.937977 108.171829 Z M 31.36507 100.833954 C 31.473997 101.001694 31.582926 101.169434 31.637388 101.253296 L 19.225063 109.31395 C 19.116135 109.146225 19.00721 108.978485 18.952744 108.894623 L 18.691097 102.983475 L 26.155266 98.1362 L 31.36507 100.833954 Z M 18.524357 100.707031 L 18.241989 94.213165 L 24.059582 97.112427 L 18.524357 100.707031 Z M 17.198233 114.088043 C 17.281107 116.418961 16.173466 118.569107 14.244524 119.821777 L 14.244524 119.821777 C 12.818784 120.747665 11.011797 121.086472 9.351825 120.733643 C 7.13853 120.263184 5.437121 118.744888 4.712713 116.711365 C 3.933844 114.593979 4.265963 112.351273 5.507594 110.591064 L 15.889372 96.098694 C 15.889372 96.098694 15.889372 96.098694 15.889372 96.098694 L 16.313047 95.465836 L 17.198233 114.088043 Z M 33.600811 117.863678 C 31.671869 119.116348 28.850786 118.444427 25.879339 116.439301 L 35.440186 110.230423 C 36.063354 113.760529 35.529751 116.611008 33.600811 117.863678 Z M 46.085598 96.878448 C 45.732758 98.538422 44.688267 100.051376 43.262524 100.977264 C 41.333584 102.229935 38.918808 102.367264 36.823124 101.343491 L 20.170931 92.960495 L 20.921394 92.830856 C 20.921394 92.830856 20.921394 92.830856 20.921394 92.830856 L 38.467346 89.186752 C 40.664265 88.713943 42.902622 89.406586 44.381832 90.949936 C 45.861042 92.493286 46.556046 94.665146 46.085598 96.878448 Z"/>
    <path id="path6" fill="#000000" stroke="#000000" d="M 76.321602 267.266357 L 88.052246 262.745056 C 88.43364 263.752289 89.036079 264.556702 89.779808 265.367188 C 91.943375 267.724915 94.947762 268.632477 97.865471 268.26236 C 98.179253 269.195923 98.585785 271.265869 97.027245 274.596191 C 96.794067 275.081604 96.978699 275.726532 97.464111 275.959686 C 97.949532 276.192871 98.594444 276.00824 98.827621 275.522827 C 100.613274 271.848389 100.304688 269.14566 99.867813 267.782166 C 100.94873 267.33313 101.962044 266.810455 102.846199 265.999115 C 103.730354 265.187775 104.479286 264.229065 104.878021 263.18457 C 106.199051 263.736725 108.791702 264.343506 112.679375 262.811859 C 113.182991 262.621155 113.489853 262.068115 113.231537 261.490814 C 112.973228 260.913513 112.487808 260.680328 111.910515 260.93866 C 108.458847 262.205933 106.357681 261.69104 105.45446 261.29837 C 106.073372 258.423126 105.426735 255.352005 103.263161 252.994263 C 102.519432 252.183792 101.695961 251.582214 100.798805 251.048248 L 106.382858 239.680832 C 107.696091 237.11853 107.540932 234.139267 106.022278 231.596893 C 104.571228 229.128204 101.94738 227.599991 99.053947 227.404953 C 96.793289 227.307877 94.563835 228.132202 92.942879 229.619659 C 92.942879 229.619659 92.942879 229.619659 92.942879 229.619659 C 90.658813 231.715622 89.751251 234.720001 90.330284 237.717468 L 90.55825 239.001221 C 84.572029 233.365158 77.574219 231.507568 74.037598 234.752914 C 70.500984 237.998276 71.751785 245.129578 76.853859 251.576965 L 75.594376 251.239777 C 72.731277 250.338287 69.586464 251.052536 67.302399 253.148499 C 65.607773 254.703552 64.669006 256.78653 64.571922 259.04718 C 64.450562 261.872986 65.748177 264.618225 68.150993 266.349243 C 70.701164 267.945068 73.656143 268.355072 76.321602 267.266357 Z M 101.863251 254.278885 C 104.567711 257.226074 104.373543 261.747375 101.426361 264.451843 C 98.479179 267.156311 93.957863 266.962128 91.253395 264.014954 C 90.712502 263.425507 90.245293 262.768463 89.925438 261.976196 L 92.947159 260.832001 C 92.947159 260.832001 92.947159 260.832001 92.947159 260.832001 L 96.331215 259.491028 C 96.331215 259.491028 96.331215 259.491028 96.4049 259.423431 C 96.478577 259.355804 96.478577 259.355804 96.552254 259.288208 C 96.552254 259.288208 96.625931 259.220581 96.625931 259.220581 C 96.625931 259.220581 96.699615 259.152985 96.699615 259.152985 C 96.773293 259.085358 96.773293 259.085358 96.84697 259.017761 C 96.84697 259.017761 96.84697 259.017761 96.920654 258.950134 L 99.945854 252.781021 C 100.707787 253.167618 101.322357 253.689453 101.863251 254.278885 Z M 75.886497 246.085678 L 85.317482 237.431396 C 86.835274 238.345901 88.340935 239.542969 89.840523 240.881348 L 79.009636 250.820251 C 77.657402 249.346649 76.667496 247.6763 75.886497 246.085678 Z M 80.626244 252.729843 C 80.49102 252.582489 80.355797 252.43512 80.288185 252.36145 L 91.192757 242.354935 C 91.32798 242.502289 91.463203 242.649658 91.530815 242.723328 L 92.768616 248.509338 L 86.211136 254.526764 L 80.626244 252.729843 Z M 93.310371 250.726654 L 94.665199 257.083893 L 88.447525 255.189011 L 93.310371 250.726654 Z M 92.400238 237.310928 C 91.932167 235.026001 92.668091 232.722 94.362724 231.166931 L 94.362724 231.166931 C 95.615273 230.017532 97.34111 229.383896 99.036606 229.456711 C 101.297264 229.553802 103.226791 230.769073 104.278244 232.654419 C 105.397293 234.613419 105.441498 236.880142 104.508804 238.821808 L 96.672752 254.834503 C 96.672752 254.834503 96.672752 254.834503 96.672752 254.834503 L 96.359825 255.528824 L 92.400238 237.310928 Z M 75.598732 236.306259 C 77.293365 234.75119 80.186798 234.946228 83.449493 236.431091 L 75.050026 244.138809 C 73.850357 240.760834 73.904106 237.861328 75.598732 236.306259 Z M 66.764961 259.070587 C 66.837776 257.375092 67.61705 255.70993 68.869606 254.560532 C 70.564232 253.005478 72.922844 252.469788 75.159225 253.132034 L 92.970573 258.638947 L 92.251976 258.891205 C 92.251976 258.891205 92.251976 258.891205 92.251976 258.891205 L 75.552742 265.393158 C 73.464577 266.223572 71.14238 265.911499 69.427818 264.634674 C 67.713257 263.357849 66.667877 261.331238 66.764961 259.070587 Z"/>
    <path id="path7" fill="#000000" stroke="#000000" d="M 164.321609 267.266357 L 176.052246 262.745056 C 176.43364 263.752289 177.036072 264.556702 177.7798 265.367188 C 179.943375 267.724915 182.947754 268.632477 185.865463 268.26236 C 186.179245 269.195923 186.585785 271.265869 185.027252 274.596191 C 184.794067 275.081604 184.978699 275.726532 185.464111 275.959686 C 185.949539 276.192871 186.594452 276.00824 186.827621 275.522827 C 188.613266 271.848389 188.304688 269.14566 187.867813 267.782166 C 188.94873 267.33313 189.962051 266.810455 190.846207 265.999115 C 191.730362 265.187775 192.479294 264.229065 192.878021 263.18457 C 194.199051 263.736725 196.791702 264.343506 200.679382 262.811859 C 201.182999 262.621155 201.489853 262.068115 201.231537 261.490814 C 200.973221 260.913513 200.487808 260.680328 199.910507 260.93866 C 196.458847 262.205933 194.357681 261.69104 193.454468 261.29837 C 194.073364 258.423126 193.426727 255.352005 191.263168 252.994263 C 190.51944 252.183792 189.695953 251.582214 188.798798 251.048248 L 194.382858 239.680832 C 195.696091 237.11853 195.540939 234.139267 194.022278 231.596893 C 192.571228 229.128204 189.947372 227.599991 187.05394 227.404953 C 184.793289 227.307877 182.563828 228.132202 180.942886 229.619659 C 180.942886 229.619659 180.942886 229.619659 180.942886 229.619659 C 178.658813 231.715622 177.751251 234.720001 178.330276 237.717468 L 178.558258 239.001221 C 172.572021 233.365158 165.574219 231.507568 162.037598 234.752914 C 158.500977 237.998276 159.751785 245.129578 164.853851 251.576965 L 163.594376 251.239777 C 160.731277 250.338287 157.586472 251.052536 155.302399 253.148499 C 153.607773 254.703552 152.669006 256.78653 152.571915 259.04718 C 152.450562 261.872986 153.748184 264.618225 156.150986 266.349243 C 158.701172 267.945068 161.656143 268.355072 164.321609 267.266357 Z M 189.863251 254.278885 C 192.567719 257.226074 192.373535 261.747375 189.426361 264.451843 C 186.479172 267.156311 181.957855 266.962128 179.253403 264.014954 C 178.712509 263.425507 178.245285 262.768463 177.92543 261.976196 L 180.947159 260.832001 C 180.947159 260.832001 180.947159 260.832001 180.947159 260.832001 L 184.331207 259.491028 C 184.331207 259.491028 184.331207 259.491028 184.404892 259.423431 C 184.478577 259.355804 184.478577 259.355804 184.552261 259.288208 C 184.552261 259.288208 184.625931 259.220581 184.625931 259.220581 C 184.625931 259.220581 184.699615 259.152985 184.699615 259.152985 C 184.7733 259.085358 184.7733 259.085358 184.84697 259.017761 C 184.84697 259.017761 184.84697 259.017761 184.920654 258.950134 L 187.945847 252.781021 C 188.707779 253.167618 189.322357 253.689453 189.863251 254.278885 Z M 163.886505 246.085678 L 173.317474 237.431396 C 174.835281 238.345901 176.340942 239.542969 177.84053 240.881348 L 167.009628 250.820251 C 165.65741 249.346649 164.667496 247.6763 163.886505 246.085678 Z M 168.626236 252.729843 C 168.491013 252.582489 168.355789 252.43512 168.288177 252.36145 L 179.192764 242.354935 C 179.327988 242.502289 179.463196 242.649658 179.530807 242.723328 L 180.768616 248.509338 L 174.211136 254.526764 L 168.626236 252.729843 Z M 181.310379 250.726654 L 182.665207 257.083893 L 176.447525 255.189011 L 181.310379 250.726654 Z M 180.400238 237.310928 C 179.932159 235.026001 180.668091 232.722 182.362717 231.166931 L 182.362717 231.166931 C 183.61528 230.017532 185.34111 229.383896 187.036606 229.456711 C 189.297256 229.553802 191.226791 230.769073 192.278244 232.654419 C 193.397293 234.613419 193.441498 236.880142 192.508804 238.821808 L 184.672745 254.834503 C 184.672745 254.834503 184.672745 254.834503 184.672745 254.834503 L 184.359833 255.528824 L 180.400238 237.310928 Z M 163.59874 236.306259 C 165.293365 234.75119 168.186798 234.946228 171.449493 236.431091 L 163.050018 244.138809 C 161.850357 240.760834 161.904099 237.861328 163.59874 236.306259 Z M 154.764969 259.070587 C 154.837784 257.375092 155.61705 255.70993 156.869598 254.560532 C 158.56424 253.005478 160.922836 252.469788 163.159225 253.132034 L 180.970566 258.638947 L 180.251984 258.891205 C 180.251984 258.891205 180.251984 258.891205 180.251984 258.891205 L 163.552734 265.393158 C 161.464584 266.223572 159.14238 265.911499 157.427811 264.634674 C 155.713257 263.357849 154.667877 261.331238 154.764969 259.070587 Z"/>
    <path id="path8" fill="#000000" stroke="#000000" d="M 38.019604 170.212021 L 25.701818 172.72641 C 25.492645 171.669891 25.031876 170.776764 24.432772 169.854218 C 22.689926 167.170471 19.877527 165.777481 16.938831 165.658875 C 16.784124 164.686218 16.726313 162.577515 18.815296 159.551605 C 19.125704 159.111542 19.050526 158.444946 18.610472 158.134552 C 18.170418 157.824127 17.503822 157.899323 17.193413 158.339355 C 14.823421 161.666992 14.679758 164.383499 14.884585 165.800552 C 13.744193 166.064194 12.658263 166.411682 11.651858 167.065262 C 10.645453 167.718826 9.747975 168.540131 9.181624 169.504089 C 7.970394 168.740616 5.514179 167.712494 1.426406 168.578583 C 0.898144 168.683167 0.503868 169.177673 0.66292 169.789825 C 0.821969 170.401947 1.262022 170.712357 1.874151 170.553314 C 5.488126 169.875671 7.474883 170.73172 8.300523 171.268646 C 7.213603 174.001526 7.342253 177.13736 9.085098 179.821106 C 9.684202 180.743652 10.396577 181.473389 11.192816 182.148682 L 3.801843 192.433289 C 2.082071 194.742493 1.741266 197.706238 2.817518 200.465179 C 3.839304 203.140228 6.173562 205.082214 8.994644 205.754135 C 11.207939 206.224579 13.54319 205.781189 15.388265 204.582977 C 15.388265 204.582977 15.388265 204.582977 15.388265 204.582977 C 17.988144 202.894592 19.381132 200.082199 19.306944 197.030243 L 19.29491 195.72644 C 24.264153 202.276764 30.857265 205.268555 34.882885 202.654297 C 38.908504 200.040024 38.857021 192.800049 34.894184 185.596161 L 36.080353 186.137451 C 38.754421 187.501038 41.974125 187.317917 44.574001 185.629547 C 46.502941 184.376862 47.773975 182.478333 48.244427 180.26503 C 48.832489 177.498413 48.007839 174.57608 45.925186 172.470734 C 43.674793 170.474304 40.828651 169.58017 38.019604 170.212021 Z M 10.678573 178.786285 C 8.500016 175.43161 9.440917 171.00502 12.7956 168.826477 C 16.150282 166.647919 20.576874 167.588806 22.75543 170.943497 C 23.191141 171.614426 23.542984 172.339844 23.727095 173.174164 L 20.557516 173.801666 C 20.557516 173.801666 20.557516 173.801666 20.557516 173.801666 L 16.998007 174.563171 C 16.998007 174.563171 16.998007 174.563171 16.914139 174.617645 C 16.830273 174.672104 16.830273 174.672104 16.746403 174.726563 C 16.746403 174.726563 16.662539 174.781036 16.662539 174.781036 C 16.662539 174.781036 16.578671 174.835495 16.578671 174.835495 C 16.494802 174.889954 16.494802 174.889954 16.410938 174.944427 C 16.410938 174.944427 16.410938 174.944427 16.32707 174.998886 L 12.321177 180.581253 C 11.633863 180.0737 11.114283 179.45723 10.678573 178.786285 Z M 34.937977 191.171829 L 24.202991 198.143219 C 22.857771 196.989792 21.571352 195.559708 20.314342 193.991302 L 32.642799 185.985107 C 33.732075 187.662445 34.431423 189.47377 34.937977 191.171829 Z M 31.36507 183.833954 C 31.473997 184.001694 31.582926 184.169434 31.637388 184.253296 L 19.225063 192.31395 C 19.116135 192.14621 19.00721 191.978485 18.952744 191.894623 L 18.691097 185.98349 L 26.155266 181.1362 L 31.36507 183.833954 Z M 18.524357 183.707031 L 18.241989 177.213165 L 24.059582 180.112427 L 18.524357 183.707031 Z M 17.198233 197.088043 C 17.281107 199.418945 16.173466 201.569092 14.244524 202.821777 L 14.244524 202.821777 C 12.818784 203.74765 11.011797 204.086472 9.351825 203.733643 C 7.13853 203.263184 5.437121 201.744904 4.712713 199.711365 C 3.933844 197.593964 4.265963 195.351273 5.507594 193.591064 L 15.889372 179.098694 C 15.889372 179.098694 15.889372 179.098694 15.889372 179.098694 L 16.313047 178.465851 L 17.198233 197.088043 Z M 33.600811 200.863678 C 31.671869 202.116348 28.850786 201.444427 25.879339 199.439301 L 35.440186 193.230423 C 36.063354 196.760529 35.529751 199.611023 33.600811 200.863678 Z M 46.085598 179.878448 C 45.732758 181.538422 44.688267 183.051376 43.262524 183.977264 C 41.333584 185.229919 38.918808 185.367264 36.823124 184.343491 L 20.170931 175.96051 L 20.921394 175.830856 C 20.921394 175.830856 20.921394 175.830856 20.921394 175.830856 L 38.467346 172.186737 C 40.664265 171.713928 42.902622 172.406586 44.381832 173.949936 C 45.861042 175.493286 46.556046 177.665161 46.085598 179.878448 Z"/>
    <path id="path9" fill="#000000" stroke="#000000" d="M 89.653496 90.863937 L 88.326294 103.365479 C 87.255974 103.245453 86.265327 103.414642 85.204842 103.706818 C 82.119774 104.556747 79.941727 106.816422 78.940231 109.581741 C 77.966324 109.43515 75.938805 108.852753 73.686035 105.946716 C 73.36042 105.517807 72.702286 105.387939 72.273369 105.713562 C 71.844452 106.039169 71.714584 106.697311 72.040199 107.126221 C 74.495621 110.391327 77.041573 111.349533 78.454239 111.582687 C 78.360779 112.74942 78.363716 113.889603 78.682442 115.046494 C 79.001167 116.2034 79.512711 117.307175 80.260353 118.138458 C 79.166412 119.06218 77.44384 121.092636 77.033577 125.250961 C 76.973564 125.786133 77.325745 126.311462 77.957314 126.34491 C 78.588882 126.378357 79.017807 126.05275 79.051254 125.421173 C 79.497917 121.771454 80.914543 120.136459 81.675964 119.51178 C 83.952362 121.374054 86.980347 122.199448 90.065407 121.349518 C 91.1259 121.057343 92.036865 120.598923 92.921265 120.044098 L 100.490181 130.198486 C 102.171394 132.535904 104.893433 133.75676 107.848633 133.564957 C 110.707428 133.399704 113.264221 131.76178 114.757584 129.275848 C 115.875145 127.30835 116.158485 124.948318 115.574158 122.827347 C 115.574158 122.827347 115.574158 122.827347 115.574158 122.827347 C 114.750778 119.838684 112.491119 117.660629 109.559532 116.808685 L 108.313118 116.425995 C 116.059227 113.669571 120.904266 108.289474 119.629364 103.66188 C 118.354462 99.034271 111.437706 96.894547 103.372864 98.494064 L 104.247437 97.527039 C 106.355637 95.39035 107.154472 92.265945 106.3311 89.277298 C 105.720207 87.059906 104.294762 85.274384 102.327263 84.156815 C 99.867889 82.759857 96.833008 82.662445 94.196533 84.011139 C 91.613182 85.552658 89.900444 87.995316 89.653496 90.863937 Z M 89.56076 119.517761 C 85.70443 120.580185 81.769432 118.345047 80.707016 114.488724 C 79.644592 110.632401 81.879723 106.697403 85.736046 105.634979 C 86.507317 105.422501 87.305145 105.306427 88.15609 105.383163 L 87.796005 108.594131 C 87.796005 108.594131 87.796005 108.594131 87.796005 108.594131 L 87.445755 112.2173 C 87.445755 112.2173 87.445755 112.2173 87.472313 112.313705 C 87.498878 112.41011 87.498878 112.41011 87.525436 112.506516 C 87.525436 112.506516 87.551994 112.602936 87.551994 112.602936 C 87.551994 112.602936 87.57856 112.699341 87.57856 112.699341 C 87.605118 112.795746 87.605118 112.795746 87.631676 112.892151 C 87.631676 112.892151 87.631676 112.892151 87.658241 112.988556 L 91.768318 118.494675 C 91.076736 118.996384 90.332024 119.305283 89.56076 119.517761 Z M 108.700867 100.13797 L 112.100609 112.47821 C 110.594475 113.411789 108.8424 114.205658 106.967354 114.929688 L 103.062965 100.757675 C 104.991127 100.226471 106.929123 100.107452 108.700867 100.13797 Z M 100.626198 101.325287 C 100.819016 101.272156 101.011833 101.21904 101.108238 101.192474 L 105.039192 115.460892 C 104.846375 115.514023 104.653564 115.567139 104.557152 115.593704 L 98.843521 114.05603 L 96.479637 105.475708 L 100.626198 101.325287 Z M 96.623192 113.526749 L 90.347832 111.832672 L 94.870201 107.163818 L 96.623192 113.526749 Z M 108.977135 118.836197 C 111.224022 119.461884 112.93869 121.167725 113.549583 123.385117 L 113.549583 123.385117 C 114.001114 125.024048 113.777786 126.848923 112.939613 128.324539 C 111.822052 130.292038 109.860428 131.454819 107.703056 131.530548 C 105.449272 131.632843 103.411926 130.638245 102.109451 128.922562 L 91.433876 114.645233 C 91.433876 114.645233 91.433876 114.645233 91.433876 114.645233 L 90.958725 114.050064 L 108.977135 118.836197 Z M 117.534943 104.342606 C 118.145836 106.559998 116.652473 109.045929 113.84285 111.272141 L 110.814957 100.281616 C 114.368271 100.754837 116.924049 102.125229 117.534943 104.342606 Z M 101.306107 86.097748 C 102.781738 86.935928 103.908119 88.388947 104.35965 90.027878 C 104.970543 92.24527 104.371414 94.588562 102.761978 96.276672 L 89.736938 109.61528 L 89.840248 108.860748 C 89.840248 108.860748 89.840248 108.860748 89.840248 108.860748 L 91.671173 91.034149 C 91.884666 88.797089 93.221611 86.872879 95.139938 85.929474 C 97.058266 84.986069 99.338615 84.980194 101.306107 86.097748 Z"/>
    <path id="path10" fill="#000000" stroke="#000000" d="M 189.721329 37.152939 L 184.804916 25.582336 C 185.798645 25.167007 186.582169 24.537643 187.366959 23.766861 C 189.649994 21.524597 190.45517 18.49118 189.986343 15.587708 C 190.908722 15.242432 192.963715 14.765961 196.344955 16.210693 C 196.837982 16.427277 197.476273 16.220886 197.692856 15.727844 C 197.909439 15.234802 197.703049 14.596527 197.210007 14.379944 C 193.477142 12.719879 190.786423 13.119934 189.438522 13.602783 C 188.95311 12.53772 188.396378 11.542694 187.555527 10.686554 C 186.714676 9.830414 185.73114 9.11441 184.673706 8.751312 C 185.180771 7.412354 185.699295 4.800598 184.036713 0.967102 C 183.829041 0.470245 183.26593 0.182312 182.697708 0.460052 C 182.129501 0.737762 181.912918 1.230804 182.190659 1.799042 C 183.574234 5.20575 183.130875 7.323151 182.769058 8.239166 C 179.874496 7.718109 176.827057 8.468475 174.544022 10.710754 C 173.759216 11.481537 173.185913 12.324921 172.682678 13.239685 L 161.132462 8.04422 C 158.5271 6.818634 155.554825 7.074707 153.065399 8.67868 C 150.647324 10.212585 149.208954 12.886749 149.112137 15.785126 C 149.091751 18.047791 149.991196 20.248016 151.532761 21.817596 C 151.532761 21.817596 151.532761 21.817596 151.532761 21.817596 C 153.704941 24.029282 156.738373 24.834473 159.714478 24.154144 L 160.989761 23.882782 C 155.559906 30.056656 153.940628 37.113419 157.304031 40.537964 C 160.667419 43.962524 167.752213 42.470657 174.022919 37.152924 L 173.728622 38.423111 C 172.924713 41.315125 173.745178 44.433914 175.917374 46.645615 C 177.529007 48.286545 179.642593 49.154144 181.905243 49.17453 C 184.733551 49.200012 187.433197 47.810074 189.081772 45.349945 C 190.59021 42.747131 190.899796 39.779953 189.721329 37.152939 Z M 175.875366 12.066315 C 178.729156 9.263489 183.254456 9.30426 186.057281 12.158051 C 188.860107 15.011841 188.819336 19.53714 185.965546 22.339966 C 185.394791 22.900528 184.753952 23.389755 183.972992 23.736282 L 182.727005 20.755096 C 182.727005 20.755096 182.727005 20.755096 182.727005 20.755096 L 181.272079 17.418457 C 181.272079 17.418457 181.272079 17.418457 181.202011 17.347107 C 181.131943 17.275757 181.131943 17.275757 181.061874 17.204407 C 181.061874 17.204407 180.991791 17.133057 180.991791 17.133057 C 180.991791 17.133057 180.921722 17.061737 180.921722 17.061737 C 180.851654 16.990387 180.851654 16.990387 180.781586 16.919037 C 180.781586 16.919037 180.781586 16.919037 180.711517 16.847687 L 174.443359 14.033386 C 174.803909 13.258789 175.304596 12.626862 175.875366 12.066315 Z M 168.567596 38.305908 L 159.598541 29.173767 C 160.461044 27.625839 161.606384 26.08046 162.893143 24.536346 L 173.193542 35.024048 C 171.766647 36.425461 170.130814 37.471436 168.567596 38.305908 Z M 175.047241 33.343628 C 174.904541 33.483765 174.761856 33.623901 174.690506 33.693985 L 164.320038 23.134933 C 164.462723 22.994797 164.605423 22.85466 164.676758 22.784576 L 170.41748 21.351318 L 176.653763 27.701019 L 175.047241 33.343628 Z M 172.615143 20.734711 L 178.922791 19.165131 L 177.239822 25.443466 L 172.615143 20.734711 Z M 159.237991 22.099152 C 156.970245 22.64444 154.642624 21.987045 153.030991 20.3461 L 153.030991 20.3461 C 151.839798 19.13324 151.14801 17.429901 151.1633 15.73291 C 151.183685 13.470245 152.33284 11.500641 154.181442 10.385864 C 156.101379 9.201019 158.365311 9.080017 160.337479 9.94632 L 176.606644 17.234985 C 176.606644 17.234985 176.606644 17.234985 176.606644 17.234985 L 177.311172 17.5242 L 159.237991 22.099152 Z M 158.803543 38.925064 C 157.19191 37.284134 157.288742 34.385757 158.662125 31.074585 L 166.650192 39.207901 C 163.314819 40.521408 160.415176 40.565994 158.803543 38.925064 Z M 181.854279 46.981949 C 180.157288 46.96666 178.466675 46.244293 177.275467 45.031433 C 175.663849 43.390503 175.048508 41.051407 175.634552 38.793854 L 180.534424 20.806061 L 180.810883 21.515671 C 180.810883 21.515671 180.810883 21.515671 180.810883 21.515671 L 187.875275 37.984879 C 188.776001 40.043671 188.542862 42.375122 187.324905 44.131989 C 186.106934 45.888855 184.116928 47.00235 181.854279 46.981949 Z"/>
    <path id="path11" fill="#000000" stroke="#000000" d="M 277.721344 188.152939 L 272.804901 176.582336 C 273.798645 176.167007 274.582153 175.537643 275.366974 174.766876 C 277.649994 172.524597 278.45517 169.49118 277.986359 166.587692 C 278.908722 166.242432 280.963715 165.765961 284.34494 167.210693 C 284.837982 167.427277 285.476257 167.220886 285.692841 166.727844 C 285.909424 166.234802 285.703064 165.596527 285.210022 165.379944 C 281.477142 163.719879 278.786438 164.119934 277.438507 164.602783 C 276.953125 163.537704 276.396362 162.542694 275.555511 161.686554 C 274.714691 160.830414 273.73114 160.11441 272.673706 159.751328 C 273.180756 158.412338 273.69928 155.800598 272.036713 151.967102 C 271.829041 151.47023 271.26593 151.182312 270.697723 151.460052 C 270.129517 151.737778 269.912933 152.23082 270.190674 152.799026 C 271.574249 156.20575 271.130859 158.323151 270.769043 159.239166 C 267.874481 158.718109 264.827057 159.468491 262.544006 161.710754 C 261.759216 162.481537 261.185913 163.324921 260.682678 164.23967 L 249.132462 159.04422 C 246.5271 157.818634 243.554825 158.074707 241.065399 159.67868 C 238.647324 161.212585 237.208954 163.886749 237.112137 166.785126 C 237.091751 169.047791 237.991196 171.248016 239.532761 172.817596 C 239.532761 172.817596 239.532761 172.817596 239.532761 172.817596 C 241.704941 175.029282 244.738373 175.834473 247.714478 175.154144 L 248.989761 174.882782 C 243.559906 181.056641 241.940628 188.113419 245.304031 191.537964 C 248.667419 194.962524 255.752213 193.470657 262.022919 188.152924 L 261.728638 189.423126 C 260.924713 192.315125 261.745178 195.433929 263.917358 197.645599 C 265.528992 199.286545 267.642578 200.154144 269.905243 200.17453 C 272.733551 200.200012 275.433197 198.810059 277.081757 196.349945 C 278.59021 193.747131 278.89978 190.779968 277.721344 188.152939 Z M 263.875366 163.066315 C 266.729156 160.263474 271.254456 160.304245 274.057281 163.158051 C 276.860107 166.011841 276.819336 170.53714 273.965546 173.339966 C 273.394775 173.900543 272.753967 174.389755 271.972992 174.736298 L 270.72699 171.755096 C 270.72699 171.755096 270.72699 171.755096 270.72699 171.755096 L 269.272095 168.418457 C 269.272095 168.418457 269.272095 168.418457 269.201996 168.347107 C 269.131927 168.275757 269.131927 168.275757 269.061859 168.204407 C 269.061859 168.204407 268.991791 168.133057 268.991791 168.133057 C 268.991791 168.133057 268.921722 168.061722 268.921722 168.061722 C 268.851654 167.990387 268.851654 167.990387 268.781586 167.919037 C 268.781586 167.919037 268.781586 167.919037 268.711517 167.847687 L 262.443359 165.033386 C 262.803925 164.258789 263.304596 163.626862 263.875366 163.066315 Z M 256.567596 189.305908 L 247.598541 180.173767 C 248.461044 178.625824 249.606384 177.080444 250.893143 175.536346 L 261.193542 186.024048 C 259.766632 187.425461 258.130798 188.471436 256.567596 189.305908 Z M 263.047241 184.343628 C 262.904541 184.483765 262.761841 184.623901 262.690521 184.69397 L 252.320038 174.134933 C 252.462723 173.994797 252.605423 173.854645 252.676758 173.784576 L 258.41748 172.351318 L 264.653778 178.701019 L 263.047241 184.343628 Z M 260.615143 171.734711 L 266.922791 170.165115 L 265.239807 176.443451 L 260.615143 171.734711 Z M 247.237991 173.099152 C 244.970245 173.64444 242.642624 172.987045 241.030991 171.3461 L 241.030991 171.3461 C 239.839798 170.13324 239.14801 168.429886 239.1633 166.73291 C 239.183685 164.470245 240.33284 162.500626 242.181442 161.385864 C 244.101379 160.201035 246.365311 160.080002 248.337479 160.946335 L 264.606628 168.234985 C 264.606628 168.234985 264.606628 168.234985 264.606628 168.234985 L 265.311157 168.524185 L 247.237991 173.099152 Z M 246.803543 189.925064 C 245.19191 188.284134 245.288742 185.385757 246.662125 182.074585 L 254.650192 190.207916 C 251.314819 191.521423 248.415176 191.56601 246.803543 189.925064 Z M 269.854279 197.981964 C 268.157288 197.966675 266.466675 197.244293 265.275482 196.031433 C 263.663849 194.390503 263.048492 192.051422 263.634552 189.793854 L 268.534424 171.806046 L 268.810883 172.515686 C 268.810883 172.515686 268.810883 172.515686 268.810883 172.515686 L 275.875275 188.984863 C 276.776001 191.043671 276.542847 193.375122 275.32489 195.131989 C 274.106934 196.888855 272.116943 198.00235 269.854279 197.981964 Z"/>
</svg>
