<?xml version="1.0" encoding="UTF-8"?>
<!-- Generated by Pixelmator Pro 3.4.3 -->
<svg width="133" height="78" viewBox="0 0 133 78" xmlns="http://www.w3.org/2000/svg">
    <path id="Ellipse" fill="none" stroke="#000000" stroke-width="70.765625" opacity="0.290647" d="M 41 39 C 41 37.343147 39.880711 36 38.5 36 C 37.119289 36 36 37.343147 36 39 C 36 40.656853 37.119289 42 38.5 42 C 39.880711 42 41 40.656853 41 39 Z"/>
    <g id="Group">
        <path id="Path" fill="#000000" stroke="none" d="M 52.27161 23.286701 L 40.371296 27.340405 C 40.030041 26.318867 39.4599 25.491257 38.748817 24.651993 C 36.68021 22.210503 33.714077 21.184803 30.784012 21.439213 C 30.507406 20.493977 30.183075 18.40955 31.872139 15.143505 C 32.124336 14.667694 31.965364 14.015984 31.489552 13.763786 C 31.013739 13.511597 30.362026 13.670563 30.109829 14.146378 C 28.18022 17.747295 28.381645 20.460125 28.764236 21.83984 C 27.666401 22.245743 26.633207 22.727932 25.717648 23.503662 C 24.80209 24.279388 24.015818 25.207706 23.576073 26.23563 C 22.277924 25.631641 19.711308 24.922775 15.766084 26.299442 C 15.255315 26.47007 14.926822 27.010525 15.162095 27.597595 C 15.397366 28.184662 15.873178 28.436859 16.460243 28.201584 C 19.959341 27.071842 22.038492 27.669453 22.92547 28.097542 C 22.193304 30.946041 22.717945 34.040348 24.786552 36.481838 C 25.497637 37.321102 26.296671 37.954777 27.171999 38.523811 L 21.142632 49.661438 C 19.729065 52.169792 19.766241 55.152843 21.183138 57.753307 C 22.535389 60.277473 25.096733 61.908279 27.980186 62.217625 C 30.235233 62.404064 32.495552 61.668568 34.174076 60.246399 C 34.174076 60.246399 34.174076 60.246399 34.174076 60.246399 C 36.539268 58.242439 37.564972 55.276306 37.104973 52.258293 L 36.927963 50.966522 C 42.68655 56.834976 49.605392 58.967949 53.267624 55.865036 C 56.929859 52.762127 55.962143 45.586926 51.119118 38.942745 L 52.364273 39.329502 C 55.189468 40.343555 58.360073 39.754265 60.725266 37.750301 C 62.480083 36.263493 63.500515 34.219296 63.686958 31.964252 C 63.92001 29.145443 62.732002 26.351044 60.399548 24.526314 C 57.914501 22.830864 54.978054 22.304283 52.27161 23.286701 Z M 26.236185 35.253601 C 23.650427 32.20174 24.02331 27.691647 27.075171 25.105888 C 30.127031 22.52013 34.637127 22.893009 37.222885 25.94487 C 37.740036 26.555244 38.180893 27.230263 38.469154 28.034565 L 35.40453 29.058327 C 35.40453 29.058327 35.40453 29.058327 35.40453 29.058327 L 31.970079 30.264366 C 31.970079 30.264366 31.970079 30.264366 31.893782 30.32901 C 31.817486 30.393654 31.817486 30.393654 31.741188 30.458298 C 31.741188 30.458298 31.664892 30.522942 31.664892 30.522942 C 31.664892 30.522942 31.588596 30.587585 31.588596 30.587585 C 31.512299 30.652229 31.512299 30.652229 31.436003 30.716873 C 31.436003 30.716873 31.436003 30.716873 31.359707 30.781517 L 28.092829 36.826145 C 27.346786 36.409706 26.753336 35.863976 26.236185 35.253601 Z M 51.868488 44.468002 L 42.102535 52.742432 C 40.622105 51.768608 39.164978 50.512909 37.719505 49.116264 L 48.935093 39.613602 C 50.227974 41.139534 51.151024 42.84774 51.868488 44.468002 Z M 47.395294 37.641544 C 47.524582 37.794136 47.65387 37.946732 47.718513 38.023026 L 36.426628 47.590332 C 36.297337 47.437737 36.168053 47.285149 36.103409 47.208851 L 35.095463 41.37841 L 41.885853 35.625099 L 47.395294 37.641544 Z M 34.641846 39.141396 L 33.539566 32.735538 L 39.677414 34.874897 L 34.641846 39.141396 Z M 35.02055 52.582626 C 35.397873 54.884281 34.571373 57.157364 32.816555 58.644173 L 32.816555 58.644173 C 31.519514 59.743122 29.769964 60.307991 28.078678 60.168159 C 25.823631 59.98172 23.943686 58.691063 22.967642 56.765614 C 21.92696 54.76387 21.97246 52.497169 22.981239 50.593922 L 31.444605 34.903751 C 31.444605 34.903751 31.444605 34.903751 31.444605 34.903751 L 31.784746 34.222351 L 35.02055 52.582626 Z M 51.769161 54.25116 C 50.014343 55.737968 47.13089 55.428619 43.929489 53.815853 L 52.627293 46.446442 C 53.69239 49.86924 53.523983 52.764347 51.769161 54.25116 Z M 61.496555 31.854107 C 61.356724 33.545395 60.512192 35.178417 59.215149 36.277367 C 57.460331 37.764175 55.082375 38.206139 52.87394 37.455936 L 35.294384 31.24873 L 36.022396 31.025112 C 36.022396 31.025112 36.022396 31.025112 36.022396 31.025112 L 52.965771 25.188843 C 55.085148 24.441692 57.393188 24.845371 59.055897 26.189018 C 60.718605 27.532673 61.682995 29.59906 61.496555 31.854107 Z"/>
    </g>
    <g id="Group-copy">
        <path id="path1" fill="#000000" stroke="none" d="M 129.90535 47.892536 L 120.398788 39.666046 C 121.108353 38.855789 121.534966 37.945847 121.900497 36.908352 C 122.963852 33.890194 122.351974 30.811947 120.653267 28.41103 C 121.329605 27.695099 122.965233 26.362911 126.637245 26.172279 C 127.175285 26.149796 127.657623 25.683582 127.635132 25.145535 C 127.612648 24.607491 127.146439 24.125156 126.608391 24.147636 C 122.525879 24.299664 120.285744 25.842976 119.287849 26.86972 C 118.383278 26.126926 117.445473 25.478443 116.313667 25.079685 C 115.181854 24.680927 113.983589 24.470802 112.874268 24.610092 C 112.740349 23.184589 112.056641 20.611156 108.876709 17.900433 C 108.471581 17.54565 107.839218 17.534904 107.451202 18.034355 C 107.063187 18.533798 107.085678 19.071842 107.585121 19.459854 C 110.326698 21.910114 110.860367 24.006588 110.938568 24.988361 C 108.110046 25.794243 105.703758 27.809135 104.640404 30.827293 C 104.274879 31.864788 104.131218 32.874424 104.081871 33.917286 L 91.423843 34.334766 C 88.544968 34.380737 85.988655 35.918671 84.459084 38.454498 C 82.962746 40.896008 82.847939 43.930283 84.036461 46.575546 C 85.013863 48.616299 86.789772 50.196213 88.864761 50.927269 C 88.864761 50.927269 88.864761 50.927269 88.864761 50.927269 C 91.788597 51.957394 94.866844 51.34552 97.239906 49.424942 L 98.265648 48.620064 C 96.106712 56.553471 97.758072 63.602795 102.285309 65.19783 C 106.812546 66.792862 112.517944 62.335461 115.808693 54.800808 L 116.103386 56.070908 C 116.654175 59.02161 118.76339 61.461121 121.687225 62.491249 C 123.856529 63.255531 126.136269 63.1045 128.177017 62.127102 C 130.727966 60.90535 132.540482 58.469208 132.938248 55.534626 C 133.147369 52.533581 132.119629 49.732914 129.90535 47.892536 Z M 106.432434 31.45866 C 107.761627 27.685963 111.84314 25.731159 115.615837 27.060352 C 119.388535 28.389545 121.343346 32.471058 120.014153 36.243755 C 119.748314 36.998295 119.388153 37.719604 118.839363 38.374454 L 116.4086 36.24575 C 116.4086 36.24575 116.4086 36.24575 116.4086 36.24575 L 113.633797 33.889812 C 113.633797 33.889812 113.633797 33.889812 113.539474 33.856583 C 113.44516 33.823353 113.44516 33.823353 113.350838 33.790123 C 113.350838 33.790123 113.256523 33.756893 113.256523 33.756893 C 113.256523 33.756893 113.162201 33.723663 113.162201 33.723663 C 113.067886 33.690434 113.067886 33.690434 112.973572 33.657204 C 112.973572 33.657204 112.973572 33.657204 112.87925 33.623974 L 106.012192 33.855202 C 105.995079 33.000973 106.166595 32.2132 106.432434 31.45866 Z M 111.417374 58.236832 L 99.344742 53.983418 C 99.438057 52.213871 99.786476 50.322147 100.262436 48.369339 L 114.127098 53.254124 C 113.462502 55.140472 112.453865 56.799583 111.417374 58.236832 Z M 115.052162 50.92942 C 114.985703 51.118053 114.919243 51.306686 114.886017 51.401005 L 100.927032 46.48299 C 100.993492 46.294357 101.059952 46.105724 101.093178 46.011406 L 105.617424 42.198112 L 114.011673 45.155563 L 115.052162 50.92942 Z M 107.319511 40.677292 L 112.292862 36.492096 L 113.544464 42.870457 L 107.319511 40.677292 Z M 95.907715 47.789314 C 94.111313 49.276909 91.731888 49.710892 89.562584 48.946602 L 89.562584 48.946602 C 87.95919 48.381699 86.588402 47.15657 85.855347 45.625999 C 84.877945 43.585247 85.043098 41.310883 86.212517 39.496365 C 87.415154 37.587532 89.394821 36.482582 91.547012 36.392639 L 109.363647 35.778156 C 109.363647 35.778156 109.363647 35.778156 109.363647 35.778156 L 110.123558 35.72781 L 95.907715 47.789314 Z M 102.92205 63.089615 C 100.752747 62.325329 99.564224 59.680069 99.340363 56.102371 L 110.092552 59.890572 C 107.675522 62.53783 105.091347 63.853897 102.92205 63.089615 Z M 127.166389 60.180664 C 125.635818 60.913712 123.799812 61.009029 122.196419 60.444122 C 120.027115 59.679836 118.445213 57.850201 117.977997 55.565094 L 114.462158 37.256382 L 115.02269 37.771946 C 115.02269 37.771946 115.02269 37.771946 115.02269 37.771946 L 128.61377 49.451958 C 130.328598 50.904324 131.145218 53.100487 130.824661 55.214069 C 130.504105 57.327656 129.207138 59.203262 127.166389 60.180664 Z"/>
    </g>
</svg>
