<?xml version="1.0" encoding="UTF-8"?>
<!-- Generated by Pixelmator Pro 3.4.3 -->
<svg width="48" height="48" viewBox="0 0 48 48" xmlns="http://www.w3.org/2000/svg">
    <g id="Group">
        <path id="Path" fill="#faf3dd" stroke="#4d4d4d" stroke-width="1.09" stroke-linecap="round" stroke-linejoin="round" d="M 6.18169 39.227001 C 6.18169 40.65028 4.984692 42.5574 6.18169 42.5574 C 7.378689 42.5574 10.76355 41.438171 10.76355 40.014881 C 10.76355 38.591591 9.403641 36.290379 8.206612 36.290379 C 7.009579 36.290379 6.18169 37.803749 6.18169 39.227001 Z"/>
        <path id="path1" fill="#faf3dd" stroke="#4d4d4d" stroke-linecap="round" stroke-linejoin="round" d="M 30.36673 34.742599 C 32.777458 34.742512 35.69009 38.731159 39.259109 38.541439 C 39.723843 38.544487 40.140099 38.829632 40.31081 39.26189 C 40.77425 40.265465 40.764343 41.423756 40.28381 42.419258 C 40.089088 42.849731 39.660583 43.12653 39.188118 43.127041 L 29.95212 43.127041 C 29.502609 43.126781 29.091673 42.873047 28.890079 42.471275 C 28.688486 42.069504 28.730705 41.58839 28.999189 41.227871 C 30.211861 39.580761 30.366739 34.74263 30.36673 34.742599 Z"/>
        <path id="path2" fill="#faf3dd" stroke="#4d4d4d" stroke-linecap="round" stroke-linejoin="round" d="M 30.78513 22.178249 C 30.93968 21.322651 37.939419 33.639759 37.243881 36.04847 C 36.93951 37.23048 35.787689 37.988449 34.581699 37.800339 C 33.555439 35.512341 30.06138 34.008839 28.34798 31.00172 Z"/>
        <path id="path3" fill="#faf3dd" stroke="#4d4d4d" stroke-linecap="round" stroke-linejoin="round" d="M 9.782471 23.03763 C 13.154144 17.072287 18.272348 12.283012 24.448191 9.31443 C 24.44031 9.3181 24.433359 9.317719 24.42548 9.321541 C 27.92024 5.72654 33.30648 4.674408 38.229191 4.975021 C 38.80542 5.000019 39.381649 5.050171 39.945259 5.125328 C 40.115005 5.149555 40.282558 5.187237 40.446331 5.238022 C 40.922024 5.385273 41.344345 5.668274 41.661411 6.05225 C 42.108009 6.551506 42.353489 7.198704 42.35033 7.868549 L 42.35033 9.271461 C 42.33902 9.501511 42.296871 9.729004 42.225021 9.947838 C 41.891758 10.890007 41.178238 11.648964 40.258411 12.03968 C 37.52536 13.100319 35.116409 14.98214 33.31493 15.354622 C 32.763828 17.030651 32.432571 18.771116 32.329449 20.53241 C 32.095959 24.67021 33.285042 26.733459 33.582062 30.553289 C 33.743275 32.704342 33.592682 34.867401 33.13496 36.975361 C 32.345573 40.554863 29.164576 43.097713 25.499109 43.079361 L 13.962471 43.079361 C 11.242531 43.122509 8.706181 41.711315 7.30883 39.377361 L 7.277248 39.321548 C 4.066212 33.603161 8.0453 26.24844 9.782471 23.03763 Z"/>
        <path id="path4" fill="#666a86" stroke="#4d4d4d" stroke-linecap="round" stroke-linejoin="round" d="M 42.35033 8.144081 L 42.35033 7.868549 C 42.353489 7.198704 42.108009 6.551506 41.661411 6.05225 C 41.344349 5.668266 40.922028 5.385258 40.446331 5.237999 C 40.282558 5.187218 40.115005 5.149536 39.945259 5.125309 C 39.381649 5.050171 38.80542 5 38.229191 4.974998 C 37.452579 7.17963 40.446331 7.417622 42.35033 8.144081 Z"/>
        <path id="path5" fill="#faf3dd" stroke="#4d4d4d" stroke-linecap="round" stroke-linejoin="round" d="M 30.43446 6.592739 C 30.43446 6.592739 27.897461 3.682652 25.273581 5.433472 C 22.6497 7.184288 26.809299 9.493 26.809299 9.493"/>
        <path id="path6" fill="#faf3dd" stroke="none" d="M 26.0532 18.181999 C 26.310551 17.33979 32.018139 31.012581 31.033199 33.383579 C 30.592569 34.555943 29.402477 35.270359 28.16061 35.108002 C 27.409201 32.855801 23.013479 30.038811 21.661329 27.07877 Z"/>
        <path id="path7" fill="none" stroke="#4d4d4d" stroke-linecap="round" stroke-linejoin="round" d="M 26.0532 18.181999 C 26.310551 17.33979 32.018139 31.012581 31.033199 33.383579 C 30.592569 34.555943 29.402477 35.270359 28.16061 35.108002 C 27.409201 32.855801 23.013479 30.038811 21.661329 27.07877"/>
        <path id="path8" fill="#faf3dd" stroke="#4d4d4d" stroke-linecap="round" stroke-linejoin="round" d="M 15.07914 31.58827 C 15.07914 31.58827 21.341311 30.86735 23.14921 32.513039 C 24.076593 33.465813 24.815765 34.585098 25.3279 35.812099 C 25.937994 37.161297 27.360874 37.950539 28.82847 37.753792 C 30.19359 37.567459 31.251329 37.272419 32.15963 38.127991 C 32.241653 38.61404 32.29427 39.104599 32.317188 39.596989 C 32.361595 40.503151 32.03323 41.388008 31.408436 42.045834 C 30.783642 42.703655 29.916855 43.077129 29.009609 43.079418 L 19.644939 43.079418 C 17.047735 43.079426 14.690632 41.560181 13.618 39.19482 L 12.963531 37.751629"/>
        <path id="path9" fill="none" stroke="#4d4d4d" stroke-linecap="round" stroke-linejoin="round" d="M 38.468998 40.536999 L 38.300999 41.122002"/>
        <path id="path10" fill="#e76f51" stroke="#4d4d4d" stroke-width="1.09" stroke-linecap="round" stroke-linejoin="round" d="M 24.14275 16.193001 C 23.945705 17.392838 23.945705 18.616783 24.14275 19.81662 C 24.405621 21.396259 24.88409 22.108919 24.54537 22.567881 C 24.22328 23.00432 23.163509 23.209669 19.64677 21.82975 C 19.649929 21.1259 19.717699 14.848339 21.659889 14.44828 C 22.01281 14.37561 22.81251 14.417702 24.14275 16.193001 Z"/>
        <path id="path11" fill="#e76f51" stroke="#4d4d4d" stroke-width="1.09" stroke-linecap="round" stroke-linejoin="round" d="M 25.29615 16.14831 C 24.496405 16.671612 23.773649 17.304026 23.148821 18.027229 C 21.894928 19.362865 21.075951 21.047621 20.80018 22.85873 C 20.68903 23.85994 20.87534 24.191401 20.531759 24.60343 C 19.75223 25.53824 17.430099 25.46681 16.371309 24.26791 C 16.169821 24.03978 15.585129 23.28507 15.834469 21.24822 C 16.22422 18.064421 18.473101 13.207539 21.605471 13.397049 C 23.360609 13.503239 24.65786 15.149429 25.29615 16.14831 Z"/>
        <path id="path12" fill="#e76f51" stroke="#4d4d4d" stroke-linecap="round" stroke-linejoin="round" d="M 33.75655 16.02458 C 33.916637 16.291969 34.007202 16.595194 34.019981 16.90658 C 34.0159 17.400789 33.75787 17.584339 33.54966 18.060949 C 33.066139 19.167761 33.728741 19.84659 33.194099 20.739731 C 33.027355 20.990805 32.813469 21.207136 32.564312 21.37673 C 31.715309 21.95701 29.98488 21.58736 23.65624 17.55179 C 23.14414 17.225241 19.440161 14.82645 18.92202 12.688129 C 18.813313 12.332771 18.830915 11.950745 18.97184 11.606888 C 19.291161 10.932892 20.086281 10.881752 21.240499 10.405209 C 22.963499 9.693848 22.88386 9.109211 23.65624 9.046349 C 25.207161 8.920052 25.36231 11.29071 27.93413 12.971939 C 30.00371 14.324909 33.053219 14.848938 33.75655 16.02458 Z"/>
        <path id="path13" fill="none" stroke="#4d4d4d" stroke-linecap="round" stroke-linejoin="round" d="M 33.274002 6.75 L 32.964001 7.016998"/>
    </g>
</svg>
