<?xml version="1.0" encoding="UTF-8"?>
<!-- Generated by Pixelmator Pro 3.5 -->
<svg width="82" height="88" viewBox="0 0 82 88" xmlns="http://www.w3.org/2000/svg">
    <g id="Group">
        <path id="Path" fill="#000000" stroke="none" d="M 67.101997 27.923996 C 67.101997 27.923996 51.610001 42.487999 48.264 45.516998 C 52.203999 47.792999 51.546001 51.468002 50.778 53.719002 C 50.485001 54.576004 51.445999 55.311001 52.181 54.780998 C 59.116997 49.774002 72.420998 36.543999 75.832001 28.662003 C 76.570999 25.955002 75.597 22.757004 73.873001 21.279999 C 72.149002 19.803001 68.209999 18.82 68.209999 18.82 L 67.101997 27.923996 Z"/>
        <path id="path1" fill="#000000" stroke="none" d="M 72.150002 8.810997 C 71.116997 8.810997 70.121002 8.969002 69.184998 9.260002 L 68.203003 18.023003 C 69.070999 18.319 73.022003 19.251999 74.739998 20.723999 C 76.139 21.923004 77.153 24.428001 77.373001 26.770004 C 80.151001 25.052002 82 22.004997 82 18.530998 C 82 13.163002 77.589996 8.810997 72.150002 8.810997 Z"/>
        <path id="path2" fill="#000000" stroke="none" d="M 15.801001 35.298996 L 21.783001 51.623001 L 35.213001 55.07 L 30.287998 38.830002 Z"/>
        <path id="path3" fill="#000000" stroke="none" d="M -0 31.449005 L 8.372 48.181 L 20.046 51.177002 L 14.073 34.877998 L -0 31.449005"/>
        <path id="path4" fill="#000000" stroke="none" d="M 40.876999 65.157997 C 40.876999 65.157997 33.490002 64.912003 30.780998 61.221001 C 26.595001 66.389 19.945999 72.540001 19.945999 72.540001 C 19.945999 72.540001 26.102001 73.524002 27.333 79.183998 C 33.981998 74.754997 40.876999 65.157997 40.876999 65.157997 Z"/>
        <path id="path5" fill="#000000" stroke="none" d="M 49.249001 76.476997 C 49.249001 76.476997 46.786999 82.627998 51.958 82.382004 C 57.128998 82.136002 56.143997 79.429001 59.098999 79.675003 C 62.054001 79.920998 68.195 77.952003 68.933998 73.030998 C 69.672997 68.110001 62.792999 70.817001 62.792999 70.817001 C 62.792999 70.817001 60.699997 74.262001 59.469002 75.491997 C 58.237999 76.722 51.712002 78.938004 49.249001 76.476997 Z"/>
        <path id="path6" fill="#000000" stroke="none" d="M 18.961 73.445 C 22.107 72.015999 25.362999 76.398003 25.117001 78.120003 C 24.959999 79.214996 23.709999 81.105003 22.819 82.336998 C 22.308001 83.042999 22.162001 84.026001 23.886002 82.303001 C 25.610001 80.581001 26.786999 80.262001 27.245998 80.837997 C 28.251999 82.099998 27.287998 83.591003 25.212002 85.114998 C 23.437 86.417999 21.177999 87.717003 19.700001 87.471001 C 18.92 87.341003 17.659 86.457001 16.643 85.651001 C 15.613001 84.834 15.113001 83.522003 15.349001 82.228996 C 15.875999 79.337997 17.051001 74.311996 18.961 73.445 Z"/>
        <path id="path7" fill="#000000" stroke="none" d="M 61.561996 48.673004 C 61.561996 48.673004 57.528 52.453003 53.041 56.145 C 51.169998 57.683998 49.773998 57.088001 49.740002 55.595001 C 47.098999 57.354 40.808998 57.351002 40.387001 53.395996 L 36.199001 56.792999 L 26.841999 54.085999 C 26.841999 54.085999 27.088001 57.039001 29.304001 58.761002 C 31.52 60.483002 35.459999 63.681999 43.34 63.681999 C 51.220001 63.681999 58.361 61.467003 58.361 62.697998 C 58.361 64.174004 51.466 64.419998 51.466 64.419998 L 48.019001 72.540001 C 48.019001 72.540001 47.526001 75.247002 51.466 75.985001 C 55.405998 76.723 59.099998 74.016998 59.099998 74.016998 C 59.099998 74.016998 65.749001 65.651001 67.225998 58.761002 C 68.703003 51.871002 61.561996 48.673004 61.561996 48.673004 Z"/>
        <path id="path8" fill="#000000" stroke="none" d="M 49.790001 53.716995 C 49.014 54.686996 43.577999 57.574001 41.597 53.175995 C 42.582001 51.884003 47.549999 47.313995 47.549999 47.313995 C 49.355 47.313995 51.266998 51.871002 49.790001 53.716995 Z"/>
        <path id="path9" fill="#000000" stroke="none" d="M 34.396999 16.141998 L 49.452999 2.701996 L 35.952 0.691002 L 21.035 13.267998 Z"/>
        <path id="path10" fill="#000000" stroke="none" d="M 51.354 2.985001 L 36.183998 16.527 L 50.970001 19.707001 L 67.348 5.366997 Z"/>
        <path id="path11" fill="#000000" stroke="none" d="M 0.492 30.587006 L 14.541 33.867004 L 33.033001 17.359001 L 19.608 14.471001 L 0.492 30.587006"/>
        <path id="path12" fill="#000000" stroke="none" d="M 34.82 17.744003 L 16.299 34.277 L 30.535 37.599998 L 49.584999 20.919998 Z"/>
        <g id="g1">
            <path id="path13" fill="#000000" stroke="none" d="M 52.402 20.188995 L 54.641998 38.098999 L 65.994003 27.512001 L 68.456001 5.859001 Z"/>
            <path id="path14" fill="#000000" stroke="none" d="M 51.063 21.385002 L 31.52 38.830002 L 36.444 55.07 L 53.308998 39.341995 Z"/>
        </g>
    </g>
</svg>
