<?xml version="1.0" encoding="UTF-8"?>
<!-- Generated by Pixelmator Pro 3.4.3 -->
<svg width="80" height="88" viewBox="0 0 80 88" xmlns="http://www.w3.org/2000/svg">
    <g id="Group">
        <path id="Path" fill="#000000" stroke="none" d="M 31.999996 0 L 31.999996 4 L 38.999996 4 L 38.999996 8.5 C 38.999996 9.348328 38.923996 9.891602 38.562496 10.4375 C 38.200699 10.983398 37.476498 11.59082 35.999996 12.25 C 35.989437 12.260132 35.979103 12.270447 35.968998 12.281006 C 32.486797 13.895996 30.000198 17.410583 30.000198 21.624817 C 30.000198 25.407593 31.962696 28.749207 34.906399 30.562317 L 9.718798 44 L 0.999997 44 C 0.447736 44.000061 5.2e-05 44.447754 -3e-06 45 L -3e-06 87 C 5.2e-05 87.552246 0.447736 88 0.999997 88 L 79 88 C 79.552261 88 79.999947 87.552246 80 87 L 80 45 C 79.999947 44.447754 79.552261 44.000061 79 44 L 70.281197 44 L 45.093796 30.5625 C 48.037498 28.74939 49.999996 25.407776 49.999996 21.625 C 50.005096 21.264343 49.81562 20.928894 49.504124 20.747131 C 49.192627 20.565308 48.807369 20.565308 48.495869 20.747131 C 48.184372 20.928894 47.994896 21.264343 47.999996 21.625 C 47.999996 25.190857 45.901398 28.188599 42.937496 29.406189 L 40.468796 28.093811 C 40.258163 27.981384 40.014271 27.948059 39.781197 27.999817 C 39.694035 28.019775 39.609951 28.051392 39.531197 28.093811 L 37.062496 29.406189 C 34.098598 28.188599 31.999996 25.190918 31.999996 21.625 C 31.999996 18.196594 33.998299 15.398987 36.812496 14.093811 C 38.485996 13.34668 39.567997 12.544312 40.218796 11.5625 C 40.869297 10.580688 40.999996 9.509705 40.999996 8.5 L 40.999996 4 L 47.999996 4 L 47.999996 0 L 31.999996 0 Z M 37.249996 31.593811 C 38.125099 31.85437 39.043495 32 39.999996 32 C 40.956497 32 41.874897 31.85437 42.749996 31.593811 L 66 44 L 13.999996 44 L 37.249996 31.593811 Z M 1.999997 46 L 78 46 L 78 86 L 1.999997 86 L 1.999997 46 Z M 12.999996 52 L 12.999996 80 L 14.999996 80 L 14.999996 52 L 12.999996 52 Z M 25.999996 52 L 25.999996 80 L 27.999996 80 L 27.999996 52 L 25.999996 52 Z M 38.999996 52 L 38.999996 80 L 40.999996 80 L 40.999996 52 L 38.999996 52 Z M 51.999996 52 L 51.999996 80 L 53.999996 80 L 53.999996 52 L 51.999996 52 Z M 65 52 L 65 80 L 67 80 L 67 52 L 65 52 Z"/>
    </g>
</svg>
