<?xml version="1.0" encoding="UTF-8"?>
<!-- Generated by Pixelmator Pro 3.4.3 -->
<svg width="52" height="65" viewBox="0 0 52 65" xmlns="http://www.w3.org/2000/svg">
    <path id="Path" fill="#000000" stroke="none" d="M 27.150002 29.099998 C 30.619999 29.099998 33.450001 26.279999 33.450001 22.809998 C 33.450001 19.34 30.619999 16.520004 27.150002 16.520004 C 23.68 16.520004 20.860001 19.34 20.860001 22.809998 C 20.860001 26.279999 23.68 29.099998 27.150002 29.099998 Z M 27.150002 18.02 C 29.799999 18.02 31.950001 20.169998 31.950001 22.809998 C 31.950001 25.450001 29.799999 27.599998 27.150002 27.599998 C 24.51 27.599998 22.360001 25.450001 22.360001 22.809998 C 22.360001 20.169998 24.51 18.02 27.150002 18.02 Z"/>
    <path id="path1" fill="#000000" stroke="none" d="M 8.19 38.549999 L 14.73 38.549999 C 14.799999 40.630001 16.5 42.310001 18.6 42.310001 L 19.040001 42.310001 L 21.049999 45.48 C 21.620001 46.369999 22.59 46.91 23.639999 46.91 L 29.970001 46.91 C 31.029999 46.91 32 46.380001 32.560001 45.48 L 34.57 42.310001 L 35.009998 42.310001 C 37.110001 42.310001 38.810001 40.630001 38.880001 38.549999 L 45.419998 38.549999 C 46.990002 38.549999 48.259998 37.279999 48.259998 35.709999 L 48.259998 33.490002 C 48.259998 31.169998 47.209999 29.010002 45.389999 27.57 L 38.889999 22.450001 L 38.889999 18.510002 C 38.889999 16.300003 38.48 14.160004 37.669998 12.169998 C 37.669998 12.169998 37.669998 12.169998 37.669998 12.169998 C 37.669998 12.169998 37.669998 12.160004 37.669998 12.160004 C 37.669998 12.150002 37.669998 12.150002 37.66 12.139999 C 37.66 12.139999 37.66 12.139999 37.66 12.129997 C 37.580002 11.900002 37.48 11.669998 37.369999 11.449997 C 37.349998 11.419998 37.330002 11.400002 37.310001 11.370003 C 36.349998 9.229996 35.029999 7.339996 33.330002 5.769997 L 28.709999 1.5 C 27.650002 0.510002 25.970001 0.5 24.9 1.5 L 20.290001 5.769997 C 18.41 7.5 16.969999 9.610001 16 12.040001 C 15.98 12.080002 15.950001 12.099998 15.93 12.139999 C 15.120001 14.160004 14.719999 16.300003 14.719999 18.5 L 14.719999 22.450001 L 8.22 27.57 C 6.4 29.010002 5.35 31.16 5.35 33.490002 L 5.35 35.709999 C 5.35 37.27 6.63 38.549999 8.19 38.549999 Z M 36.439999 13.160004 C 37.07 14.849998 37.400002 16.639999 37.400002 18.5 L 37.400002 35.619999 L 16.219999 35.619999 L 16.219999 18.5 C 16.219999 16.660004 16.549999 14.870003 17.17 13.169998 L 36.439999 13.169998 Z M 31.299999 44.669998 C 31.009998 45.130001 30.509998 45.400002 29.970001 45.400002 L 23.639999 45.400002 C 23.1 45.400002 22.6 45.130001 22.309999 44.669998 L 20.809999 42.299999 L 32.799999 42.299999 L 31.299999 44.669998 Z M 37.400002 38.419998 C 37.400002 39.73 36.330002 40.799999 35.02 40.799999 L 34.169998 40.799999 L 19.450001 40.799999 L 18.6 40.799999 C 17.280001 40.799999 16.219999 39.73 16.219999 38.419998 L 16.219999 37.119999 L 37.400002 37.119999 L 37.400002 38.419998 Z M 44.470001 28.75 C 45.93 29.900002 46.77 31.630001 46.77 33.490002 L 46.77 35.709999 C 46.77 36.450001 46.169998 37.049999 45.43 37.049999 L 38.900002 37.049999 L 38.900002 36.389999 C 38.900002 36.380001 38.900002 36.380001 38.900002 36.369999 L 38.900002 24.360001 L 44.470001 28.75 Z M 21.299999 6.870003 L 25.91 2.599998 C 26.41 2.139999 27.189999 2.139999 27.689999 2.599998 L 32.310001 6.870003 C 33.779999 8.229996 34.959999 9.839996 35.830002 11.669998 L 17.790001 11.669998 C 18.66 9.830002 19.84 8.229996 21.299999 6.870003 Z M 6.85 33.490002 C 6.85 31.630001 7.69 29.900002 9.15 28.75 L 14.719999 24.360001 L 14.719999 36.369999 C 14.719999 36.380001 14.719999 36.380001 14.719999 36.389999 L 14.719999 37.049999 L 8.19 37.049999 C 7.45 37.049999 6.85 36.450001 6.85 35.709999 L 6.85 33.490002 Z"/>
    <path id="path2" fill="#000000" stroke="none" d="M 51.209999 62.75 L 47.52 62.75 C 47.16 59.900002 44.779999 57.669998 41.869999 57.549999 C 41.5 54.23 38.669998 51.650002 35.25 51.650002 C 32.27 51.650002 29.709999 53.619999 28.880001 56.380001 C 27.119999 55.450001 24.889999 55.380001 23.059999 56.209999 C 22.18 53.509998 19.66 51.650002 16.73 51.650002 C 13.32 51.650002 10.51 54.23 10.129999 57.549999 C 7.21 57.669998 4.83 59.900002 4.47 62.75 L 0.79 62.75 C 0.38 62.75 0.04 63.09 0.04 63.5 C 0.04 63.910004 0.38 64.25 0.79 64.25 L 5.18 64.25 L 46.84 64.25 L 51.23 64.25 C 51.639999 64.25 51.98 63.910004 51.98 63.5 C 51.98 63.09 51.630001 62.75 51.209999 62.75 Z M 5.99 62.75 C 6.36 60.57 8.31 58.970001 10.629999 59.060001 C 11.639999 59.119999 12.610001 59.5 13.370001 60.18 C 13.51 60.310001 13.690001 60.369999 13.870001 60.369999 C 14.08 60.369999 14.280001 60.290001 14.43 60.119999 C 14.709999 59.810001 14.68 59.34 14.370001 59.060001 C 13.6 58.360001 12.66 57.900002 11.65 57.68 C 11.950001 55.130001 14.1 53.130001 16.74 53.130001 C 19.25 53.130001 21.370001 54.900002 21.809999 57.349998 C 21.860001 57.650002 21.9 57.959999 21.9 58.279999 C 21.9 58.900002 21.790001 59.5 21.58 60.080002 C 21.440001 60.470001 21.629999 60.900002 22.02 61.040001 C 22.110001 61.07 22.190001 61.09 22.280001 61.09 C 22.58 61.09 22.870001 60.900002 22.98 60.599998 C 23.26 59.860001 23.4 59.080002 23.4 58.279999 C 23.4 58.099998 23.379999 57.919998 23.370001 57.740002 C 25.009998 56.860001 27.080002 56.950001 28.630001 57.970001 C 28.619999 58.080002 28.610001 58.18 28.610001 58.290001 C 28.610001 58.91 28.689999 59.529999 28.860001 60.119999 C 28.950001 60.450001 29.25 60.66 29.580002 60.66 C 29.650002 60.66 29.720001 60.650002 29.790001 60.630001 C 30.189999 60.52 30.419998 60.099998 30.310001 59.700001 C 30.18 59.240002 30.110001 58.77 30.110001 58.279999 C 30.110001 58.07 30.130001 57.869999 30.150002 57.66 C 30.150002 57.66 30.150002 57.66 30.150002 57.66 C 30.450001 55.080002 32.639999 53.130001 35.259998 53.130001 C 37.889999 53.130001 40.049999 55.110001 40.360001 57.68 C 39.369999 57.889999 38.450001 58.34 37.68 59.02 C 37.369999 59.290001 37.34 59.77 37.610001 60.080002 C 37.759998 60.25 37.959999 60.330002 38.169998 60.330002 C 38.349998 60.330002 38.52 60.27 38.669998 60.139999 C 39.389999 59.5 40.279999 59.119999 41.240002 59.040001 C 41.240002 59.040001 41.240002 59.040001 41.25 59.040001 C 41.259998 59.040001 41.259998 59.040001 41.27 59.040001 C 43.59 58.860001 45.66 60.509998 46.040001 62.73 L 5.99 62.73 Z"/>
    <path id="path3" fill="#000000" stroke="none" d="M 26.349998 48.740002 L 26.349998 51.93 C 26.349998 52.34 26.689999 52.68 27.099998 52.68 C 27.509998 52.68 27.849998 52.34 27.849998 51.93 L 27.849998 48.740002 C 27.849998 48.330002 27.509998 47.990002 27.099998 47.990002 C 26.689999 47.990002 26.349998 48.32 26.349998 48.740002 Z"/>
    <path id="path4" fill="#000000" stroke="none" d="M 29.57 49.459999 L 29.57 51.209999 C 29.57 51.619999 29.91 51.959999 30.32 51.959999 C 30.73 51.959999 31.07 51.619999 31.07 51.209999 L 31.07 49.459999 C 31.07 49.049999 30.73 48.709999 30.32 48.709999 C 29.91 48.709999 29.57 49.040001 29.57 49.459999 Z"/>
    <path id="path5" fill="#000000" stroke="none" d="M 23.139999 49.75 L 23.139999 50.900002 C 23.139999 51.310001 23.48 51.650002 23.889999 51.650002 C 24.299999 51.650002 24.639999 51.310001 24.639999 50.900002 L 24.639999 49.75 C 24.639999 49.34 24.299999 49 23.889999 49 C 23.48 49 23.139999 49.34 23.139999 49.75 Z"/>
</svg>
