<?xml version="1.0" encoding="UTF-8"?>
<!-- Generated by Pixelmator Pro 3.4.3 -->
<svg width="50" height="46" viewBox="0 0 50 46" xmlns="http://www.w3.org/2000/svg">
    <path id="Path" fill="#000000" stroke="none" d="M 49.200001 23.41 L 38.799999 19.040001 L 38.799999 6.239998 C 38.799999 6.239998 38.799999 5.919998 38.490002 5.779999 L 25.18 0.18 C 25.059999 0.129997 24.92 0.129997 24.790001 0.18 L 11.5 5.779999 C 11.48 5.790001 11.18 5.889999 11.19 6.239998 L 11.19 19.040001 L 0.81 23.41 C 0.44 23.529999 0.51 23.879997 0.51 23.879997 L 0.51 39.759998 C 0.51 39.959999 0.63 40.139999 0.82 40.220001 L 14.120001 45.82 C 14.17 45.84 14.23 45.849998 14.280001 45.849998 C 14.290001 45.849998 14.299999 45.860001 14.309999 45.860001 C 14.379999 45.860001 14.440001 45.849998 14.5 45.82 L 24.99 41.389999 L 35.509998 45.82 C 35.57 45.849998 35.639999 45.860001 35.700001 45.860001 C 35.759998 45.860001 35.830002 45.849998 35.889999 45.82 L 49.189999 40.220001 C 49.380001 40.139999 49.5 39.959999 49.5 39.759998 L 49.5 23.879997 C 49.5 23.879997 49.52 23.57 49.200001 23.41 Z M 22.9 39.43 L 22.9 24.629997 L 35.200001 29.82 L 35.200001 44.610001 L 22.9 39.43 Z M 35.689999 28.939999 L 23.690001 23.879997 L 35.689999 18.82 L 47.709999 23.879997 L 35.689999 28.939999 Z M 35.889999 17.809998 C 35.77 17.760002 35.630001 17.760002 35.5 17.809998 L 25.5 22.02 L 25.5 12.169998 L 37.799999 6.989998 L 37.799999 18.620003 L 35.889999 17.809998 Z M 24.99 1.18 L 37.009998 6.239998 L 25 11.299999 L 12.99 6.239998 L 24.99 1.18 Z M 12.2 6.989998 L 24.5 12.18 L 24.5 22.029999 L 14.49 17.809998 C 14.370001 17.760002 14.23 17.760002 14.1 17.809998 L 12.2 18.610001 L 12.2 6.989998 Z M 14.299999 18.82 L 23.709999 22.779999 L 22.209999 23.41 C 22.200001 23.41 21.870001 23.5 21.9 23.870003 L 21.9 25.73 L 14.309999 28.93 L 2.29 23.870003 L 14.299999 18.82 Z M 1.5 24.629997 L 13.799999 29.82 L 13.799999 44.610001 L 1.5 39.43 L 1.5 24.629997 Z M 14.799999 44.610001 L 14.799999 29.82 L 21.9 26.830002 L 21.9 39.77 C 21.9 39.970001 22.02 40.150002 22.209999 40.23 L 23.709999 40.860001 L 14.799999 44.610001 Z M 48.5 39.43 L 36.200001 44.610001 L 36.200001 29.810001 L 48.5 24.629997 L 48.5 39.43 Z"/>
</svg>
