<?xml version="1.0" encoding="UTF-8"?>
<!-- Generated by Pixelmator Pro 3.5.1 -->
<svg width="80" height="80" viewBox="0 0 80 80" xmlns="http://www.w3.org/2000/svg">
    <path id="Path" fill="#000000" stroke="none" d="M 78.746002 51.598 C 78.637001 51.626999 76.241997 52.27 72.309998 54.362999 C 71.714996 52.076 70.550003 49.380997 68.266998 47.505005 C 67.898003 47.201004 67.366997 47.201004 66.997002 47.505005 C 64.681999 49.406998 63.513 52.147999 62.924004 54.476997 C 59.290001 52.458 56.660004 51.678001 56.538002 51.643002 C 56.160004 51.533001 55.750999 51.654999 55.495003 51.956001 C 55.238998 52.257 55.184998 52.681 55.356003 53.036999 C 55.68 53.709999 55.999001 54.427002 56.325996 55.161003 C 57.720001 58.294998 59.254997 61.737 61.853996 63.612 C 61.019997 63.949997 60.262001 64.471001 59.652 65.161003 C 58.535004 66.426003 58.012001 68.112 58.213997 69.736 L 58.797997 78 L 48.478001 78 L 49.056 69.787003 C 49.263 68.111 48.741001 66.424004 47.623001 65.158997 C 46.981998 64.434998 46.178001 63.894997 45.292 63.559998 C 47.967999 61.609001 49.563 58.121002 51.009998 54.950996 C 51.316002 54.280998 51.615002 53.625 51.917999 53.000999 C 52.088001 52.648998 52.037998 52.230999 51.790001 51.93 C 51.541 51.627998 51.139 51.5 50.764 51.598 C 50.654999 51.626999 48.259998 52.27 44.327999 54.362999 C 43.733002 52.075001 42.568001 49.380005 40.285 47.505005 C 39.916 47.201996 39.384998 47.201996 39.014999 47.505005 C 36.700001 49.408005 35.532001 52.147999 34.943001 54.477997 C 31.307999 52.459 28.678001 51.679001 28.556 51.643002 C 28.178001 51.533001 27.769001 51.654999 27.513 51.956001 C 27.257999 52.257 27.202999 52.681 27.374001 53.036999 C 27.698002 53.709999 28.016998 54.427002 28.344002 55.161003 C 29.737999 58.294998 31.272999 61.737 33.872002 63.612 C 33.037998 63.949997 32.278999 64.472 31.669998 65.161003 C 30.553001 66.426003 30.029999 68.112 30.233002 69.736 L 30.817001 78 L 21.202 78 L 21.780001 69.787003 C 21.987 68.111 21.465 66.424004 20.347 65.160004 C 19.705999 64.434998 18.900999 63.896004 18.016001 63.560997 C 20.691 61.611 22.285 58.125 23.731998 54.956001 C 24.039001 54.285004 24.338001 53.626999 24.640999 53.001999 C 24.812 52.651001 24.762001 52.231998 24.514 51.931 C 24.266998 51.629002 23.862999 51.500999 23.487999 51.598999 C 23.379002 51.627998 20.983999 52.271 17.052 54.363998 C 16.457001 52.077 15.292 49.382004 13.009001 47.505997 C 12.639999 47.201996 12.108999 47.201996 11.739 47.505997 C 9.424999 49.406998 8.256001 52.147999 7.666 54.478996 C 4.032 52.459999 1.402 51.68 1.28 51.644001 C 0.902 51.534 0.494 51.655998 0.237 51.957001 C -0.018 52.257999 -0.073 52.681999 0.098 53.037998 C 0.422 53.710999 0.741 54.428001 1.068 55.162003 C 2.462 58.295998 3.997 61.737999 6.596001 63.612999 C 5.762 63.950996 5.004 64.472 4.394 65.162003 C 3.277 66.427002 2.754 68.112999 2.956 69.737 L 3.54 78 L 1 78 C 0.447 78 -0 78.447998 -0 79 C -0 79.552002 0.447 80 1 80 L 78.904999 80 C 79.458 80 79.904999 79.552002 79.904999 79 C 79.904999 78.447998 79.458 78 78.904999 78 L 76.459999 78 L 77.038002 69.787003 C 77.245003 68.111 76.723 66.424004 75.605003 65.160004 C 74.963997 64.434998 74.158997 63.896004 73.274002 63.560997 C 75.948997 61.610001 77.543999 58.124001 78.990997 54.954002 C 79.296997 54.283997 79.596001 53.625999 79.899002 53.000999 C 80.07 52.650002 80.019997 52.230999 79.772003 51.93 C 79.524002 51.629002 79.122002 51.5 78.746002 51.598 Z M 30.187 54.377998 C 31.451 54.908997 33.173 55.723 35.122002 56.887001 C 35.403999 57.056 35.751999 57.074997 36.049999 56.938004 C 36.348999 56.802002 36.562 56.527 36.618999 56.203003 C 36.973 54.206001 37.787998 51.535999 39.652 49.632004 C 41.481998 51.5 42.298 54.110001 42.66 56.061996 C 42.720001 56.378998 42.928001 56.649002 43.221001 56.786003 C 43.512001 56.921997 43.853001 56.910004 44.134998 56.750999 C 46.191002 55.592003 47.883999 54.813004 49.105999 54.313004 C 47.404999 58.038002 45.458 62.184998 41.889 62.959999 C 41.889 62.959999 41.889 62.959999 41.888 62.959999 C 39.693001 63.435997 37.436001 62.969002 37.366001 62.955002 C 33.749001 62.362999 31.936001 58.308998 30.187 54.377998 Z M 32.48 73.160004 L 40.352001 73.160004 C 40.904999 73.160004 41.352001 72.711998 41.352001 72.160004 C 41.352001 71.608002 40.904999 71.160004 40.352001 71.160004 L 32.339001 71.160004 L 32.224998 69.541 C 32.088001 68.433998 32.432999 67.319 33.171001 66.484001 C 33.905998 65.651001 34.965 65.174004 36.075001 65.174004 L 43.221001 65.174004 C 44.330002 65.174004 45.389 65.652 46.124001 66.484001 C 46.862 67.319 47.208 68.433998 47.066002 69.594002 L 46.474998 78 L 32.820999 78 L 32.48 73.160004 Z M 2.91 54.379997 C 4.177 54.912003 5.901 55.726997 7.843 56.887001 C 8.124001 57.056 8.473 57.074997 8.771 56.938004 C 9.07 56.802002 9.283001 56.527 9.34 56.204002 C 9.695 54.206001 10.511 51.535 12.374001 49.632004 C 14.204 51.500999 15.02 54.111 15.382 56.061996 C 15.441999 56.378998 15.65 56.649002 15.943001 56.786003 C 16.233999 56.921997 16.575001 56.910004 16.857 56.750999 C 18.912001 55.592003 20.606001 54.813004 21.827 54.313004 C 20.125999 58.038002 18.18 62.184998 14.611 62.959999 C 14.611 62.959999 14.611 62.959999 14.610001 62.959999 C 12.415001 63.435997 10.158001 62.969002 10.087999 62.955002 C 6.472 62.362999 4.659 58.309998 2.91 54.379997 Z M 5.202 73.160004 L 13.190001 73.160004 C 13.743 73.160004 14.190001 72.711998 14.190001 72.160004 C 14.190001 71.608002 13.743 71.160004 13.190001 71.160004 L 5.061 71.160004 L 4.947 69.541 C 4.81 68.432999 5.155 67.319 5.894 66.483002 C 6.629 65.650002 7.688 65.172997 8.798 65.172997 L 15.944 65.172997 C 17.054001 65.172997 18.113001 65.651001 18.848 66.483002 C 19.587 67.318001 19.931999 68.432999 19.790001 69.593002 L 19.198 78 L 5.544 78 L 5.202 73.160004 Z M 75.049004 69.594002 L 74.456001 78 L 60.802002 78 L 60.459999 73.160004 L 68.332001 73.160004 C 68.885002 73.160004 69.332001 72.711998 69.332001 72.160004 C 69.332001 71.608002 68.885002 71.160004 68.332001 71.160004 L 60.318001 71.160004 L 60.204002 69.541 C 60.067001 68.432999 60.412003 67.319 61.151001 66.483002 C 61.886002 65.650002 62.945 65.172997 64.055 65.172997 L 71.200996 65.172997 C 72.310997 65.172997 73.370003 65.651001 74.105003 66.483002 C 74.846001 67.319 75.190002 68.433998 75.049004 69.594002 Z M 69.869003 62.959 C 69.869003 62.959 69.869003 62.959 69.869003 62.959 C 67.672997 63.434998 65.416 62.968002 65.346001 62.954002 C 61.731003 62.362999 59.917999 58.309998 58.168999 54.379997 C 59.435997 54.912003 61.160004 55.726997 63.101997 56.887001 C 63.384003 57.056 63.732002 57.074997 64.029999 56.938004 C 64.329002 56.802002 64.542 56.527 64.598999 56.203003 C 64.953003 54.206001 65.767998 51.535999 67.633003 49.632004 C 69.462997 51.500999 70.278999 54.111 70.640999 56.061996 C 70.700996 56.378998 70.908997 56.649002 71.202003 56.786003 C 71.492996 56.921997 71.834 56.910004 72.115997 56.750999 C 74.170998 55.592003 75.864998 54.814003 77.085999 54.313004 C 75.384003 58.037003 73.436996 62.183998 69.869003 62.959 Z"/>
    <path id="path1" fill="#000000" stroke="none" d="M 48.022999 17.476997 C 48.022999 13.053001 44.423 9.453003 40 9.453003 C 35.577 9.453003 31.977001 13.053001 31.977001 17.476997 C 31.977001 21.901001 35.576 25.5 40 25.5 C 44.424 25.5 48.022999 21.901001 48.022999 17.476997 Z M 40 23.5 C 36.679001 23.5 33.977001 20.798004 33.977001 17.476997 C 33.977001 14.154999 36.679001 11.453003 40 11.453003 C 43.320999 11.453003 46.022999 14.154999 46.022999 17.476997 C 46.022999 20.798004 43.320999 23.5 40 23.5 Z"/>
    <path id="path2" fill="#000000" stroke="none" d="M 41 5.324997 L 41 1 C 41 0.447998 40.553001 0 40 0 C 39.446999 0 39 0.447998 39 1 L 39 5.324997 C 39 5.876999 39.446999 6.324997 40 6.324997 C 40.553001 6.324997 41 5.876999 41 5.324997 Z"/>
    <path id="path3" fill="#000000" stroke="none" d="M 33.058998 7.453003 C 33.244999 7.774002 33.580002 7.953003 33.925999 7.953003 C 34.096001 7.953003 34.268002 7.910004 34.424999 7.819 C 34.903999 7.542999 35.068001 6.931 34.791 6.453003 L 32.627998 2.707001 C 32.351002 2.227997 31.737 2.064003 31.262001 2.341003 C 30.783001 2.616997 30.618999 3.229004 30.896 3.707001 L 33.058998 7.453003 Z"/>
    <path id="path4" fill="#000000" stroke="none" d="M 29.977001 10.535004 L 26.231998 8.372002 C 25.752998 8.096001 25.143002 8.260002 24.866001 8.737999 C 24.59 9.216003 24.754002 9.828003 25.231998 10.104004 L 28.977001 12.266998 C 29.133999 12.358002 29.306 12.401001 29.476002 12.401001 C 29.821999 12.401001 30.158001 12.222 30.342999 11.901001 C 30.618999 11.423004 30.455002 10.811005 29.977001 10.535004 Z"/>
    <path id="path5" fill="#000000" stroke="none" d="M 28.848999 17.476997 C 28.848999 16.925003 28.402 16.476997 27.848999 16.476997 L 23.523998 16.476997 C 22.971001 16.476997 22.523998 16.925003 22.523998 17.476997 C 22.523998 18.028999 22.971001 18.476997 23.523998 18.476997 L 27.848999 18.476997 C 28.401001 18.476997 28.848999 18.028999 28.848999 17.476997 Z"/>
    <path id="path6" fill="#000000" stroke="none" d="M 25.731998 26.714005 C 25.902 26.714005 26.074001 26.671005 26.230999 26.580002 L 29.976002 24.417 C 30.455002 24.140999 30.618999 23.528999 30.341999 23.050995 C 30.064999 22.571999 29.452 22.408005 28.976002 22.684998 L 25.230999 24.848 C 24.751999 25.124001 24.588001 25.736 24.865002 26.214005 C 25.050999 26.535004 25.387001 26.714005 25.731998 26.714005 Z"/>
    <path id="path7" fill="#000000" stroke="none" d="M 31.262001 32.611 C 31.418999 32.701996 31.591 32.744995 31.761002 32.744995 C 32.106998 32.744995 32.443001 32.566002 32.627998 32.244995 L 34.791 28.499001 C 35.067001 28.020996 34.903 27.408997 34.424999 27.132996 C 33.946999 26.856995 33.334999 27.020004 33.058998 27.499001 L 30.896 31.244995 C 30.618999 31.723 30.783001 32.334999 31.262001 32.611 Z"/>
    <path id="path8" fill="#000000" stroke="none" d="M 39 29.626999 L 39 33.951996 C 39 34.503998 39.446999 34.951996 40 34.951996 C 40.553001 34.951996 41 34.503998 41 33.951996 L 41 29.626999 C 41 29.074997 40.553001 28.626999 40 28.626999 C 39.446999 28.626999 39 29.074997 39 29.626999 Z"/>
    <path id="path9" fill="#000000" stroke="none" d="M 47.372002 32.244995 C 47.557999 32.566002 47.893002 32.744995 48.238998 32.744995 C 48.409 32.744995 48.581001 32.701996 48.737999 32.611 C 49.216999 32.334999 49.381001 31.723 49.104 31.244995 L 46.941002 27.5 C 46.664001 27.020996 46.050999 26.858002 45.575001 27.134003 C 45.096001 27.410004 44.931999 28.022003 45.209 28.5 L 47.372002 32.244995 Z"/>
    <path id="path10" fill="#000000" stroke="none" d="M 50.022999 24.417999 L 53.768002 26.581001 C 53.924999 26.671997 54.097 26.714996 54.266998 26.714996 C 54.612999 26.714996 54.948997 26.535995 55.134003 26.214996 C 55.410004 25.737 55.246002 25.125 54.767998 24.848999 L 51.022999 22.686005 C 50.544998 22.410004 49.932999 22.574005 49.657001 23.052002 C 49.381001 23.529999 49.544998 24.141998 50.022999 24.417999 Z"/>
    <path id="path11" fill="#000000" stroke="none" d="M 57.476997 17.476997 C 57.476997 16.925003 57.029999 16.476997 56.476997 16.476997 L 52.152 16.476997 C 51.598999 16.476997 51.152 16.925003 51.152 17.476997 C 51.152 18.028999 51.598999 18.476997 52.152 18.476997 L 56.476997 18.476997 C 57.028999 18.476997 57.476997 18.028999 57.476997 17.476997 Z"/>
    <path id="path12" fill="#000000" stroke="none" d="M 50.523998 12.401001 C 50.694 12.401001 50.866001 12.358002 51.022999 12.266998 L 54.767998 10.104004 C 55.247002 9.828003 55.411003 9.216003 55.134003 8.737999 C 54.857002 8.259003 54.242996 8.096001 53.768002 8.372002 L 50.022999 10.535004 C 49.543999 10.811005 49.380001 11.423004 49.657001 11.901001 C 49.842999 12.222 50.179001 12.401001 50.523998 12.401001 Z"/>
    <path id="path13" fill="#000000" stroke="none" d="M 48.737999 2.341003 C 48.258999 2.064003 47.647999 2.227997 47.372002 2.707001 L 45.209 6.453003 C 44.932999 6.931 45.097 7.542999 45.575001 7.819 C 45.731998 7.910004 45.903999 7.953003 46.074001 7.953003 C 46.419998 7.953003 46.756001 7.774002 46.941002 7.453003 L 49.104 3.707001 C 49.381001 3.229004 49.216999 2.617996 48.737999 2.341003 Z"/>
</svg>
