<?xml version="1.0" encoding="UTF-8"?>
<!-- Generated by Pixelmator Pro 3.4.3 -->
<svg width="58" height="50" viewBox="0 0 58 50" xmlns="http://www.w3.org/2000/svg">
    <path id="Path" fill="#000000" stroke="none" d="M 1.33 14.279999 L 28.610001 25.919998 C 28.862171 26.028427 29.147827 26.028427 29.400002 25.919998 L 56.669998 14.279999 C 57.03875 14.12291 57.278084 13.760818 57.278084 13.360001 C 57.278084 12.959183 57.03875 12.597092 56.669998 12.440002 L 29.389999 0.809998 C 29.137829 0.701576 28.852173 0.701576 28.599998 0.809998 L 1.33 12.440002 C 0.961246 12.597092 0.721918 12.959183 0.721918 13.360001 C 0.721918 13.760818 0.961246 14.12291 1.33 14.279999 Z M 29 2.809998 L 53.720001 13.360001 L 29 23.910004 L 4.280001 13.360001 Z"/>
    <path id="path1" fill="#000000" stroke="none" d="M 55.879997 35.720001 L 29 47.190002 L 2.120001 35.720001 C 1.611898 35.501846 1.023153 35.736893 0.805 36.244999 C 0.586847 36.753101 0.821898 37.341846 1.33 37.560001 L 28.610001 49.190002 C 28.862171 49.298424 29.147827 49.298424 29.400002 49.190002 L 56.669998 37.560001 C 57.178101 37.341846 57.413155 36.753101 57.195 36.244999 C 56.976845 35.736893 56.3881 35.501846 55.879997 35.720001 Z"/>
    <path id="path2" fill="#000000" stroke="none" d="M 57.190002 24.610001 C 56.974297 24.102219 56.388107 23.865051 55.879997 24.080002 L 29 35.550003 L 2.120001 24.080002 C 1.611898 23.861847 1.023153 24.096893 0.805 24.604996 C 0.586847 25.113098 0.821898 25.701843 1.33 25.919998 L 28.610001 37.560001 C 28.862171 37.668427 29.147827 37.668427 29.400002 37.560001 L 56.669998 25.919998 C 57.173897 25.700455 57.406143 25.115372 57.190002 24.610001 Z"/>
</svg>
