<?xml version="1.0" encoding="UTF-8"?>
<!-- Generated by Pixelmator Pro 3.4.3 -->
<svg width="94" height="76" viewBox="0 0 94 76" xmlns="http://www.w3.org/2000/svg">
    <g id="Group">
        <path id="Path" fill="#000000" stroke="none" d="M 82.730003 54 C 81.080002 54 79.518997 54.380001 78.120003 55.050003 L 69.75 43.75 L 70.919998 43.919998 C 72.010002 44.089996 73.029999 43.339996 73.191002 42.240005 C 73.361 41.150002 72.611 40.130005 71.510002 39.970001 L 66.389999 39.199997 L 57.18 26.740005 C 60.119999 24 61.959999 20.110001 61.959999 15.790001 C 61.959999 7.550003 55.25 0.839996 47 0.839996 C 38.75 0.839996 32.040001 7.550003 32.040001 15.790001 C 32.040001 20 33.790001 23.809998 36.599998 26.529999 L 27.23 39.199997 L 22.110001 39.970001 C 21.01 40.130005 20.26 41.150002 20.42 42.240005 C 20.59 43.339996 21.610001 44.098999 22.700001 43.919998 L 23.870001 43.75 L 15.6 54.93 C 14.280001 54.330002 12.81 54 11.27 54 C 5.44 54 0.7 58.739998 0.7 64.580002 C 0.7 70.410004 5.44 75.150002 11.27 75.150002 C 17.1 75.150002 21.85 70.410004 21.85 64.580002 C 21.85 61.720001 20.709999 59.129997 18.870001 57.220001 L 27.07 46.130005 L 27.25 47.290001 C 27.389999 48.279999 28.25 48.990005 29.220001 48.990005 C 29.32 48.990005 29.419998 48.990005 29.52 48.969002 C 30.610001 48.808998 31.369999 47.789001 31.200001 46.699005 L 30.43 41.589005 L 39.810001 28.899002 C 41.389999 29.768997 43.139999 30.369003 45 30.609001 L 45 41.219002 L 41.18 45.039001 C 40.400002 45.828995 40.400002 47.089005 41.18 47.869003 C 41.959999 48.649002 43.23 48.649002 44.009998 47.869003 L 45 46.880005 L 45 54.191002 C 40.119999 55.129997 36.419998 59.419998 36.419998 64.581001 C 36.419998 70.411003 41.169998 75.151001 47 75.151001 C 52.830002 75.151001 57.580002 70.411003 57.580002 64.581001 C 57.580002 59.420998 53.880001 55.130997 49 54.191002 L 49 46.880005 L 49.990002 47.869995 C 50.380001 48.259995 50.889 48.459999 51.400002 48.459999 C 51.919998 48.459999 52.429001 48.259995 52.82 47.869995 C 53.598999 47.089996 53.598999 45.830002 52.82 45.040001 L 49 41.229996 L 49 30.610001 C 50.75 30.380005 52.41 29.839996 53.91 29.050003 L 63.190002 41.589996 L 62.419998 46.699997 C 62.25 47.790001 63.010002 48.808998 64.099998 48.970001 C 64.199997 48.990005 64.300003 48.990005 64.400002 48.990005 C 65.370003 48.990005 66.219002 48.279999 66.370003 47.290001 L 66.540001 46.130005 L 74.919998 57.449997 C 73.199997 59.330002 72.150002 61.830002 72.150002 64.580002 C 72.150002 70.410004 76.889 75.150002 82.730003 75.150002 C 88.558998 75.150002 93.299004 70.410004 93.299004 64.580002 C 93.300003 58.739998 88.559998 54 82.730003 54 Z M 11.27 70.150002 C 8.2 70.150002 5.7 67.650002 5.7 64.580002 C 5.7 61.5 8.2 59 11.27 59 C 12.42 59 13.48 59.339996 14.370001 59.93 C 14.379999 59.93 14.379999 59.941002 14.389999 59.950996 C 15.870001 60.960999 16.85 62.661003 16.85 64.581001 C 16.85 67.650002 14.35 70.150002 11.27 70.150002 Z M 52.580002 64.580002 C 52.580002 67.650002 50.080002 70.150002 47 70.150002 C 43.919998 70.150002 41.419998 67.650002 41.419998 64.580002 C 41.419998 61.5 43.919998 59 47 59 C 50.080002 59 52.580002 61.5 52.580002 64.580002 Z M 47 25.75 C 41.509998 25.75 37.040001 21.279999 37.040001 15.790001 C 37.040001 10.309998 41.509998 5.839996 47 5.839996 C 52.490002 5.839996 56.959999 10.309998 56.959999 15.790001 C 56.959999 21.279999 52.490002 25.75 47 25.75 Z M 82.730003 70.150002 C 79.650002 70.150002 77.150002 67.650002 77.150002 64.580002 C 77.150002 61.5 79.650002 59 82.730003 59 C 85.799004 59 88.299004 61.5 88.299004 64.580002 C 88.300003 67.650002 85.800003 70.150002 82.730003 70.150002 Z"/>
    </g>
</svg>
