<?xml version="1.0" encoding="UTF-8"?>
<!-- Generated by Pixelmator Pro 3.4.3 -->
<svg width="86" height="68" viewBox="0 0 86 68" xmlns="http://www.w3.org/2000/svg">
    <path id="Path" fill="#000000" stroke="none" d="M 19 0 C 17.078463 0 14.910124 0.489273 13.125 1.75 C 11.339876 3.010727 10 5.125641 10 8 L 10 24 C 10 27.215012 8.974936 29.071198 7.34375 30.40625 C 5.712564 31.741302 3.369592 32.525589 0.8125 33.03125 C 0.370162 33.144691 0.060842 33.54335 0.060842 34 C 0.060842 34.45665 0.370162 34.855309 0.8125 34.96875 C 3.369592 35.474411 5.712564 36.258698 7.34375 37.59375 C 8.974936 38.928802 10 40.784988 10 44 L 10 60 C 10 62.874367 11.339876 64.989273 13.125 66.25 C 14.910124 67.510727 17.078463 68 19 68 C 19.360636 68.005104 19.696081 67.815628 19.877888 67.504128 C 20.059694 67.192627 20.059694 66.807373 19.877888 66.495872 C 19.696081 66.184372 19.360636 65.994896 19 66 C 17.428219 66 15.622797 65.572456 14.28125 64.625 C 12.939703 63.677544 12 62.292923 12 60 L 12 44 C 12 40.325363 10.650064 37.714249 8.59375 36.03125 C 7.475768 35.116234 6.164095 34.491203 4.78125 34 C 6.164095 33.508797 7.475768 32.883766 8.59375 31.96875 C 10.650064 30.285751 12 27.674637 12 24 L 12 8 C 12 5.707077 12.939703 4.322456 14.28125 3.375 C 15.622797 2.427544 17.428219 2 19 2 C 19.360636 2.005096 19.696081 1.815628 19.877888 1.504128 C 20.059694 1.192627 20.059694 0.807373 19.877888 0.495872 C 19.696081 0.184372 19.360636 -0.005096 19 0 Z M 66.8125 0 C 66.260216 0.051773 65.854477 0.541466 65.90625 1.09375 C 65.958023 1.646034 66.447716 2.051773 67 2 C 68.571785 2 70.377205 2.427544 71.71875 3.375 C 73.060295 4.322456 74 5.707077 74 8 L 74 24 C 74 27.674637 75.349937 30.285751 77.40625 31.96875 C 78.524231 32.883766 79.835907 33.508797 81.21875 34 C 79.835907 34.491203 78.524231 35.116234 77.40625 36.03125 C 75.349937 37.714249 74 40.325363 74 44 L 74 60 C 74 62.292923 73.060295 63.677544 71.71875 64.625 C 70.377205 65.572456 68.571785 66 67 66 C 66.639366 65.994896 66.303917 66.184372 66.122116 66.495872 C 65.940308 66.807373 65.940308 67.192627 66.122116 67.504128 C 66.303917 67.815628 66.639366 68.005104 67 68 C 68.921539 68 71.089874 67.510727 72.875 66.25 C 74.660126 64.989273 76 62.874367 76 60 L 76 44 C 76 40.784988 77.025063 38.928802 78.65625 37.59375 C 80.287437 36.258698 82.630409 35.474411 85.1875 34.96875 C 85.629837 34.855309 85.939156 34.45665 85.939156 34 C 85.939156 33.54335 85.629837 33.144691 85.1875 33.03125 C 82.630409 32.525589 80.287437 31.741302 78.65625 30.40625 C 77.025063 29.071198 76 27.215012 76 24 L 76 8 C 76 5.125641 74.660126 3.010727 72.875 1.75 C 71.089874 0.489273 68.921539 0 67 0 C 66.968765 -0.001465 66.937485 -0.001465 66.90625 0 C 66.875015 -0.001465 66.843735 -0.001465 66.8125 0 Z"/>
</svg>
