<?xml version="1.0" encoding="UTF-8"?>
<!-- Generated by Pixelmator Pro 3.4.3 -->
<svg width="2572" height="2572" viewBox="0 0 2572 2572" xmlns="http://www.w3.org/2000/svg">
    <path id="Path" fill="#000000" stroke="none" visibility="hidden" d="M 1494.329956 1590.169922 L 879.75 1590.169922 C 790.169922 1590.169922 738.080078 1645.375 738.080078 1724.544922 C 738.080078 1795.375 786 1845.375 854.749939 1845.375 C 934.955078 1845.375 980.794922 1790.169922 984.955017 1711 L 1163.080078 1711 C 1153.705078 1904.75 1032.875 2007.875 852.669922 2007.875 C 683.919922 2007.875 557.875 1893.294922 557.875 1722.455078 C 557.875 1544.330078 690.169922 1420.375 889.125 1420.375 L 1497.455078 1420.375 C 1702.670044 1420.375 1858.920044 1269.330078 1858.920044 1066.205078 C 1858.920044 861 1719.330078 716.205078 1520.375 716.205078 C 1323.5 716.205078 1164.125 859.955078 1164.125 1125.580078 L 1164.125 1299.5448 L 983.919922 1299.5448 L 983.919922 1125.580078 C 983.919922 773.5 1209.955078 545.375 1523.500122 545.375 C 1822.455078 545.375 2040.169922 759.955078 2040.169922 1064.125 C 2042.25 1368.294922 1808.919922 1590.169922 1494.329956 1590.169922 Z M 1286 2536 C 1984.955078 2536 2536 1982.875 2536 1286 C 2536 589.125 1984.955078 36 1286 36 C 587.044922 36 36 591.205078 36 1286 C 36 1982.875 587.044922 2536 1286 2536 Z"/>
    <path id="Path-copy" fill="none" stroke="#000000" stroke-width="70.765625" d="M 1494.329956 1590.169922 L 879.75 1590.169922 C 790.169922 1590.169922 738.080078 1645.375 738.080078 1724.544922 C 738.080078 1795.375 786 1845.375 854.749939 1845.375 C 934.955078 1845.375 980.794922 1790.169922 984.955017 1711 L 1163.080078 1711 C 1153.705078 1904.75 1032.875 2007.875 852.669922 2007.875 C 683.919922 2007.875 557.875 1893.294922 557.875 1722.455078 C 557.875 1544.330078 690.169922 1420.375 889.125 1420.375 L 1497.455078 1420.375 C 1702.670044 1420.375 1858.920044 1269.330078 1858.920044 1066.205078 C 1858.920044 861 1719.330078 716.205078 1520.375 716.205078 C 1323.5 716.205078 1164.125 859.955078 1164.125 1125.580078 L 1164.125 1299.5448 L 983.919922 1299.5448 L 983.919922 1125.580078 C 983.919922 773.5 1209.955078 545.375 1523.500122 545.375 C 1822.455078 545.375 2040.169922 759.955078 2040.169922 1064.125 C 2042.25 1368.294922 1808.919922 1590.169922 1494.329956 1590.169922 Z M 1286 2536 C 1984.955078 2536 2536 1982.875 2536 1286 C 2536 589.125 1984.955078 36 1286 36 C 587.044922 36 36 591.205078 36 1286 C 36 1982.875 587.044922 2536 1286 2536 Z"/>
</svg>
