<?xml version="1.0" encoding="UTF-8"?>
<!-- Generated by Pixelmator Pro 3.4.3 -->
<svg width="3500" height="3500" viewBox="0 0 3500 3500" xmlns="http://www.w3.org/2000/svg">
    <path id="Path" fill="#000000" stroke="none" d="M 1958.329956 2054.169922 L 1343.75 2054.169922 C 1254.169922 2054.169922 1202.080078 2109.375 1202.080078 2188.544922 C 1202.080078 2259.375 1250 2309.375 1318.75 2309.375 C 1398.955078 2309.375 1444.794922 2254.169922 1448.955078 2175 L 1627.080078 2175 C 1617.705078 2368.75 1496.875 2471.875 1316.669922 2471.875 C 1147.919922 2471.875 1021.875 2357.294922 1021.875 2186.455078 C 1021.875 2008.330078 1154.169922 1884.375 1353.125 1884.375 L 1961.455078 1884.375 C 2166.669922 1884.375 2322.919922 1733.330078 2322.919922 1530.205078 C 2322.919922 1325 2183.330078 1180.205078 1984.375 1180.205078 C 1787.5 1180.205078 1628.125 1323.955078 1628.125 1589.580078 L 1628.125 1763.5448 L 1447.919922 1763.5448 L 1447.919922 1589.580078 C 1447.919922 1237.5 1673.955078 1009.375 1987.500122 1009.375 C 2286.455078 1009.375 2504.169922 1223.955078 2504.169922 1528.125 C 2506.25 1832.294922 2272.919922 2054.169922 1958.329956 2054.169922 Z M 1750 3000 C 2448.955078 3000 3000 2446.875 3000 1750 C 3000 1053.125 2448.955078 500 1750 500 C 1051.044922 500 500 1055.205078 500 1750 C 500 2446.875 1051.044922 3000 1750 3000 Z"/>
</svg>
