<?xml version="1.0" encoding="UTF-8" standalone="no"?>
<svg
   xmlns:dc="http://purl.org/dc/elements/1.1/"
   xmlns:cc="http://creativecommons.org/ns#"
   xmlns:rdf="http://www.w3.org/1999/02/22-rdf-syntax-ns#"
   xmlns:svg="http://www.w3.org/2000/svg"
   xmlns="http://www.w3.org/2000/svg"
   viewBox="0 0 1897.5493 927.94678"
   height="927.94678"
   width="1897.5493"
   xml:space="preserve"
   id="svg2"
   version="1.1"><metadata
     id="metadata8"><rdf:RDF><cc:Work
         rdf:about=""><dc:format>image/svg+xml</dc:format><dc:type
           rdf:resource="http://purl.org/dc/dcmitype/StillImage" /></cc:Work></rdf:RDF></metadata><defs
     id="defs6"><clipPath
       id="clipPath20"
       clipPathUnits="userSpaceOnUse"><path
         id="path18"
         d="m 36,431.9367 h 84.61719 v 60.02344 H 36 Z" /></clipPath><clipPath
       id="clipPath32"
       clipPathUnits="userSpaceOnUse"><path
         id="path30"
         d="m 38.5,434.4367 h 79.61719 v 55.02344 H 38.5 Z" /></clipPath><clipPath
       id="clipPath46"
       clipPathUnits="userSpaceOnUse"><path
         id="path44"
         d="m 210.0877,426 h 161.8151 v 71.89684 H 210.0877 Z" /></clipPath><clipPath
       id="clipPath58"
       clipPathUnits="userSpaceOnUse"><path
         id="path56"
         d="m 212.5877,428.5 h 156.8151 v 66.89684 H 212.5877 Z" /></clipPath><clipPath
       id="clipPath72"
       clipPathUnits="userSpaceOnUse"><path
         id="path70"
         d="m 369.8152,445.0457 h 59.07064 v 15.2 H 369.8152 Z" /></clipPath><clipPath
       id="clipPath86"
       clipPathUnits="userSpaceOnUse"><path
         id="path84"
         d="M 311.1205,495.0314 H 435.1246 V 605.1595 H 311.1205 Z" /></clipPath><clipPath
       id="clipPath100"
       clipPathUnits="userSpaceOnUse"><path
         id="path98"
         d="m 426.8733,599.9367 h 214.1484 v 60.02344 H 426.8733 Z" /></clipPath><clipPath
       id="clipPath112"
       clipPathUnits="userSpaceOnUse"><path
         id="path110"
         d="m 429.3733,602.4367 h 209.1484 v 55.02344 H 429.3733 Z" /></clipPath><clipPath
       id="clipPath138"
       clipPathUnits="userSpaceOnUse"><path
         id="path136"
         d="m 118.6172,454.3484 h 93.47047 v 15.2 H 118.6172 Z" /></clipPath><clipPath
       id="clipPath152"
       clipPathUnits="userSpaceOnUse"><path
         id="path150"
         d="m 210.0877,300 h 161.8151 v 71.89684 H 210.0877 Z" /></clipPath><clipPath
       id="clipPath164"
       clipPathUnits="userSpaceOnUse"><path
         id="path162"
         d="m 212.5877,302.5 h 156.8151 v 66.89684 H 212.5877 Z" /></clipPath><clipPath
       id="clipPath178"
       clipPathUnits="userSpaceOnUse"><path
         id="path176"
         d="m 426.8733,431.9367 h 214.1484 v 60.02344 H 426.8733 Z" /></clipPath><clipPath
       id="clipPath190"
       clipPathUnits="userSpaceOnUse"><path
         id="path188"
         d="m 429.3733,434.4367 h 209.1484 v 55.02344 H 429.3733 Z" /></clipPath><clipPath
       id="clipPath216"
       clipPathUnits="userSpaceOnUse"><path
         id="path214"
         d="m 368.9635,356.0125 h 152.5314 v 78.9284 H 368.9635 Z" /></clipPath><clipPath
       id="clipPath230"
       clipPathUnits="userSpaceOnUse"><path
         id="path228"
         d="m 426.8733,207.9367 h 214.1484 v 60.02344 H 426.8733 Z" /></clipPath><clipPath
       id="clipPath242"
       clipPathUnits="userSpaceOnUse"><path
         id="path240"
         d="m 429.3733,210.4367 h 209.1484 v 55.02344 H 429.3733 Z" /></clipPath><clipPath
       id="clipPath268"
       clipPathUnits="userSpaceOnUse"><path
         id="path266"
         d="M 319.9871,229.0808 H 429.294 v 73.97172 H 319.9871 Z" /></clipPath><clipPath
       id="clipPath282"
       clipPathUnits="userSpaceOnUse"><path
         id="path280"
         d="m 99.28779,329.8482 h 113.5015 V 434.8926 H 99.28779 Z" /></clipPath><clipPath
       id="clipPath296"
       clipPathUnits="userSpaceOnUse"><path
         id="path294"
         d="m 778.0876,208.2299 h 161.8151 v 71.89684 H 778.0876 Z" /></clipPath><clipPath
       id="clipPath308"
       clipPathUnits="userSpaceOnUse"><path
         id="path306"
         d="m 780.5876,210.7299 h 156.8151 v 66.89684 H 780.5876 Z" /></clipPath><clipPath
       id="clipPath322"
       clipPathUnits="userSpaceOnUse"><path
         id="path320"
         d="m 638.993,234.795 h 141.1234 v 15.19758 H 638.993 Z" /></clipPath><clipPath
       id="clipPath336"
       clipPathUnits="userSpaceOnUse"><path
         id="path334"
         d="m 749.0876,36 h 161.8151 v 71.89684 H 749.0876 Z" /></clipPath><clipPath
       id="clipPath348"
       clipPathUnits="userSpaceOnUse"><path
         id="path346"
         d="m 751.5876,38.5 h 156.8151 v 66.89684 H 751.5876 Z" /></clipPath><clipPath
       id="clipPath362"
       clipPathUnits="userSpaceOnUse"><path
         id="path360"
         d="m 1121.873,207.9367 h 265.2891 v 60.02344 H 1121.873 Z" /></clipPath><clipPath
       id="clipPath374"
       clipPathUnits="userSpaceOnUse"><path
         id="path372"
         d="m 1124.373,210.4367 h 260.2891 v 55.02344 H 1124.373 Z" /></clipPath><clipPath
       id="clipPath400"
       clipPathUnits="userSpaceOnUse"><path
         id="path398"
         d="m 937.8791,232.6307 h 186.0178 v 15.19836 H 937.8791 Z" /></clipPath><clipPath
       id="clipPath414"
       clipPathUnits="userSpaceOnUse"><path
         id="path412"
         d="M 583.954,104.5355 H 769.4957 V 211.2451 H 583.954 Z" /></clipPath><clipPath
       id="clipPath428"
       clipPathUnits="userSpaceOnUse"><path
         id="path426"
         d="m 1121.873,41.93671 h 265.2891 v 60.02343 H 1121.873 Z" /></clipPath><clipPath
       id="clipPath440"
       clipPathUnits="userSpaceOnUse"><path
         id="path438"
         d="m 1124.373,44.43671 h 260.2891 V 99.46014 H 1124.373 Z" /></clipPath><clipPath
       id="clipPath466"
       clipPathUnits="userSpaceOnUse"><path
         id="path464"
         d="m 908.9028,64.34842 h 214.9705 v 15.2 H 908.9028 Z" /></clipPath></defs><g
     transform="matrix(1.3333333,0,0,-1.3333333,0,927.9468)"
     id="g10"><g
       id="g12" /><g
       id="g14"><g
         clip-path="url(#clipPath20)"
         id="g16"><g
           transform="matrix(1,0,0,-1,38.5,489.4601)"
           id="g22"><path
             id="path24"
             style="fill:none;stroke:#000000;stroke-width:3;stroke-linecap:butt;stroke-linejoin:miter;stroke-miterlimit:4;stroke-dasharray:none;stroke-opacity:1"
             d="m 16.34537,0 h 46.92645 c 4.79653,0 7.67446,0 9.59307,0.8009959 2.76585,1.0066871 4.94461,3.1854521 5.9513,5.9513011 0.801,1.918615 0.801,4.796533 0.801,9.593073 v 22.3327 c 0,4.79653 0,7.67446 -0.801,9.59307 -1.00669,2.76585 -3.18545,4.94461 -5.9513,5.9513 -1.91861,0.801 -4.79654,0.801 -9.59307,0.801 H 16.34537 c -4.79654,0 -7.674458,0 -9.593073,-0.801 C 3.986448,53.21575 1.807683,51.03699 0.8009959,48.27114 0,46.35253 0,43.4746 0,38.67807 V 16.34537 C 0,11.54883 0,8.670912 0.8009959,6.752297 1.807683,3.986448 3.986448,1.807683 6.752297,0.8009959 8.670912,0 11.54883,0 16.34537,0 Z" /></g></g></g><g
       id="g26"><g
         clip-path="url(#clipPath32)"
         id="g28"><g
           transform="translate(61.78459,455.8955)"
           id="g34"><text
             id="text38"
             style="font-style:italic;font-variant:normal;font-weight:bold;font-size:18px;font-family:Space+Grotesk;-inkscape-font-specification:Space+Grotesk-BoldItalic;writing-mode:lr-tb;fill:#000000;fill-opacity:1;fill-rule:nonzero;stroke:none"
             transform="scale(1,-1)"><tspan
               id="tspan36"
               y="0"
               x="0 11.016 22.032">app</tspan></text>
</g></g></g><g
       id="g40"><g
         clip-path="url(#clipPath46)"
         id="g42"><g
           transform="matrix(1,0,0,-1,212.5877,495.3968)"
           id="g48"><path
             id="path50"
             style="fill:none;stroke:#bfbfbf;stroke-width:3;stroke-linecap:butt;stroke-linejoin:miter;stroke-miterlimit:4;stroke-dasharray:3, 3;stroke-dashoffset:0;stroke-opacity:1"
             d="M 22.19567,0 H 134.6195 c 6.5133,0 10.4213,0 13.0266,1.087687 3.7558,1.366998 6.7144,4.325583 8.0814,8.081379 1.0876,2.605324 1.0876,6.513304 1.0876,13.026604 v 22.5055 c 0,6.5133 0,10.42129 -1.0876,13.02661 -1.367,3.75579 -4.3256,6.71438 -8.0814,8.08138 -2.6053,1.08768 -6.5133,1.08768 -13.0266,1.08768 H 22.19567 c -6.5133,0 -10.42128,0 -13.026604,-1.08768 C 5.41327,64.44216 2.454685,61.48357 1.087687,57.72778 0,55.12246 0,51.21447 0,44.70117 V 22.19567 C 0,15.68237 0,11.77439 1.087687,9.169066 2.454685,5.41327 5.41327,2.454685 9.169066,1.087687 11.77439,0 15.68237,0 22.19567,0 Z" /></g></g></g><g
       id="g52"><g
         clip-path="url(#clipPath58)"
         id="g54"><g
           transform="translate(252.4392,455.4572)"
           id="g60"><text
             id="text64"
             style="font-variant:normal;font-weight:bold;font-size:18px;font-family:Space+Grotesk;-inkscape-font-specification:Space+Grotesk-Bold;writing-mode:lr-tb;fill:#000000;fill-opacity:1;fill-rule:nonzero;stroke:none"
             transform="scale(1,-1)"><tspan
               id="tspan62"
               y="0"
               x="0 11.016 22.032 33.048 44.063999 55.080002 66.096001">Class A</tspan></text>
</g></g></g><g
       id="g66"><g
         clip-path="url(#clipPath72)"
         id="g68"><g
           transform="matrix(1,0,0,-1,370.9028,454.1346)"
           id="g74"><path
             id="path76"
             style="fill:none;stroke:#000000;stroke-width:3;stroke-linecap:butt;stroke-linejoin:miter;stroke-miterlimit:4;stroke-dasharray:none;stroke-opacity:1"
             d="m 0,0 c 14.94858,0.8744692 29.53874,1.370761 43.77047,1.488874 l 1.5,2.9e-5" /></g><path
           id="path78"
           style="fill:#000000;fill-opacity:1;fill-rule:nonzero;stroke:none"
           d="m 414.6732,446.0457 13.2001,6.5997 -13.1999,6.6003 z" /></g></g><g
       id="g80"><g
         clip-path="url(#clipPath86)"
         id="g82"><g
           transform="matrix(1,0,0,-1,313.3456,602.8096)"
           id="g88"><path
             id="path90"
             style="fill:none;stroke:#000000;stroke-width:3;stroke-linecap:butt;stroke-linejoin:miter;stroke-miterlimit:4;stroke-dasharray:none;stroke-opacity:1"
             d="M 0,105.9127 C 31.21792,61.71435 67.34608,28.42377 108.3845,6.040989 l 1.3369,-0.687917" /></g><path
           id="path92"
           style="fill:#000000;fill-opacity:1;fill-rule:nonzero;stroke:none"
           d="m 424.753,590.9015 8.7177,11.9081 -14.7571,-0.1707 z" /></g></g><g
       id="g94"><g
         clip-path="url(#clipPath100)"
         id="g96"><g
           transform="matrix(1,0,0,-1,429.3733,657.4601)"
           id="g102"><path
             id="path104"
             style="fill:none;stroke:#000000;stroke-width:3;stroke-linecap:butt;stroke-linejoin:miter;stroke-miterlimit:4;stroke-dasharray:none;stroke-opacity:1"
             d="M 16.13458,0 H 193.0139 c 4.7346,0 7.5754,0 9.4693,0.7906663 2.7302,0.9937047 4.8809,3.1443727 5.8746,5.8745537 0.7906,1.893872 0.7906,4.73468 0.7906,9.46936 v 22.75428 c 0,4.73468 0,7.57549 -0.7906,9.46936 -0.9937,2.73018 -3.1444,4.88085 -5.8746,5.87455 -1.8939,0.79067 -4.7347,0.79067 -9.4693,0.79067 H 16.13458 c -4.73468,0 -7.575488,0 -9.46936,-0.79067 C 3.935039,53.23907 1.784371,51.0884 0.7906663,48.35822 0,46.46435 0,43.62354 0,38.88886 V 16.13458 C 0,11.3999 0,8.559092 0.7906663,6.66522 1.784371,3.935039 3.935039,1.784371 6.66522,0.7906663 8.559092,0 11.3999,0 16.13458,0 Z" /></g></g></g><g
       id="g106"><g
         clip-path="url(#clipPath112)"
         id="g108"><g
           transform="translate(456.925,623.8955)"
           id="g114"><text
             id="text118"
             style="font-style:italic;font-variant:normal;font-weight:bold;font-size:18px;font-family:Space+Grotesk;-inkscape-font-specification:Space+Grotesk-BoldItalic;writing-mode:lr-tb;fill:#000000;fill-opacity:1;fill-rule:nonzero;stroke:none"
             transform="scale(1,-1)"><tspan
               id="tspan116"
               y="0"
               x="0 11.016 22.032 33.048 44.063999 55.080002 66.096001 77.112 88.127998">Protocol </tspan></text>
</g><g
           transform="translate(456.925,623.8955)"
           id="g120"><text
             id="text124"
             style="font-style:italic;font-variant:normal;font-weight:bold;font-size:18px;font-family:Menlo;-inkscape-font-specification:Menlo-BoldItalic;writing-mode:lr-tb;fill:#000000;fill-opacity:1;fill-rule:nonzero;stroke:none"
             transform="matrix(1,0,0,-1,99.144,0)"><tspan
               id="tspan122"
               y="0"
               x="0">⍺</tspan></text>
</g><g
           transform="translate(456.925,623.8955)"
           id="g126"><text
             id="text130"
             style="font-style:italic;font-variant:normal;font-weight:bold;font-size:18px;font-family:Space+Grotesk;-inkscape-font-specification:Space+Grotesk-BoldItalic;writing-mode:lr-tb;fill:#000000;fill-opacity:1;fill-rule:nonzero;stroke:none"
             transform="matrix(1,0,0,-1,120.9969,0)"><tspan
               id="tspan128"
               y="0"
               x="0 11.016 22.032">(n)</tspan></text>
</g></g></g><g
       id="g132"><g
         clip-path="url(#clipPath138)"
         id="g134"><g
           transform="matrix(1,0,0,-1,119.6172,461.9484)"
           id="g140"><path
             id="path142"
             style="fill:none;stroke:#000000;stroke-width:3;stroke-linecap:butt;stroke-linejoin:miter;stroke-miterlimit:4;stroke-dasharray:none;stroke-opacity:1"
             d="M 0,1.640593e-6 78.27047,0 h 1.5" /></g><path
           id="path144"
           style="fill:#000000;fill-opacity:1;fill-rule:nonzero;stroke:none"
           d="m 197.8877,455.3484 13.2,6.6 -13.2,6.6 z" /></g></g><g
       id="g146"><g
         clip-path="url(#clipPath152)"
         id="g148"><g
           transform="matrix(1,0,0,-1,212.5877,369.3968)"
           id="g154"><path
             id="path156"
             style="fill:none;stroke:#bfbfbf;stroke-width:3;stroke-linecap:butt;stroke-linejoin:miter;stroke-miterlimit:4;stroke-dasharray:3, 3;stroke-dashoffset:0;stroke-opacity:1"
             d="M 22.19567,0 H 134.6195 c 6.5133,0 10.4213,0 13.0266,1.087687 3.7558,1.366998 6.7144,4.325583 8.0814,8.081379 1.0876,2.605324 1.0876,6.513304 1.0876,13.026604 v 22.5055 c 0,6.5133 0,10.42129 -1.0876,13.02661 -1.367,3.75579 -4.3256,6.71438 -8.0814,8.08138 -2.6053,1.08768 -6.5133,1.08768 -13.0266,1.08768 H 22.19567 c -6.5133,0 -10.42128,0 -13.026604,-1.08768 C 5.41327,64.44216 2.454685,61.48357 1.087687,57.72778 0,55.12246 0,51.21447 0,44.70117 V 22.19567 C 0,15.68237 0,11.77439 1.087687,9.169066 2.454685,5.41327 5.41327,2.454685 9.169066,1.087687 11.77439,0 15.68237,0 22.19567,0 Z" /></g></g></g><g
       id="g158"><g
         clip-path="url(#clipPath164)"
         id="g160"><g
           transform="translate(252.4392,329.4572)"
           id="g166"><text
             id="text170"
             style="font-variant:normal;font-weight:bold;font-size:18px;font-family:Space+Grotesk;-inkscape-font-specification:Space+Grotesk-Bold;writing-mode:lr-tb;fill:#000000;fill-opacity:1;fill-rule:nonzero;stroke:none"
             transform="scale(1,-1)"><tspan
               id="tspan168"
               y="0"
               x="0 11.016 22.032 33.048 44.063999 55.080002 66.096001">Class B</tspan></text>
</g></g></g><g
       id="g172"><g
         clip-path="url(#clipPath178)"
         id="g174"><g
           transform="matrix(1,0,0,-1,429.3733,489.4601)"
           id="g180"><path
             id="path182"
             style="fill:none;stroke:#000000;stroke-width:3;stroke-linecap:butt;stroke-linejoin:miter;stroke-miterlimit:4;stroke-dasharray:none;stroke-opacity:1"
             d="M 16.13458,0 H 193.0139 c 4.7346,0 7.5754,0 9.4693,0.7906663 2.7302,0.9937047 4.8809,3.1443727 5.8746,5.8745537 0.7906,1.893872 0.7906,4.73468 0.7906,9.46936 v 22.75428 c 0,4.73468 0,7.57549 -0.7906,9.46936 -0.9937,2.73018 -3.1444,4.88085 -5.8746,5.87455 -1.8939,0.79067 -4.7347,0.79067 -9.4693,0.79067 H 16.13458 c -4.73468,0 -7.575488,0 -9.46936,-0.79067 C 3.935039,53.23907 1.784371,51.0884 0.7906663,48.35822 0,46.46435 0,43.62354 0,38.88886 V 16.13458 C 0,11.3999 0,8.559092 0.7906663,6.66522 1.784371,3.935039 3.935039,1.784371 6.66522,0.7906663 8.559092,0 11.3999,0 16.13458,0 Z" /></g></g></g><g
       id="g184"><g
         clip-path="url(#clipPath190)"
         id="g186"><g
           transform="translate(456.925,455.8955)"
           id="g192"><text
             id="text196"
             style="font-style:italic;font-variant:normal;font-weight:bold;font-size:18px;font-family:Space+Grotesk;-inkscape-font-specification:Space+Grotesk-BoldItalic;writing-mode:lr-tb;fill:#000000;fill-opacity:1;fill-rule:nonzero;stroke:none"
             transform="scale(1,-1)"><tspan
               id="tspan194"
               y="0"
               x="0 11.016 22.032 33.048 44.063999 55.080002 66.096001 77.112 88.127998">Protocol </tspan></text>
</g><g
           transform="translate(456.925,455.8955)"
           id="g198"><text
             id="text202"
             style="font-style:italic;font-variant:normal;font-weight:bold;font-size:18px;font-family:Menlo;-inkscape-font-specification:Menlo-BoldItalic;writing-mode:lr-tb;fill:#000000;fill-opacity:1;fill-rule:nonzero;stroke:none"
             transform="matrix(1,0,0,-1,99.144,0)"><tspan
               id="tspan200"
               y="0"
               x="0">β</tspan></text>
</g><g
           transform="translate(456.925,455.8955)"
           id="g204"><text
             id="text208"
             style="font-style:italic;font-variant:normal;font-weight:bold;font-size:18px;font-family:Space+Grotesk;-inkscape-font-specification:Space+Grotesk-BoldItalic;writing-mode:lr-tb;fill:#000000;fill-opacity:1;fill-rule:nonzero;stroke:none"
             transform="matrix(1,0,0,-1,120.9969,0)"><tspan
               id="tspan206"
               y="0"
               x="0 11.016 22.032">(n)</tspan></text>
</g></g></g><g
       id="g210"><g
         clip-path="url(#clipPath216)"
         id="g212"><g
           transform="matrix(1,0,0,-1,370.4165,432.9367)"
           id="g218"><path
             id="path220"
             style="fill:none;stroke:#000000;stroke-width:3;stroke-linecap:butt;stroke-linejoin:miter;stroke-miterlimit:4;stroke-dasharray:none;stroke-opacity:1"
             d="M 0,74.49421 C 67.1441,53.22259 113.6409,31.45509 139.4904,9.191713 l 1.0765,-1.044505" /></g><path
           id="path222"
           style="fill:#000000;fill-opacity:1;fill-rule:nonzero;stroke:none"
           d="m 514.5027,419.0081 4.8779,13.9286 -14.0696,-4.4549 z" /></g></g><g
       id="g224"><g
         clip-path="url(#clipPath230)"
         id="g226"><g
           transform="matrix(1,0,0,-1,429.3733,265.4601)"
           id="g232"><path
             id="path234"
             style="fill:none;stroke:#000000;stroke-width:3;stroke-linecap:butt;stroke-linejoin:miter;stroke-miterlimit:4;stroke-dasharray:none;stroke-opacity:1"
             d="M 16.13458,0 H 193.0139 c 4.7346,0 7.5754,0 9.4693,0.7906663 2.7302,0.9937047 4.8809,3.1443727 5.8746,5.8745537 0.7906,1.893872 0.7906,4.73468 0.7906,9.46936 v 22.75428 c 0,4.73468 0,7.57549 -0.7906,9.46936 -0.9937,2.73018 -3.1444,4.88085 -5.8746,5.87455 -1.8939,0.79067 -4.7347,0.79067 -9.4693,0.79067 H 16.13458 c -4.73468,0 -7.575488,0 -9.46936,-0.79067 C 3.935039,53.23907 1.784371,51.0884 0.7906663,48.35822 0,46.46435 0,43.62354 0,38.88886 V 16.13458 C 0,11.3999 0,8.559092 0.7906663,6.66522 1.784371,3.935039 3.935039,1.784371 6.66522,0.7906663 8.559092,0 11.3999,0 16.13458,0 Z" /></g></g></g><g
       id="g236"><g
         clip-path="url(#clipPath242)"
         id="g238"><g
           transform="translate(456.925,231.8955)"
           id="g244"><text
             id="text248"
             style="font-style:italic;font-variant:normal;font-weight:bold;font-size:18px;font-family:Space+Grotesk;-inkscape-font-specification:Space+Grotesk-BoldItalic;writing-mode:lr-tb;fill:#000000;fill-opacity:1;fill-rule:nonzero;stroke:none"
             transform="scale(1,-1)"><tspan
               id="tspan246"
               y="0"
               x="0 11.016 22.032 33.048 44.063999 55.080002 66.096001 77.112 88.127998">Protocol </tspan></text>
</g><g
           transform="translate(456.925,231.8955)"
           id="g250"><text
             id="text254"
             style="font-style:italic;font-variant:normal;font-weight:bold;font-size:18px;font-family:Menlo;-inkscape-font-specification:Menlo-BoldItalic;writing-mode:lr-tb;fill:#000000;fill-opacity:1;fill-rule:nonzero;stroke:none"
             transform="matrix(1,0,0,-1,99.144,0)"><tspan
               id="tspan252"
               y="0"
               x="0">Ɣ</tspan></text>
</g><g
           transform="translate(456.925,231.8955)"
           id="g256"><text
             id="text260"
             style="font-style:italic;font-variant:normal;font-weight:bold;font-size:18px;font-family:Space+Grotesk;-inkscape-font-specification:Space+Grotesk-BoldItalic;writing-mode:lr-tb;fill:#000000;fill-opacity:1;fill-rule:nonzero;stroke:none"
             transform="matrix(1,0,0,-1,120.9969,0)"><tspan
               id="tspan258"
               y="0"
               x="0 11.016 22.032">(n)</tspan></text>
</g></g></g><g
       id="g262"><g
         clip-path="url(#clipPath268)"
         id="g264"><g
           transform="matrix(1,0,0,-1,322.0559,301)"
           id="g270"><path
             id="path272"
             style="fill:none;stroke:#000000;stroke-width:3;stroke-linecap:butt;stroke-linejoin:miter;stroke-miterlimit:4;stroke-dasharray:none;stroke-opacity:1"
             d="m 0,0 c 30.84963,31.3275 61.94768,52.88018 93.29416,64.65804 l 1.42553,0.47598" /></g><path
           id="path274"
           style="fill:#000000;fill-opacity:1;fill-rule:nonzero;stroke:none"
           d="m 413.2625,230.0808 14.6108,2.0797 -10.4303,10.4408 z" /></g></g><g
       id="g276"><g
         clip-path="url(#clipPath282)"
         id="g278"><g
           transform="matrix(1,0,0,-1,101.4438,432.9367)"
           id="g284"><path
             id="path286"
             style="fill:none;stroke:#000000;stroke-width:3;stroke-linecap:butt;stroke-linejoin:miter;stroke-miterlimit:4;stroke-dasharray:none;stroke-opacity:1"
             d="m 0,0 c 36.88748,44.6128 69.63262,75.98497 98.23542,94.1165 l 1.2989,0.75669" /></g><path
           id="path288"
           style="fill:#000000;fill-opacity:1;fill-rule:nonzero;stroke:none"
           d="m 196.3597,333.1157 14.728,-0.9417 -8.0834,12.3474 z" /></g></g><g
       id="g290"><g
         clip-path="url(#clipPath296)"
         id="g292"><g
           transform="matrix(1,0,0,-1,780.5876,277.6267)"
           id="g298"><path
             id="path300"
             style="fill:none;stroke:#bfbfbf;stroke-width:3;stroke-linecap:butt;stroke-linejoin:miter;stroke-miterlimit:4;stroke-dasharray:3, 3;stroke-dashoffset:0;stroke-opacity:1"
             d="M 22.19567,0 H 134.6195 c 6.5133,0 10.4213,0 13.0266,1.087687 3.7558,1.366998 6.7144,4.325583 8.0814,8.081379 1.0876,2.605324 1.0876,6.513304 1.0876,13.026604 v 22.5055 c 0,6.5133 0,10.42129 -1.0876,13.02661 -1.367,3.75579 -4.3256,6.71438 -8.0814,8.08138 -2.6053,1.08768 -6.5133,1.08768 -13.0266,1.08768 H 22.19567 c -6.5133,0 -10.42128,0 -13.026604,-1.08768 C 5.41327,64.44216 2.454685,61.48357 1.087687,57.72778 0,55.12246 0,51.21447 0,44.70117 V 22.19567 C 0,15.68237 0,11.77439 1.087687,9.169066 2.454685,5.41327 5.41327,2.454685 9.169066,1.087687 11.77439,0 15.68237,0 22.19567,0 Z" /></g></g></g><g
       id="g302"><g
         clip-path="url(#clipPath308)"
         id="g304"><g
           transform="translate(820.4392,237.6871)"
           id="g310"><text
             id="text314"
             style="font-variant:normal;font-weight:bold;font-size:18px;font-family:Space+Grotesk;-inkscape-font-specification:Space+Grotesk-Bold;writing-mode:lr-tb;fill:#000000;fill-opacity:1;fill-rule:nonzero;stroke:none"
             transform="scale(1,-1)"><tspan
               id="tspan312"
               y="0"
               x="0 11.016 22.032 33.048 44.063999 55.080002 66.096001">Class C</tspan></text>
</g></g></g><g
       id="g316"><g
         clip-path="url(#clipPath322)"
         id="g318"><g
           transform="matrix(1,0,0,-1,640.0217,242.6468)"
           id="g324"><path
             id="path326"
             style="fill:none;stroke:#000000;stroke-width:3;stroke-linecap:butt;stroke-linejoin:miter;stroke-miterlimit:4;stroke-dasharray:none;stroke-opacity:1"
             d="m 0,2.665336 125.8683,-2.4123911 1.4998,-0.028744" /></g><path
           id="path328"
           style="fill:#000000;fill-opacity:1;fill-rule:nonzero;stroke:none"
           d="m 766.0165,235.795 13.0711,6.8518 -13.324,6.3458 z" /></g></g><g
       id="g330"><g
         clip-path="url(#clipPath336)"
         id="g332"><g
           transform="matrix(1,0,0,-1,751.5876,105.3968)"
           id="g338"><path
             id="path340"
             style="fill:none;stroke:#bfbfbf;stroke-width:3;stroke-linecap:butt;stroke-linejoin:miter;stroke-miterlimit:4;stroke-dasharray:3, 3;stroke-dashoffset:0;stroke-opacity:1"
             d="M 22.19567,0 H 134.6195 c 6.5133,0 10.4213,0 13.0266,1.087687 3.7558,1.366998 6.7144,4.325583 8.0814,8.081379 1.0876,2.605324 1.0876,6.513304 1.0876,13.026604 v 22.5055 c 0,6.5133 0,10.42129 -1.0876,13.02661 -1.367,3.75579 -4.3256,6.71438 -8.0814,8.08138 -2.6053,1.08768 -6.5133,1.08768 -13.0266,1.08768 H 22.19567 c -6.5133,0 -10.42128,0 -13.026604,-1.08768 C 5.41327,64.44216 2.454685,61.48357 1.087687,57.72778 0,55.12246 0,51.21447 0,44.70117 V 22.19567 C 0,15.68237 0,11.77439 1.087687,9.169066 2.454685,5.41327 5.41327,2.454685 9.169066,1.087687 11.77439,0 15.68237,0 22.19567,0 Z" /></g></g></g><g
       id="g342"><g
         clip-path="url(#clipPath348)"
         id="g344"><g
           transform="translate(791.4392,65.45721)"
           id="g350"><text
             id="text354"
             style="font-variant:normal;font-weight:bold;font-size:18px;font-family:Space+Grotesk;-inkscape-font-specification:Space+Grotesk-Bold;writing-mode:lr-tb;fill:#000000;fill-opacity:1;fill-rule:nonzero;stroke:none"
             transform="scale(1,-1)"><tspan
               id="tspan352"
               y="0"
               x="0 11.016 22.032 33.048 44.063999 55.080002 66.096001">Class B</tspan></text>
</g></g></g><g
       id="g356"><g
         clip-path="url(#clipPath362)"
         id="g358"><g
           transform="matrix(1,0,0,-1,1124.373,265.4601)"
           id="g364"><path
             id="path366"
             style="fill:none;stroke:#000000;stroke-width:3;stroke-linecap:butt;stroke-linejoin:miter;stroke-miterlimit:4;stroke-dasharray:none;stroke-opacity:1"
             d="M 16.13458,0 H 244.1545 c 4.7347,0 7.5755,0 9.4693,0.7906663 2.7302,0.9937047 4.8809,3.1443727 5.8746,5.8745537 0.7907,1.893872 0.7907,4.73468 0.7907,9.46936 v 22.75428 c 0,4.73468 0,7.57549 -0.7907,9.46936 -0.9937,2.73018 -3.1444,4.88085 -5.8746,5.87455 -1.8938,0.79067 -4.7346,0.79067 -9.4693,0.79067 H 16.13458 c -4.73468,0 -7.575488,0 -9.46936,-0.79067 C 3.935039,53.23907 1.784371,51.0884 0.7906663,48.35822 0,46.46435 0,43.62354 0,38.88886 V 16.13458 C 0,11.3999 0,8.559092 0.7906663,6.66522 1.784371,3.935039 3.935039,1.784371 6.66522,0.7906663 8.559092,0 11.3999,0 16.13458,0 Z" /></g></g></g><g
       id="g368"><g
         clip-path="url(#clipPath374)"
         id="g370"><g
           transform="translate(1155.463,231.8955)"
           id="g376"><text
             id="text380"
             style="font-style:italic;font-variant:normal;font-weight:bold;font-size:18px;font-family:Space+Grotesk;-inkscape-font-specification:Space+Grotesk-BoldItalic;writing-mode:lr-tb;fill:#000000;fill-opacity:1;fill-rule:nonzero;stroke:none"
             transform="scale(1,-1)"><tspan
               id="tspan378"
               y="0"
               x="0 11.016 22.032 33.048 44.063999 55.080002 66.096001 77.112 88.127998">Protocol </tspan></text>
</g><g
           transform="translate(1155.463,231.8955)"
           id="g382"><text
             id="text386"
             style="font-style:italic;font-variant:normal;font-weight:bold;font-size:18px;font-family:Menlo;-inkscape-font-specification:Menlo-BoldItalic;writing-mode:lr-tb;fill:#000000;fill-opacity:1;fill-rule:nonzero;stroke:none"
             transform="matrix(1,0,0,-1,99.144,0)"><tspan
               id="tspan384"
               y="0"
               x="0">⍺</tspan></text>
</g><g
           transform="translate(1155.463,231.8955)"
           id="g388"><text
             id="text392"
             style="font-style:italic;font-variant:normal;font-weight:bold;font-size:18px;font-family:Space+Grotesk;-inkscape-font-specification:Space+Grotesk-BoldItalic;writing-mode:lr-tb;fill:#000000;fill-opacity:1;fill-rule:nonzero;stroke:none"
             transform="matrix(1,0,0,-1,120.9969,0)"><tspan
               id="tspan390"
               y="0"
               x="0 11.016 22.032 33.048 44.063999 55.080002 66.096001">(n - 1)</tspan></text>
</g></g></g><g
       id="g394"><g
         clip-path="url(#clipPath400)"
         id="g396"><g
           transform="matrix(1,0,0,-1,938.9028,242.9197)"
           id="g402"><path
             id="path404"
             style="fill:none;stroke:#000000;stroke-width:3;stroke-linecap:butt;stroke-linejoin:miter;stroke-miterlimit:4;stroke-dasharray:none;stroke-opacity:1"
             d="m 0,0 170.7721,2.689826 1.4999,0.023623" /></g><path
           id="path406"
           style="fill:#000000;fill-opacity:1;fill-rule:nonzero;stroke:none"
           d="m 1109.571,233.6307 13.302,6.3912 -13.094,6.8071 z" /></g></g><g
       id="g408"><g
         clip-path="url(#clipPath414)"
         id="g410"><g
           transform="matrix(1,0,0,-1,585.6876,208.9367)"
           id="g416"><path
             id="path418"
             style="fill:none;stroke:#000000;stroke-width:3;stroke-linecap:butt;stroke-linejoin:miter;stroke-miterlimit:4;stroke-dasharray:none;stroke-opacity:1"
             d="m 0,0 170.558,95.63534 1.3112,0.73541" /></g><path
           id="path420"
           style="fill:#000000;fill-opacity:1;fill-rule:nonzero;stroke:none"
           d="m 753.0205,107.5427 14.7415,-0.6989 -8.2857,12.2126 z" /></g></g><g
       id="g422"><g
         clip-path="url(#clipPath428)"
         id="g424"><g
           transform="matrix(1,0,0,-1,1124.373,99.46014)"
           id="g430"><path
             id="path432"
             style="fill:none;stroke:#000000;stroke-width:3;stroke-linecap:butt;stroke-linejoin:miter;stroke-miterlimit:4;stroke-dasharray:none;stroke-opacity:1"
             d="M 16.13458,0 H 244.1545 c 4.7347,0 7.5755,0 9.4693,0.7906663 2.7302,0.9937047 4.8809,3.1443727 5.8746,5.8745537 0.7907,1.893872 0.7907,4.73468 0.7907,9.46936 v 22.75427 c 0,4.73468 0,7.57549 -0.7907,9.46936 -0.9937,2.73018 -3.1444,4.88085 -5.8746,5.87455 -1.8938,0.79067 -4.7346,0.79067 -9.4693,0.79067 H 16.13458 c -4.73468,0 -7.575488,0 -9.46936,-0.79067 C 3.935039,53.23906 1.784371,51.08839 0.7906663,48.35821 0,46.46434 0,43.62353 0,38.88885 V 16.13458 C 0,11.3999 0,8.559092 0.7906663,6.66522 1.784371,3.935039 3.935039,1.784371 6.66522,0.7906663 8.559092,0 11.3999,0 16.13458,0 Z" /></g></g></g><g
       id="g434"><g
         clip-path="url(#clipPath440)"
         id="g436"><g
           transform="translate(1155.463,65.8955)"
           id="g442"><text
             id="text446"
             style="font-style:italic;font-variant:normal;font-weight:bold;font-size:18px;font-family:Space+Grotesk;-inkscape-font-specification:Space+Grotesk-BoldItalic;writing-mode:lr-tb;fill:#000000;fill-opacity:1;fill-rule:nonzero;stroke:none"
             transform="scale(1,-1)"><tspan
               id="tspan444"
               y="0"
               x="0 11.016 22.032 33.048 44.063999 55.080002 66.096001 77.112 88.127998">Protocol </tspan></text>
</g><g
           transform="translate(1155.463,65.8955)"
           id="g448"><text
             id="text452"
             style="font-style:italic;font-variant:normal;font-weight:bold;font-size:18px;font-family:Menlo;-inkscape-font-specification:Menlo-BoldItalic;writing-mode:lr-tb;fill:#000000;fill-opacity:1;fill-rule:nonzero;stroke:none"
             transform="matrix(1,0,0,-1,99.144,0)"><tspan
               id="tspan450"
               y="0"
               x="0">⍺</tspan></text>
</g><g
           transform="translate(1155.463,65.8955)"
           id="g454"><text
             id="text458"
             style="font-style:italic;font-variant:normal;font-weight:bold;font-size:18px;font-family:Space+Grotesk;-inkscape-font-specification:Space+Grotesk-BoldItalic;writing-mode:lr-tb;fill:#000000;fill-opacity:1;fill-rule:nonzero;stroke:none"
             transform="matrix(1,0,0,-1,120.9969,0)"><tspan
               id="tspan456"
               y="0"
               x="0 11.016 22.032 33.048 44.063999 55.080002 66.096001">(n - 1)</tspan></text>
</g></g></g><g
       id="g460"><g
         clip-path="url(#clipPath466)"
         id="g462"><g
           transform="matrix(1,0,0,-1,909.9028,71.94842)"
           id="g468"><path
             id="path470"
             style="fill:none;stroke:#000000;stroke-width:3;stroke-linecap:butt;stroke-linejoin:miter;stroke-miterlimit:4;stroke-dasharray:none;stroke-opacity:1"
             d="m 0,0 c 66.59017,0 133.1803,0 199.7705,0 h 1.5" /></g><path
           id="path472"
           style="fill:#000000;fill-opacity:1;fill-rule:nonzero;stroke:none"
           d="m 1109.673,65.34842 13.2,6.6 -13.2,6.6 z" /></g></g></g></svg>